<svg width="638" height="199" viewBox="0 0 638 199" fill="none" xmlns="http://www.w3.org/2000/svg">
<path fill-rule="evenodd" clip-rule="evenodd" d="M587.415 2.1196C584.449 2.95128 579.755 4.85923 576.982 6.36084C574.209 7.86145 569.791 11.2321 567.164 13.8509C564.369 16.6365 560.95 21.6096 558.925 25.8319C557.02 29.8025 554.924 36.1654 554.266 39.9713C553.583 43.923 553.326 50.1331 553.668 54.4482C553.997 58.6046 554.95 64.2846 555.786 67.0712C556.624 69.8577 559.089 74.8907 561.266 78.2553C563.442 81.62 567.383 85.9611 570.022 87.902C572.661 89.8419 577.293 92.3928 580.316 93.571C584.112 95.0506 588.924 95.8643 595.874 96.2048C603.528 96.5782 607.353 96.2906 611.861 94.9997C615.119 94.0671 620.139 91.9905 623.015 90.384C625.892 88.7786 628.459 87.4647 628.721 87.4647C628.981 87.4647 629.734 89.2618 630.392 91.4583C631.325 94.5694 632.084 95.452 633.822 95.452C635.05 95.452 636.337 94.7191 636.681 93.8246C637.025 92.929 637.261 86.4922 637.205 79.5213C637.149 72.5504 636.752 66.2794 636.323 65.5865C635.895 64.8936 634.53 64.4783 633.291 64.664C631.725 64.8976 630.569 66.2185 629.497 68.9941C628.65 71.1906 626.788 74.7649 625.361 76.9364C623.933 79.109 620.866 82.3329 618.547 84.1C615.931 86.0929 612.155 87.7652 608.607 88.501C605.43 89.161 600.505 89.4086 597.531 89.0591C594.585 88.7137 590.015 87.3369 587.375 86C584.734 84.6631 581.376 82.1451 579.91 80.4049C578.444 78.6647 576.532 75.8612 575.659 74.1748C574.785 72.4875 573.664 69.7339 573.167 68.0536C572.669 66.3743 571.83 61.6787 571.299 57.6192C570.672 52.8059 570.685 47.1668 571.337 41.411C571.888 36.5567 573.258 30.128 574.383 27.1258C575.507 24.1225 578.438 19.43 580.897 16.6974C583.751 13.5254 587.073 11.0713 590.086 9.91016C593.149 8.72904 597.257 8.11903 601.798 8.16895C606.915 8.22686 610.072 8.86185 613.558 10.5352C616.18 11.7932 620.092 14.8283 622.25 17.2784C624.409 19.7295 626.934 23.7192 627.861 26.1453C629.197 29.6408 630.037 30.5553 631.909 30.5553H634.271L634.197 20.8208C634.156 15.4663 633.819 9.06451 633.448 6.59345C632.992 3.56527 632.284 2.10062 631.273 2.10062C630.449 2.10062 629.162 3.48941 628.414 5.18671L627.052 8.27381L618.986 4.78833C612.144 1.83304 609.544 1.25098 601.863 0.955447C595.832 0.723816 591.004 1.1132 587.415 2.1196ZM3.17084 3.06607C2.86209 3.87179 2.79016 5.07588 3.01297 5.74182C3.23479 6.40776 5.40298 7.43312 7.82996 8.02118C10.8974 8.763 12.633 9.85127 13.5202 11.5855C14.5004 13.5025 14.7382 22.3554 14.5424 49.7397L14.2876 85.399L12.575 87.1082C11.6338 88.0487 8.93605 89.0751 6.58002 89.3896C2.81915 89.8908 2.25861 90.2952 1.98184 92.7063L1.6651 95.452H23.1072C41.9865 95.452 44.6233 95.2583 45.1718 93.8275C45.5155 92.935 45.2838 91.5871 44.6573 90.8323C44.0308 90.0785 41.7957 89.4615 39.6914 89.4615C37.5862 89.4615 34.7685 88.9623 33.4286 88.3533C32.0897 87.7432 30.4951 86.1498 29.8846 84.8119C29.2301 83.3752 28.7755 76.2645 28.7755 67.4496V52.5203L33.5215 52.5762C36.1314 52.6072 39.7993 53.1693 41.6708 53.8243C43.5432 54.4802 45.9482 56.1945 47.0173 57.6352C48.0854 59.0749 49.2694 61.7706 49.6491 63.6256C50.2076 66.3543 50.8082 66.9973 52.7965 66.9973H55.2534L55.5262 49.2535C55.7601 34.0487 55.5792 31.4249 54.2643 30.9207C53.421 30.5962 52.1081 30.8479 51.3487 31.4778C50.5883 32.1078 49.6801 34.1526 49.3294 36.0216C48.9557 38.0124 47.4729 40.4446 45.7513 41.8923C44.1347 43.2521 41.5648 44.6029 40.0401 44.8945C38.5154 45.186 35.357 45.7132 33.022 46.0646L28.7755 46.7056V27.5371V8.36866L43.0136 8.771C54.2183 9.08749 58.0601 9.56573 61.0486 11.0164C63.4656 12.1896 65.5529 14.2453 66.7938 16.6754C67.8649 18.774 68.7422 21.353 68.7422 22.4063C68.7422 23.4586 69.4106 24.8754 70.228 25.5523C71.0453 26.2302 72.4212 26.5137 73.2854 26.1823C74.6343 25.6651 74.7672 24.0676 74.2237 14.8393C73.876 8.93074 73.4143 3.53634 73.1965 2.84943C72.8908 1.88297 65.0183 1.60141 38.2676 1.60141C8.83713 1.60141 3.65044 1.81806 3.17084 3.06607ZM141.022 2.3682C140.386 2.77355 132.623 21.296 123.772 43.5286C113.752 68.7045 106.792 84.8409 105.325 86.3085C104.028 87.6035 101.449 88.9713 99.5935 89.3477C96.8678 89.9008 96.1584 90.5578 95.9006 92.7682L95.5818 95.5049L110.888 95.2283L126.194 94.9528V93.0648C126.194 92.0264 125.52 90.8174 124.696 90.3791C123.871 89.9398 121.967 89.3217 120.464 89.0062C118.665 88.6288 117.526 87.6094 117.126 86.021C116.793 84.6941 117.262 81.0619 118.167 77.9478C119.073 74.8338 120.888 69.8607 122.2 66.8964L124.586 61.506H139.506C150.268 61.506 154.692 61.8535 155.378 62.754C155.902 63.4409 157.755 67.8439 159.497 72.5384C161.239 77.2339 162.664 82.4866 162.664 84.2108C162.664 85.9361 162.102 87.6943 161.415 88.1196C160.729 88.545 158.368 89.133 156.169 89.4265C152.71 89.8888 152.13 90.3301 151.857 92.7063L151.54 95.452H171.656H191.773L191.456 92.7423C191.205 90.5857 190.478 89.8978 187.899 89.3746C186.116 89.0132 183.944 88.1256 183.072 87.4018C182.199 86.6789 180.224 83.5888 178.685 80.5357C177.144 77.4826 169.459 59.0349 161.608 39.541C153.756 20.047 146.905 3.53634 146.384 2.84943C145.861 2.16352 144.702 1.60841 143.808 1.6164C142.912 1.62538 141.659 1.96384 141.022 2.3682ZM227.36 2.1655C226.947 2.58783 226.611 3.98062 226.611 5.26258C226.611 7.0697 227.16 7.59186 229.062 7.59186C230.409 7.59186 232.669 8.11801 234.081 8.76099C235.494 9.40496 236.977 11.0893 237.376 12.505C237.774 13.9218 238.101 30.131 238.101 48.5267C238.101 66.9224 237.774 83.1316 237.376 84.5483C236.977 85.9641 235.494 87.6484 234.081 88.2924C232.669 88.9353 230.298 89.4685 228.812 89.4765C227.326 89.4855 225.505 89.8758 224.764 90.3451C224.023 90.8143 223.58 92.0434 223.78 93.0757L224.144 94.9528H255.103H286.061L291.284 92.5935C294.156 91.2956 298.281 88.3103 300.45 85.9581C302.619 83.6068 304.875 79.9517 305.464 77.835C306.051 75.7184 306.535 72.2868 306.538 70.2101C306.541 68.1335 305.848 64.7638 304.996 62.7221C304.145 60.6803 301.785 57.2867 299.751 55.1811C297.717 53.0754 294.458 50.5295 292.509 49.5241C290.56 48.5177 287.188 47.3735 285.015 46.9811C282.843 46.5888 280.696 46.0556 280.243 45.7961C279.791 45.5365 281.59 44.3024 284.24 43.0544C286.89 41.8054 290.492 39.2684 292.245 37.4164C293.996 35.5653 295.908 32.7847 296.491 31.2392C297.074 29.6937 297.552 26.5777 297.552 24.3163C297.552 22.0539 296.606 18.2519 295.451 15.8677C294.295 13.4825 291.892 10.4204 290.11 9.06153C288.328 7.70369 284.215 5.63198 280.97 4.45685C275.753 2.56886 272.354 2.26834 251.59 1.85999C238.676 1.60639 227.773 1.74417 227.36 2.1655ZM349.175 2.26734C348.809 2.63276 348.509 3.98062 348.509 5.26258C348.509 7.06471 349.06 7.59186 350.942 7.59186C352.28 7.59186 354.473 8.00919 355.815 8.51938C357.23 9.05653 358.728 10.7978 359.377 12.6618C360.119 14.7874 360.499 27.003 360.499 48.7074C360.499 74.9616 360.212 82.225 359.066 84.9657C358.172 87.1033 356.763 88.5819 355.319 88.8964C354.046 89.1749 351.881 89.5274 350.507 89.6812C348.611 89.8938 347.934 90.6226 347.694 92.7063L347.377 95.452H368.992H390.607L390.29 92.7063L389.975 89.9607L384.124 89.4415C379.579 89.0372 377.853 88.4002 376.381 86.5851C374.694 84.5034 374.487 82.4587 374.487 67.8849V51.5219H376.585C377.738 51.5219 380.099 52.2168 381.83 53.0664C383.675 53.971 388.563 59.2426 393.631 65.7962C398.391 71.9484 405.487 81.1378 409.4 86.2167L416.515 95.452H428.54H440.565L440.249 92.8102C439.992 90.6586 439.141 89.9357 435.66 88.9144C433.31 88.2245 430.308 86.9525 428.988 86.0889C427.668 85.2252 422.164 79.2278 416.755 72.7621C411.347 66.2964 405.026 58.7055 402.709 55.894L398.496 50.7801L404.571 48.5666C407.914 47.3496 412.377 44.7926 414.49 42.8837C416.604 40.9757 419.088 37.4404 420.01 35.0282C421.172 31.987 421.561 28.6703 421.277 24.2144C420.958 19.1964 420.243 16.8871 418.02 13.6812C416.058 10.8517 413.251 8.63119 408.993 6.53553C405.594 4.86419 399.924 3.07904 396.394 2.56885C392.863 2.05866 380.944 1.63235 369.908 1.62137C358.871 1.61039 349.541 1.90092 349.175 2.26734ZM474.093 2.24439C473.715 2.62279 473.405 3.9237 473.405 5.13477C473.405 6.92991 474.139 7.45409 477.385 7.97226C480.184 8.41955 481.888 9.40698 483.13 11.301L484.895 13.9937V49.3184V84.6422L482.092 87.0523C480.55 88.3772 478.02 89.4615 476.469 89.4615C474.919 89.4615 473.094 90.1294 472.417 90.9461C471.738 91.7628 471.448 93.1207 471.771 93.9623C472.277 95.2802 475.115 95.457 492.116 95.2233L511.873 94.9528L512.188 92.7413C512.42 91.1029 511.903 90.408 510.189 90.0585C508.917 89.7989 506.645 89.3267 505.142 89.0092C503.637 88.6917 501.614 87.2221 500.645 85.7454L498.884 83.0587V48.5257V13.9927L500.649 11.301C501.898 9.396 503.594 8.41954 506.447 7.96427C510.075 7.38419 510.45 7.05775 510.177 4.71048L509.875 2.10062L492.328 1.82904C482.677 1.67928 474.472 1.86599 474.093 2.24439ZM273.256 10.5302C275.87 11.7163 278.103 13.6722 279.217 15.7499C280.401 17.9594 281.009 21.308 281.031 25.74C281.058 30.9507 280.616 33.0074 279.005 35.163C277.872 36.6796 275.705 38.8461 274.188 39.9783C271.964 41.6396 269.612 42.1039 262.01 42.3835L252.589 42.7289V25.6601V8.59027L260.832 8.61225C266.759 8.62822 270.25 9.16735 273.256 10.5302ZM397.153 10.5302C399.542 11.6145 401.962 13.6422 402.801 15.2647C403.608 16.8252 404.576 20.1489 404.952 22.6519C405.348 25.2867 405.141 29.0647 404.462 31.6246C403.818 34.0567 402.11 37.2926 400.67 38.8161C399.228 40.3387 395.813 42.2477 393.081 43.0594C390.348 43.8701 385.048 44.5331 381.3 44.5331H374.487V26.5616V8.59027L383.73 8.61225C390.64 8.62822 394.027 9.11244 397.153 10.5302ZM146.767 38.8671L152.37 54.0179L140.397 54.2995C133.811 54.4543 128.203 54.3604 127.934 54.0918C127.665 53.8233 130.254 46.6017 133.688 38.0434C137.122 29.485 140.209 22.7607 140.548 23.0992C140.887 23.4386 143.686 30.5333 146.767 38.8671ZM277.951 52.5702C280.495 53.7653 283.664 56.0347 284.994 57.6132C286.324 59.1927 287.976 63.0046 288.666 66.0857C289.667 70.5546 289.67 72.6243 288.681 76.3304C288 78.8853 286.25 82.221 284.793 83.7446C283.336 85.2672 279.909 87.1761 277.178 87.9878C274.445 88.7985 270.38 89.4585 268.144 89.4555C265.909 89.4525 262.414 88.9883 260.378 88.4232C258.342 87.8581 255.757 86.2277 254.632 84.7999L252.589 82.2031V65.7133V49.2246L262.957 49.8106C270.597 50.243 274.543 50.9698 277.951 52.5702ZM463.345 131.354C460.834 131.806 456.548 133.307 453.819 134.689C451.091 136.069 447.038 138.965 444.814 141.121C442.591 143.278 439.802 147.042 438.618 149.486C437.434 151.929 435.999 156.384 435.429 159.385C434.859 162.386 434.682 166.863 435.037 169.334C435.392 171.805 436.758 176.13 438.071 178.945C439.385 181.76 442.718 186.173 445.475 188.75C448.233 191.328 452.61 194.416 455.203 195.613C459.099 197.412 461.737 197.789 470.408 197.789C479.842 197.789 481.465 197.511 486.519 195.031C489.61 193.515 494.25 190.017 496.831 187.261C499.411 184.504 502.472 180.129 503.631 177.538C505.204 174.023 505.744 170.783 505.759 164.761C505.775 157.897 505.353 155.826 502.936 150.889C501.374 147.697 498.316 143.308 496.143 141.136C493.97 138.965 489.426 135.909 486.045 134.344C482.349 132.634 477.511 131.307 473.905 131.016C470.607 130.75 465.855 130.902 463.345 131.354ZM1.98581 133.131C2.16966 134.085 3.21479 135.03 4.30688 135.231C5.39997 135.43 7.08159 136.292 8.04279 137.144L9.79132 138.693V164.497V190.301L7.793 192.298C6.69392 193.396 4.67061 194.295 3.29675 194.295C1.74205 194.295 0.798828 194.861 0.798828 195.792C0.798828 197.057 3.12989 197.29 15.7863 197.29C27.8013 197.29 30.7738 197.019 30.7738 195.924C30.7738 195.071 29.1792 194.344 26.5374 193.99C23.8656 193.632 21.6405 192.606 20.5114 191.212C18.9867 189.332 18.7629 187.359 19.0027 177.921L19.2834 166.838L21.7374 166.492C23.0872 166.302 25.9359 166.669 28.0671 167.307C31.2544 168.261 32.2916 169.253 33.9033 172.895C34.9814 175.33 36.2922 177.322 36.8158 177.322C37.3683 177.322 37.768 172.088 37.768 164.841C37.768 157.12 37.3843 152.361 36.7609 152.361C36.2063 152.361 35.0503 154.118 34.191 156.263C33.1968 158.747 31.6551 160.55 29.9525 161.224C28.4807 161.806 25.4783 162.408 23.2801 162.563L19.2834 162.845V149.366V135.888L24.2793 135.561C27.027 135.381 32.1037 135.531 35.5619 135.895C39.9972 136.36 42.631 137.227 44.5064 138.839C45.9682 140.095 47.6348 142.522 48.2113 144.231C48.7869 145.941 49.7081 147.458 50.2576 147.604C50.8071 147.75 51.4087 146.534 51.5945 144.903C51.7794 143.272 51.6355 139.565 51.2728 136.666L50.6133 131.395H26.1327H1.65112L1.98581 133.131ZM80.9091 133.07C81.0869 133.992 82.5427 135.096 84.1443 135.524C85.746 135.951 87.4246 136.883 87.8752 137.593C88.3259 138.302 88.7015 150.451 88.7105 164.592L88.7256 190.301L86.7272 192.298C85.6281 193.396 83.6048 194.295 82.231 194.295C80.6763 194.295 79.7331 194.861 79.7331 195.792C79.7331 197.057 82.0641 197.29 94.7206 197.29C107.377 197.29 109.708 197.057 109.708 195.792C109.708 194.756 108.666 194.295 106.322 194.295C104.459 194.295 101.874 193.437 100.577 192.388L98.2177 190.482L97.8819 178.911C97.5962 169.059 97.782 167.251 99.1329 166.732C100.006 166.398 101.785 166.391 103.087 166.717C104.606 167.098 109.628 172.673 117.126 182.301L128.798 197.29H137.238C143.865 197.29 145.678 196.985 145.678 195.871C145.678 195.091 144.433 194.18 142.91 193.846C141.389 193.512 138.97 192.465 137.535 191.52C136.1 190.575 130.609 184.635 125.333 178.32C120.056 172.005 115.731 166.536 115.721 166.167C115.711 165.798 117.39 164.949 119.45 164.281C121.511 163.613 124.44 162.195 125.96 161.129C127.479 160.064 129.39 157.903 130.206 156.326C131.022 154.749 131.688 151.302 131.686 148.667C131.684 145.68 130.949 142.673 129.735 140.684C128.664 138.93 126.626 136.732 125.204 135.802C123.783 134.871 120.052 133.506 116.914 132.768C113.459 131.956 105.164 131.42 95.8966 131.411L80.5854 131.395L80.9091 133.07ZM169.831 133.052C170.011 133.984 171.469 135.096 173.07 135.524C174.672 135.951 176.35 136.883 176.801 137.593C177.252 138.302 177.627 150.651 177.636 165.034L177.651 191.187L175.43 192.74C174.209 193.595 172.186 194.295 170.934 194.295C169.578 194.295 168.659 194.9 168.659 195.792C168.659 197.086 172.271 197.29 195.168 197.29C215.495 197.29 221.772 196.998 222.08 196.042C222.302 195.356 222.646 191.761 222.846 188.054C223.147 182.47 222.944 181.321 221.662 181.351C220.812 181.371 219.217 183.257 218.118 185.543C217.019 187.828 214.877 190.599 213.36 191.701C211.104 193.338 209.003 193.709 201.869 193.725C196.73 193.738 192.228 193.236 190.925 192.506C189.708 191.824 188.22 189.589 187.617 187.539C187.015 185.489 186.662 179.543 186.833 174.326L187.144 164.841L191.64 165.173C194.113 165.355 197.259 166.035 198.632 166.683C200.005 167.331 201.928 169.56 202.906 171.635C203.884 173.71 205.122 175.138 205.656 174.809C206.194 174.476 206.627 169.108 206.627 162.786C206.627 154.083 206.319 151.363 205.329 151.363C204.615 151.363 203.502 152.823 202.854 154.608C202.207 156.393 200.713 158.453 199.534 159.186C198.355 159.918 194.958 160.769 191.986 161.075L186.582 161.633L186.863 148.76L187.144 135.888H198.314C208.109 135.888 209.832 136.146 212.295 137.986C213.839 139.14 215.51 141.499 216.005 143.228C216.502 144.956 217.537 146.371 218.306 146.371C219.403 146.371 219.641 144.809 219.411 139.132L219.117 131.894L194.311 131.626L169.505 131.36L169.831 133.052ZM253.761 133.052C253.941 133.984 255.399 135.096 257 135.524C258.602 135.951 260.281 136.883 260.731 137.593C261.182 138.302 261.557 150.651 261.566 165.034L261.581 191.187L259.36 192.74C258.139 193.595 256.116 194.295 254.864 194.295C253.497 194.295 252.589 194.899 252.589 195.808C252.589 197.13 255.98 197.289 279.317 197.056L306.044 196.791L306.336 189.053C306.57 182.864 306.341 181.315 305.195 181.315C304.408 181.315 303.49 182.403 303.156 183.734C302.821 185.065 301.408 187.507 300.014 189.162C298.125 191.405 296.049 192.468 291.85 193.339C288.705 193.991 284.015 194.215 281.222 193.844C278.472 193.48 275.464 192.775 274.535 192.279C273.607 191.782 272.318 190.102 271.673 188.545C270.956 186.815 270.611 181.659 270.787 175.278L271.074 164.841L275.57 165.173C278.043 165.355 281.189 166.035 282.562 166.683C283.935 167.331 285.877 169.6 286.878 171.724C288.049 174.208 289.042 175.242 289.663 174.621C290.203 174.082 290.502 168.885 290.344 162.841C290.175 156.466 289.629 151.883 289.015 151.679C288.441 151.489 287.44 152.801 286.789 154.593C286.14 156.386 284.643 158.453 283.464 159.186C282.285 159.918 278.888 160.769 275.917 161.075L270.512 161.633L270.793 148.76L271.074 135.888H282.244C292.039 135.888 293.762 136.146 296.225 137.986C297.769 139.14 299.44 141.499 299.935 143.228C300.432 144.956 301.467 146.371 302.236 146.371C303.333 146.371 303.571 144.809 303.341 139.132L303.047 131.894L278.241 131.626L253.435 131.36L253.761 133.052ZM338.091 132.276C337.711 132.889 337.678 133.841 338.018 134.39C338.357 134.939 339.717 135.388 341.039 135.388C342.438 135.388 343.9 136.242 344.537 137.431C345.253 138.768 345.608 148.334 345.566 165.137L345.503 190.8L343.398 192.547C342.24 193.508 339.994 194.295 338.406 194.295C336.45 194.295 335.52 194.8 335.52 195.861C335.52 197.246 338.088 197.391 357.751 197.109L379.983 196.791L384.655 194.633C387.224 193.447 391.332 190.628 393.783 188.37C396.235 186.113 399.298 181.916 400.59 179.046C402.457 174.894 402.939 172.091 402.945 165.341C402.952 158.063 402.555 156.042 400.16 151.16C398.537 147.853 395.275 143.587 392.373 140.98C389.627 138.513 384.817 135.503 381.683 134.291C376.755 132.385 373.477 132.026 357.384 131.624C344.298 131.298 338.575 131.491 338.091 132.276ZM537.873 132.358C537.522 132.926 537.512 133.841 537.851 134.39C538.191 134.939 539.272 135.388 540.253 135.388C541.234 135.388 542.894 136.338 543.941 137.499L545.845 139.61L545.591 164.53C545.443 179.016 544.91 190.246 544.319 191.35C543.758 192.396 541.88 193.619 540.144 194.068C538.409 194.518 536.807 195.427 536.587 196.088C536.29 196.98 539.29 197.29 548.26 197.29C558.325 197.29 560.333 197.041 560.333 195.792C560.333 194.894 559.41 194.295 558.026 194.295C556.757 194.295 554.934 193.721 553.974 193.02C553.015 192.319 551.917 190.184 551.535 188.277C551.153 186.37 551.065 175.448 551.34 164.005L551.84 143.2L557.154 155.518C560.077 162.293 565.472 174.687 569.144 183.059C572.815 191.432 576.314 198.284 576.919 198.285C577.523 198.287 580.849 191.885 584.311 184.061C587.772 176.236 593.287 163.881 596.567 156.605C599.848 149.328 602.816 143.376 603.164 143.375C603.511 143.375 603.654 153.793 603.481 166.527C603.308 179.26 602.735 190.483 602.209 191.465C601.683 192.448 599.832 193.619 598.096 194.068C596.361 194.518 594.759 195.427 594.539 196.088C594.238 196.987 597.682 197.29 608.21 197.29C620.052 197.29 622.281 197.052 622.281 195.792C622.281 194.861 621.338 194.295 619.783 194.295C618.409 194.295 616.43 193.44 615.385 192.396C613.96 190.972 613.305 188.352 612.771 181.939C612.378 177.233 612.232 165.768 612.446 156.462C612.782 141.802 613.079 139.272 614.664 137.521C615.671 136.41 617.455 135.362 618.628 135.195C619.802 135.027 620.915 134.086 621.102 133.105L621.443 131.321L611.741 131.607L602.039 131.894L591.207 156.345C585.25 169.793 580.025 180.903 579.596 181.034C579.168 181.165 574.081 170.162 568.292 156.583L557.766 131.894L548.139 131.609C542.27 131.436 538.263 131.728 537.873 132.358ZM112.91 136.427C114.946 136.992 117.531 138.622 118.656 140.05C120.165 141.969 120.699 144.116 120.699 148.28C120.699 151.769 120.105 154.761 119.139 156.138C118.282 157.362 116.189 159.082 114.489 159.96C112.699 160.886 108.623 161.619 104.807 161.702L98.2177 161.846L97.9349 149.923C97.779 143.366 97.8769 137.413 98.1527 136.694C98.4784 135.846 100.502 135.39 103.932 135.394C106.833 135.397 110.874 135.862 112.91 136.427ZM378.134 138.221C380.25 139.308 383.193 141.475 384.675 143.034C386.157 144.595 388.386 148.118 389.629 150.864C391.497 154.99 391.886 157.587 391.873 165.84C391.861 174.221 391.486 176.591 389.544 180.595C388.271 183.22 385.598 186.712 383.606 188.354C381.613 189.996 378.409 191.778 376.486 192.313C374.562 192.848 370.606 193.287 367.693 193.29C364.781 193.293 361.089 192.619 359.487 191.792C357.436 190.732 356.256 189.098 355.49 186.259C354.839 183.84 354.465 173.377 354.555 160.058C354.655 145.233 355.08 137.427 355.836 136.504C356.71 135.437 358.939 135.251 365.628 135.684C371.377 136.055 375.581 136.908 378.134 138.221ZM483.041 138.962C486.914 141.351 488.589 143.32 491.345 148.716L494.797 155.477L494.809 164.153C494.817 168.925 494.212 174.626 493.465 176.822C492.718 179.019 490.943 182.45 489.521 184.448C488.098 186.446 485.576 189.011 483.916 190.147C482.257 191.282 478.551 192.715 475.681 193.33C471.782 194.166 469.045 194.154 464.842 193.282C460.805 192.445 458.101 191.105 455.249 188.531C453.066 186.559 450.393 183.211 449.311 181.092C448.229 178.972 446.883 174.751 446.321 171.712C445.609 167.865 445.628 164.059 446.384 159.191C446.982 155.344 448.321 150.548 449.359 148.534C450.398 146.521 452.805 143.38 454.708 141.554C456.61 139.728 459.909 137.59 462.039 136.802C464.315 135.96 468.442 135.494 472.05 135.67C476.786 135.901 479.298 136.652 483.041 138.962Z" fill="black" style="fill:black;fill-opacity:1;"/>
</svg>
