<svg width="285" height="60"  viewBox="0 0 637 199" fill="none" xmlns="http://www.w3.org/2000/svg" style="display: block; max-width: 100%; height: auto;">
<path fill-rule="evenodd" clip-rule="evenodd" d="M586.858 1.8696C583.893 2.70128 579.199 4.60923 576.425 6.11084C573.652 7.61145 569.234 10.9821 566.607 13.6009C563.813 16.3865 560.393 21.3596 558.368 25.5819C556.464 29.5525 554.367 35.9154 553.709 39.7213C553.026 43.673 552.77 49.8831 553.111 54.1982C553.44 58.3546 554.393 64.0346 555.23 66.8212C556.067 69.6077 558.532 74.6407 560.709 78.0053C562.885 81.37 566.826 85.7111 569.465 87.652C572.105 89.5919 576.737 92.1428 579.759 93.321C583.555 94.8006 588.367 95.6143 595.317 95.9548C602.971 96.3282 606.797 96.0406 611.304 94.7497C614.562 93.8171 619.582 91.7405 622.459 90.134C625.335 88.5286 627.902 87.2147 628.164 87.2147C628.425 87.2147 629.177 89.0118 629.836 91.2083C630.769 94.3194 631.527 95.202 633.266 95.202C634.494 95.202 635.781 94.4691 636.124 93.5746C636.468 92.679 636.704 86.2422 636.648 79.2713C636.592 72.3004 636.195 66.0294 635.767 65.3365C635.338 64.6436 633.973 64.2283 632.734 64.414C631.169 64.6476 630.012 65.9685 628.94 68.7441C628.093 70.9406 626.232 74.5149 624.804 76.6864C623.376 78.859 620.309 82.0829 617.99 83.85C615.375 85.8429 611.599 87.5152 608.051 88.251C604.873 88.911 599.948 89.1586 596.974 88.8091C594.028 88.4637 589.458 87.0869 586.818 85.75C584.177 84.4131 580.819 81.8951 579.354 80.1549C577.888 78.4147 575.975 75.6112 575.102 73.9248C574.229 72.2375 573.108 69.4839 572.61 67.8036C572.113 66.1243 571.273 61.4287 570.743 57.3692C570.115 52.5559 570.128 46.9168 570.781 41.161C571.331 36.3067 572.701 29.878 573.826 26.8758C574.95 23.8725 577.882 19.18 580.341 16.4474C583.194 13.2754 586.517 10.8213 589.529 9.66016C592.593 8.47904 596.7 7.86903 601.241 7.91895C606.358 7.97686 609.515 8.61185 613.002 10.2852C615.623 11.5432 619.535 14.5783 621.693 17.0284C623.853 19.4795 626.378 23.4692 627.305 25.8953C628.641 29.3908 629.48 30.3053 631.352 30.3053H633.714L633.64 20.5708C633.599 15.2163 633.263 8.81451 632.891 6.34345C632.435 3.31527 631.727 1.85062 630.717 1.85062C629.893 1.85062 628.606 3.23941 627.857 4.93671L626.495 8.02381L618.429 4.53833C611.588 1.58304 608.988 1.00098 601.306 0.705447C595.275 0.473816 590.447 0.863204 586.858 1.8696ZM2.6142 2.81607C2.30545 3.62179 2.23352 4.82588 2.45633 5.49182C2.67814 6.15776 4.84634 7.18312 7.27332 7.77118C10.3408 8.513 12.0763 9.60127 12.9636 11.3355C13.9438 13.2525 14.1816 22.1054 13.9857 49.4897L13.731 85.149L12.0184 86.8582C11.0772 87.7987 8.37941 88.8251 6.02338 89.1396C2.26251 89.6408 1.70197 90.0452 1.4252 92.4563L1.10846 95.202H22.5506C41.4299 95.202 44.0666 95.0083 44.6152 93.5775C44.9589 92.685 44.7271 91.3371 44.1006 90.5823C43.4742 89.8285 41.239 89.2115 39.1348 89.2115C37.0295 89.2115 34.2119 88.7123 32.872 88.1033C31.5331 87.4932 29.9384 85.8998 29.3279 84.5619C28.6735 83.1252 28.2189 76.0145 28.2189 67.1996V52.2703L32.9649 52.3262C35.5747 52.3572 39.2427 52.9193 41.1141 53.5743C42.9866 54.2302 45.3916 55.9445 46.4607 57.3852C47.5288 58.8249 48.7128 61.5206 49.0925 63.3756C49.651 66.1043 50.2515 66.7473 52.2399 66.7473H54.6968L54.9696 49.0035C55.2034 33.7987 55.0225 31.1749 53.7076 30.6707C52.8643 30.3462 51.5514 30.5979 50.7921 31.2278C50.0317 31.8578 49.1234 33.9026 48.7727 35.7716C48.399 37.7624 46.9163 40.1946 45.1947 41.6423C43.578 43.0021 41.0082 44.3529 39.4835 44.6445C37.9587 44.936 34.8004 45.4632 32.4653 45.8146L28.2189 46.4556V27.2871V8.11866L42.457 8.521C53.6617 8.83749 57.5035 9.31573 60.492 10.7664C62.909 11.9396 64.9962 13.9953 66.2372 16.4254C67.3083 18.524 68.1856 21.103 68.1856 22.1563C68.1856 23.2086 68.854 24.6254 69.6713 25.3023C70.4886 25.9802 71.8645 26.2637 72.7288 25.9323C74.0777 25.4151 74.2106 23.8176 73.667 14.5893C73.3193 8.68074 72.8577 3.28634 72.6399 2.59943C72.3341 1.63297 64.4617 1.35141 37.711 1.35141C8.28049 1.35141 3.0938 1.56806 2.6142 2.81607ZM140.465 2.1182C139.829 2.52355 132.066 21.046 123.216 43.2786C113.195 68.4545 106.236 84.5909 104.768 86.0585C103.471 87.3535 100.892 88.7213 99.0369 89.0977C96.3111 89.6508 95.6017 90.3078 95.344 92.5182L95.0252 95.2549L110.331 94.9783L125.638 94.7028V92.8148C125.638 91.7764 124.963 90.5674 124.139 90.1291C123.315 89.6898 121.41 89.0717 119.908 88.7562C118.108 88.3788 116.969 87.3594 116.569 85.771C116.237 84.4441 116.705 80.8119 117.61 77.6978C118.517 74.5838 120.331 69.6107 121.643 66.6464L124.029 61.256H138.95C149.712 61.256 154.135 61.6035 154.821 62.504C155.345 63.1909 157.198 67.5939 158.94 72.2884C160.683 76.9839 162.107 82.2366 162.107 83.9608C162.107 85.6861 161.546 87.4443 160.858 87.8696C160.172 88.295 157.811 88.883 155.613 89.1765C152.154 89.6388 151.573 90.0801 151.3 92.4563L150.984 95.202H171.1H191.216L190.899 92.4923C190.648 90.3357 189.921 89.6478 187.342 89.1246C185.56 88.7632 183.388 87.8756 182.515 87.1518C181.642 86.4289 179.668 83.3388 178.128 80.2857C176.587 77.2326 168.903 58.7849 161.051 39.291C153.2 19.797 146.348 3.28634 145.827 2.59943C145.304 1.91352 144.145 1.35841 143.251 1.3664C142.356 1.37538 141.103 1.71384 140.465 2.1182ZM226.803 1.9155C226.391 2.33783 226.054 3.73062 226.054 5.01258C226.054 6.8197 226.604 7.34186 228.505 7.34186C229.853 7.34186 232.112 7.86801 233.525 8.51099C234.938 9.15496 236.42 10.8393 236.819 12.255C237.218 13.6718 237.544 29.881 237.544 48.2767C237.544 66.6724 237.218 82.8816 236.819 84.2983C236.42 85.7141 234.938 87.3984 233.525 88.0424C232.112 88.6853 229.741 89.2185 228.255 89.2265C226.769 89.2355 224.948 89.6258 224.208 90.0951C223.466 90.5643 223.023 91.7934 223.223 92.8257L223.587 94.7028H254.546H285.504L290.727 92.3435C293.6 91.0456 297.724 88.0603 299.893 85.7081C302.063 83.3568 304.319 79.7017 304.907 77.585C305.495 75.4684 305.978 72.0368 305.981 69.9601C305.984 67.8835 305.291 64.5138 304.44 62.4721C303.588 60.4303 301.228 57.0367 299.194 54.9311C297.161 52.8254 293.901 50.2795 291.952 49.2741C290.004 48.2677 286.632 47.1235 284.458 46.7311C282.286 46.3388 280.139 45.8056 279.686 45.5461C279.235 45.2865 281.033 44.0524 283.683 42.8044C286.334 41.5554 289.936 39.0184 291.688 37.1664C293.44 35.3153 295.351 32.5347 295.935 30.9892C296.517 29.4437 296.995 26.3277 296.995 24.0663C296.995 21.8039 296.05 18.0019 294.895 15.6177C293.739 13.2325 291.336 10.1704 289.553 8.81153C287.772 7.45369 283.658 5.38198 280.414 4.20685C275.196 2.31886 271.798 2.01834 251.033 1.60999C238.119 1.35639 227.216 1.49417 226.803 1.9155ZM348.619 2.01734C348.252 2.38276 347.952 3.73062 347.952 5.01258C347.952 6.81471 348.503 7.34186 350.385 7.34186C351.723 7.34186 353.916 7.75919 355.258 8.26938C356.673 8.80653 358.171 10.5478 358.82 12.4118C359.563 14.5374 359.942 26.753 359.942 48.4574C359.942 74.7116 359.656 81.975 358.51 84.7157C357.615 86.8533 356.207 88.3319 354.763 88.6464C353.49 88.9249 351.325 89.2774 349.951 89.4312C348.054 89.6438 347.377 90.3726 347.137 92.4563L346.82 95.202H368.435H390.05L389.734 92.4563L389.418 89.7107L383.568 89.1915C379.023 88.7872 377.296 88.1502 375.824 86.3351C374.138 84.2534 373.931 82.2087 373.931 67.6349V51.2719H376.028C377.181 51.2719 379.542 51.9668 381.274 52.8164C383.118 53.721 388.006 58.9926 393.075 65.5462C397.835 71.6984 404.93 80.8878 408.844 85.9667L415.959 95.202H427.984H440.009L439.692 92.5602C439.435 90.4086 438.584 89.6857 435.104 88.6644C432.754 87.9745 429.751 86.7025 428.431 85.8389C427.111 84.9752 421.607 78.9778 416.199 72.5121C410.79 66.0464 404.469 58.4555 402.152 55.644L397.94 50.5301L404.015 48.3166C407.357 47.0996 411.82 44.5426 413.933 42.6337C416.048 40.7257 418.532 37.1904 419.454 34.7782C420.616 31.737 421.005 28.4203 420.721 23.9644C420.401 18.9464 419.687 16.6371 417.463 13.4312C415.501 10.6017 412.694 8.38119 408.436 6.28553C405.038 4.61419 399.368 2.82904 395.837 2.31885C392.306 1.80866 380.387 1.38235 369.352 1.37137C358.315 1.36039 348.985 1.65092 348.619 2.01734ZM473.537 1.99439C473.158 2.37279 472.848 3.6737 472.848 4.88477C472.848 6.67991 473.583 7.20409 476.828 7.72226C479.628 8.16955 481.331 9.15698 482.573 11.051L484.339 13.7437V49.0684V84.3922L481.535 86.8023C479.993 88.1272 477.463 89.2115 475.913 89.2115C474.362 89.2115 472.538 89.8794 471.86 90.6961C471.182 91.5128 470.891 92.8707 471.215 93.7123C471.72 95.0302 474.558 95.207 491.56 94.9733L511.316 94.7028L511.631 92.4913C511.864 90.8529 511.346 90.158 509.633 89.8085C508.361 89.5489 506.089 89.0767 504.585 88.7592C503.08 88.4417 501.057 86.9721 500.089 85.4954L498.327 82.8087V48.2757V13.7427L500.093 11.051C501.342 9.146 503.037 8.16954 505.891 7.71427C509.519 7.13419 509.893 6.80775 509.621 4.46048L509.318 1.85062L491.772 1.57904C482.121 1.42928 473.915 1.61599 473.537 1.99439ZM272.699 10.2802C275.313 11.4663 277.546 13.4222 278.66 15.4999C279.844 17.7094 280.453 21.058 280.475 25.49C280.502 30.7007 280.059 32.7574 278.448 34.913C277.315 36.4296 275.148 38.5961 273.631 39.7283C271.407 41.3896 269.055 41.8539 261.454 42.1335L252.032 42.4789V25.4101V8.34027L260.275 8.36225C266.203 8.37822 269.694 8.91735 272.699 10.2802ZM396.596 10.2802C398.985 11.3645 401.405 13.3922 402.244 15.0147C403.052 16.5752 404.02 19.8989 404.395 22.4019C404.791 25.0367 404.584 28.8147 403.906 31.3746C403.261 33.8067 401.554 37.0426 400.113 38.5661C398.671 40.0887 395.256 41.9977 392.524 42.8094C389.792 43.6201 384.491 44.2831 380.743 44.2831H373.931V26.3116V8.34027L383.173 8.36225C390.083 8.37822 393.47 8.86244 396.596 10.2802ZM146.211 38.6171L151.813 53.7679L139.84 54.0495C133.254 54.2043 127.646 54.1104 127.377 53.8418C127.109 53.5733 129.697 46.3517 133.131 37.7934C136.566 29.235 139.652 22.5107 139.992 22.8492C140.33 23.1886 143.129 30.2833 146.211 38.6171ZM277.394 52.3202C279.938 53.5153 283.107 55.7847 284.437 57.3632C285.767 58.9427 287.419 62.7546 288.109 65.8357C289.11 70.3046 289.114 72.3743 288.124 76.0804C287.443 78.6353 285.693 81.971 284.237 83.4946C282.78 85.0172 279.353 86.9261 276.621 87.7378C273.888 88.5485 269.823 89.2085 267.587 89.2055C265.352 89.2025 261.857 88.7383 259.821 88.1732C257.786 87.6081 255.201 85.9777 254.076 84.5499L252.032 81.9531V65.4633V48.9746L262.401 49.5606C270.04 49.993 273.986 50.7198 277.394 52.3202ZM462.789 131.104C460.278 131.556 455.991 133.057 453.263 134.439C450.534 135.819 446.481 138.715 444.257 140.871C442.034 143.028 439.245 146.792 438.061 149.236C436.877 151.679 435.443 156.134 434.872 159.135C434.302 162.136 434.126 166.613 434.48 169.084C434.835 171.555 436.201 175.88 437.515 178.695C438.829 181.51 442.161 185.923 444.919 188.5C447.676 191.078 452.054 194.166 454.647 195.363C458.542 197.162 461.18 197.539 469.851 197.539C479.285 197.539 480.909 197.261 485.962 194.781C489.053 193.265 493.693 189.767 496.274 187.011C498.855 184.254 501.915 179.879 503.074 177.288C504.648 173.773 505.187 170.533 505.202 164.511C505.218 157.647 504.797 155.576 502.38 150.639C500.817 147.447 497.76 143.058 495.586 140.886C493.413 138.715 488.869 135.659 485.489 134.094C481.792 132.384 476.954 131.057 473.348 130.766C470.051 130.5 465.299 130.652 462.789 131.104ZM1.42917 132.881C1.61302 133.835 2.65815 134.78 3.75024 134.981C4.84333 135.18 6.52495 136.042 7.48615 136.894L9.23468 138.443V164.247V190.051L7.23636 192.048C6.13727 193.146 4.11397 194.045 2.74011 194.045C1.18541 194.045 0.242188 194.611 0.242188 195.542C0.242188 196.807 2.57325 197.04 15.2297 197.04C27.2447 197.04 30.2172 196.769 30.2172 195.674C30.2172 194.821 28.6225 194.094 25.9807 193.74C23.309 193.382 21.0838 192.356 19.9548 190.962C18.43 189.082 18.2062 187.109 18.446 177.671L18.7268 166.588L21.1807 166.242C22.5306 166.052 25.3792 166.419 27.5104 167.057C30.6978 168.011 31.735 169.003 33.3466 172.645C34.4247 175.08 35.7356 177.072 36.2592 177.072C36.8117 177.072 37.2114 171.838 37.2114 164.591C37.2114 156.87 36.8277 152.111 36.2042 152.111C35.6497 152.111 34.4936 153.868 33.6343 156.013C32.6402 158.497 31.0985 160.3 29.3959 160.974C27.9241 161.556 24.9216 162.158 22.7234 162.313L18.7268 162.595V149.116V135.638L23.7226 135.311C26.4703 135.131 31.5471 135.281 35.0052 135.645C39.4405 136.11 42.0743 136.977 43.9498 138.589C45.4116 139.845 47.0782 142.272 47.6547 143.981C48.2302 145.691 49.1514 147.208 49.701 147.354C50.2505 147.5 50.852 146.284 51.0379 144.653C51.2227 143.022 51.0788 139.315 50.7161 136.416L50.0567 131.145H25.5761H1.09448L1.42917 132.881ZM80.3524 132.82C80.5303 133.742 81.986 134.846 83.5877 135.274C85.1894 135.701 86.868 136.633 87.3186 137.343C87.7692 138.052 88.1449 150.201 88.1539 164.342L88.1689 190.051L86.1706 192.048C85.0715 193.146 83.0482 194.045 81.6743 194.045C80.1196 194.045 79.1764 194.611 79.1764 195.542C79.1764 196.807 81.5075 197.04 94.1639 197.04C106.82 197.04 109.151 196.807 109.151 195.542C109.151 194.506 108.109 194.045 105.765 194.045C103.903 194.045 101.317 193.187 100.02 192.138L97.661 190.232L97.3253 178.661C97.0395 168.809 97.2254 167.001 98.5763 166.482C99.4495 166.148 101.228 166.141 102.53 166.467C104.05 166.848 109.071 172.423 116.569 182.051L128.242 197.04H136.681C143.308 197.04 145.121 196.735 145.121 195.621C145.121 194.841 143.876 193.93 142.354 193.596C140.832 193.262 138.413 192.215 136.978 191.27C135.543 190.325 130.052 184.385 124.776 178.07C119.5 171.755 115.174 166.286 115.164 165.917C115.154 165.548 116.833 164.699 118.893 164.031C120.955 163.363 123.883 161.945 125.403 160.879C126.923 159.814 128.833 157.653 129.649 156.076C130.466 154.499 131.131 151.052 131.129 148.417C131.127 145.43 130.393 142.423 129.179 140.434C128.108 138.68 126.069 136.482 124.647 135.552C123.227 134.621 119.496 133.256 116.357 132.518C112.902 131.706 104.607 131.17 95.3399 131.161L80.0287 131.145L80.3524 132.82ZM169.274 132.802C169.454 133.734 170.912 134.846 172.514 135.274C174.115 135.701 175.794 136.633 176.244 137.343C176.695 138.052 177.071 150.401 177.08 164.784L177.095 190.937L174.874 192.49C173.653 193.345 171.629 194.045 170.377 194.045C169.022 194.045 168.102 194.65 168.102 195.542C168.102 196.836 171.714 197.04 194.611 197.04C214.938 197.04 221.215 196.748 221.524 195.792C221.746 195.106 222.089 191.511 222.289 187.804C222.59 182.22 222.387 181.071 221.105 181.101C220.255 181.121 218.66 183.007 217.561 185.293C216.462 187.578 214.321 190.349 212.803 191.451C210.547 193.088 208.447 193.459 201.313 193.475C196.173 193.488 191.672 192.986 190.369 192.256C189.152 191.574 187.663 189.339 187.061 187.289C186.458 185.239 186.105 179.293 186.276 174.076L186.587 164.591L191.083 164.923C193.556 165.105 196.702 165.785 198.075 166.433C199.448 167.081 201.372 169.31 202.35 171.385C203.327 173.46 204.565 174.888 205.1 174.559C205.637 174.226 206.071 168.858 206.071 162.536C206.071 153.833 205.762 151.113 204.773 151.113C204.058 151.113 202.945 152.573 202.298 154.358C201.65 156.143 200.157 158.203 198.978 158.936C197.799 159.668 194.401 160.519 191.43 160.825L186.025 161.383L186.306 148.51L186.587 135.638H197.758C207.552 135.638 209.275 135.896 211.738 137.736C213.283 138.89 214.953 141.249 215.449 142.978C215.945 144.706 216.981 146.121 217.749 146.121C218.846 146.121 219.084 144.559 218.854 138.882L218.56 131.644L193.754 131.376L168.949 131.11L169.274 132.802ZM253.204 132.802C253.384 133.734 254.842 134.846 256.444 135.274C258.045 135.701 259.724 136.633 260.175 137.343C260.625 138.052 261.001 150.401 261.01 164.784L261.025 190.937L258.804 192.49C257.583 193.345 255.559 194.045 254.307 194.045C252.941 194.045 252.032 194.649 252.032 195.558C252.032 196.88 255.424 197.039 278.76 196.806L305.488 196.541L305.78 188.803C306.013 182.614 305.785 181.065 304.639 181.065C303.851 181.065 302.933 182.153 302.599 183.484C302.264 184.815 300.852 187.257 299.458 188.912C297.568 191.155 295.492 192.218 291.294 193.089C288.148 193.741 283.458 193.965 280.665 193.594C277.916 193.23 274.907 192.525 273.978 192.029C273.05 191.532 271.762 189.852 271.116 188.295C270.399 186.565 270.054 181.409 270.23 175.028L270.517 164.591L275.013 164.923C277.486 165.105 280.633 165.785 282.005 166.433C283.378 167.081 285.321 169.35 286.321 171.474C287.492 173.958 288.485 174.992 289.107 174.371C289.646 173.832 289.946 168.635 289.787 162.591C289.618 156.216 289.072 151.633 288.458 151.429C287.884 151.239 286.883 152.551 286.233 154.343C285.583 156.136 284.087 158.203 282.908 158.936C281.729 159.668 278.331 160.519 275.36 160.825L269.955 161.383L270.236 148.51L270.517 135.638H281.688C291.483 135.638 293.205 135.896 295.668 137.736C297.213 138.89 298.883 141.249 299.379 142.978C299.875 144.706 300.911 146.121 301.679 146.121C302.776 146.121 303.014 144.559 302.784 138.882L302.49 131.644L277.684 131.376L252.879 131.11L253.204 132.802ZM337.534 132.026C337.154 132.639 337.121 133.591 337.461 134.14C337.801 134.689 339.161 135.138 340.483 135.138C341.881 135.138 343.343 135.992 343.981 137.181C344.696 138.518 345.052 148.084 345.01 164.887L344.946 190.55L342.842 192.297C341.684 193.258 339.437 194.045 337.85 194.045C335.893 194.045 334.963 194.55 334.963 195.611C334.963 196.996 337.531 197.141 357.195 196.859L379.426 196.541L384.098 194.383C386.667 193.197 390.776 190.378 393.227 188.12C395.679 185.863 398.741 181.666 400.033 178.796C401.9 174.644 402.382 171.841 402.388 165.091C402.395 157.813 401.998 155.792 399.603 150.91C397.981 147.603 394.718 143.337 391.817 140.73C389.07 138.263 384.26 135.253 381.127 134.041C376.198 132.135 372.921 131.776 356.827 131.374C343.741 131.048 338.019 131.241 337.534 132.026ZM537.317 132.108C536.965 132.676 536.955 133.591 537.295 134.14C537.634 134.689 538.715 135.138 539.697 135.138C540.678 135.138 542.337 136.088 543.385 137.249L545.288 139.36L545.034 164.28C544.886 178.766 544.354 189.996 543.762 191.1C543.202 192.146 541.323 193.369 539.588 193.818C537.852 194.268 536.251 195.177 536.031 195.838C535.733 196.73 538.733 197.04 547.703 197.04C557.769 197.04 559.776 196.791 559.776 195.542C559.776 194.644 558.854 194.045 557.469 194.045C556.2 194.045 554.377 193.471 553.417 192.77C552.458 192.069 551.36 189.934 550.978 188.027C550.597 186.12 550.509 175.198 550.783 163.755L551.283 142.95L556.598 155.268C559.52 162.043 564.916 174.437 568.588 182.809C572.259 191.182 575.758 198.034 576.362 198.035C576.967 198.037 580.293 191.635 583.754 183.811C587.215 175.986 592.73 163.631 596.011 156.355C599.291 149.078 602.259 143.126 602.607 143.125C602.955 143.125 603.098 153.543 602.924 166.277C602.751 179.01 602.179 190.233 601.652 191.215C601.126 192.198 599.275 193.369 597.539 193.818C595.804 194.268 594.202 195.177 593.982 195.838C593.682 196.737 597.126 197.04 607.653 197.04C619.495 197.04 621.724 196.802 621.724 195.542C621.724 194.611 620.781 194.045 619.227 194.045C617.853 194.045 615.873 193.19 614.828 192.146C613.403 190.722 612.749 188.102 612.214 181.689C611.822 176.983 611.676 165.518 611.889 156.212C612.225 141.552 612.522 139.022 614.108 137.271C615.115 136.16 616.898 135.112 618.071 134.945C619.245 134.777 620.359 133.836 620.545 132.855L620.886 131.071L611.184 131.357L601.482 131.644L590.65 156.095C584.693 169.543 579.468 180.653 579.04 180.784C578.611 180.915 573.524 169.912 567.735 156.333L557.209 131.644L547.582 131.359C541.713 131.186 537.706 131.478 537.317 132.108ZM112.354 136.177C114.389 136.742 116.974 138.372 118.099 139.8C119.609 141.719 120.142 143.866 120.142 148.03C120.142 151.519 119.549 154.511 118.583 155.888C117.725 157.112 115.632 158.832 113.932 159.71C112.142 160.636 108.066 161.369 104.25 161.452L97.661 161.596L97.3782 149.673C97.2224 143.116 97.3203 137.163 97.5961 136.444C97.9218 135.596 99.9451 135.14 103.375 135.144C106.277 135.147 110.317 135.612 112.354 136.177ZM377.578 137.971C379.693 139.058 382.636 141.225 384.118 142.784C385.6 144.345 387.829 147.868 389.072 150.614C390.941 154.74 391.329 157.337 391.316 165.59C391.304 173.971 390.93 176.341 388.987 180.345C387.714 182.97 385.041 186.462 383.049 188.104C381.057 189.746 377.853 191.528 375.929 192.063C374.006 192.598 370.049 193.037 367.136 193.04C364.225 193.043 360.532 192.369 358.93 191.542C356.879 190.482 355.699 188.848 354.934 186.009C354.282 183.59 353.909 173.127 353.998 159.808C354.098 144.983 354.523 137.177 355.279 136.254C356.154 135.187 358.383 135.001 365.071 135.434C370.82 135.805 375.024 136.658 377.578 137.971ZM482.484 138.712C486.357 141.101 488.033 143.07 490.788 148.466L494.241 155.227L494.253 163.903C494.26 168.675 493.655 174.376 492.909 176.572C492.161 178.769 490.387 182.2 488.964 184.198C487.541 186.196 485.019 188.761 483.36 189.897C481.7 191.032 477.994 192.465 475.124 193.08C471.226 193.916 468.488 193.904 464.285 193.032C460.249 192.195 457.544 190.855 454.692 188.281C452.509 186.309 449.837 182.961 448.754 180.842C447.672 178.722 446.327 174.501 445.764 171.462C445.053 167.615 445.071 163.809 445.828 158.941C446.425 155.094 447.764 150.298 448.802 148.284C449.842 146.271 452.249 143.13 454.151 141.304C456.053 139.478 459.353 137.34 461.483 136.552C463.758 135.71 467.885 135.244 471.493 135.42C476.23 135.651 478.741 136.402 482.484 138.712Z" fill="white" style="fill:white;fill-opacity:1;"/>
</svg>
