<svg width="1048" height="203" viewBox="0 0 1048 203" fill="none" xmlns="http://www.w3.org/2000/svg">
<path fill-rule="evenodd" clip-rule="evenodd" d="M19.0539 2.03562C16.2552 3.00208 12.5883 4.89706 10.9057 6.24691C9.22208 7.59577 6.7991 10.4971 5.52116 12.6937C3.7906 15.6679 3.1981 18.2159 3.1991 22.6778C3.2011 26.6315 3.87354 30.0261 5.17845 32.6619C6.53532 35.4045 8.79443 37.6319 12.3914 39.7725C16.4451 42.1847 20.7854 43.4856 31.5954 45.5294C39.5488 47.032 47.0426 49.0418 48.9999 50.1959C50.8914 51.3112 52.7548 52.9885 53.1425 53.924C53.5292 54.8595 54.2066 57.1309 54.6482 58.971C55.1488 61.0616 54.969 64.1647 54.1686 67.2488C53.4642 69.9615 51.8156 73.3471 50.5047 74.7718C49.1938 76.1965 46.1233 78.2592 43.6824 79.3545C40.504 80.7822 37.1018 81.3453 31.6924 81.3413C26.8894 81.3373 22.6859 80.7253 20.144 79.659C17.9458 78.7375 14.8694 76.7716 13.3077 75.291C11.747 73.8103 9.61075 70.9309 8.56163 68.8942C7.5135 66.8564 6.65522 64.5061 6.65522 63.6715C6.65522 62.8358 5.49818 61.8624 4.08436 61.5079C2.67054 61.1535 1.04689 61.3292 0.477368 61.8983C-0.238036 62.6132 -0.0511968 64.4632 1.08286 67.8748C1.9871 70.5925 4.29618 74.649 6.21458 76.8894C8.13398 79.1299 12.2775 82.2259 15.4239 83.7695L21.1431 86.576L31.6344 86.571L42.1257 86.566L47.8509 83.7615C50.9993 82.2199 54.87 79.3885 56.4517 77.4705C58.0344 75.5526 59.8419 72.2718 60.4694 70.1801C61.0958 68.0874 61.6094 64.1248 61.6094 61.3722C61.6094 58.6205 60.951 54.7946 60.1476 52.8717C59.3433 50.9477 57.334 48.238 55.6824 46.8493C54.0307 45.4605 50.5297 43.6234 47.9018 42.7678C45.274 41.9111 38.0431 40.3077 31.8322 39.2044C25.6204 38.1012 18.932 36.4369 16.9676 35.5053C14.5386 34.3532 12.8041 32.5101 11.5461 29.7425C10.529 27.5041 9.6867 24.3082 9.67471 22.6398C9.66272 20.9715 10.6649 17.6018 11.9008 15.1517C13.6214 11.7412 15.321 10.1118 19.1448 8.2008C23.1934 6.17802 25.5615 5.71577 31.6344 5.76369C37.2837 5.80862 40.1483 6.35374 43.2737 7.97916C45.5538 9.16527 48.3265 11.6094 49.4346 13.4115C50.5436 15.2136 51.7676 18.3966 52.1553 20.4852L52.8597 24.2842L55.9851 23.9797L59.1115 23.6762L58.7938 20.1817C58.6189 18.2598 57.5618 14.7654 56.4437 12.4171C55.3257 10.0678 52.9037 6.99773 51.0612 5.59396C49.2187 4.1892 45.5958 2.40403 43.0109 1.62727C40.4261 0.84951 35.1225 0.228503 31.2257 0.246474C27.1392 0.264446 21.9874 1.02223 19.0539 2.03562ZM106.255 1.8619C105.88 2.2363 105.573 21.1132 105.573 43.8111V85.0784H133.05H160.527V82.6003V80.1223L136.797 79.8547L113.067 79.5871L112.793 62.3845L112.52 45.1819L133.775 44.9123L155.032 44.6428L155.347 41.8971L155.664 39.1515H134.115H112.567V23.1949V7.23833L136.297 6.97077L160.027 6.70319V4.20716V1.71114L133.483 1.44555C118.883 1.29979 106.63 1.4865 106.255 1.8619ZM206.489 43.0423V85.0784H209.986H213.483V67.6062V50.134H226.287H239.092L240.733 53.3789C241.636 55.164 245.73 62.9137 249.831 70.6014L257.286 84.5792L261.484 84.8917L265.682 85.2052L262.196 78.9012C260.279 75.4347 255.903 67.2947 252.471 60.813C249.039 54.3304 246.394 48.882 246.593 48.7043C246.792 48.5276 248.784 47.4613 251.02 46.3351C253.256 45.2099 256.699 42.5022 258.672 40.3207C261.256 37.4622 262.588 34.7705 263.434 30.697C264.098 27.5071 264.315 22.9044 263.935 20.1408C263.523 17.1446 262.134 13.6871 260.363 11.243C258.691 8.93763 255.241 6.09017 252.21 4.51568L246.955 1.78502L226.722 1.39664L206.489 1.00726V43.0423ZM309.403 43.1452V85.0784H336.38H363.358V82.5824V80.0863H339.878H316.397V62.6341V45.1819L337.629 44.9123L358.862 44.6428V42.1468V39.6507L337.629 39.3812L316.397 39.1116V23.157V7.20239H339.878H363.358V4.20716V1.21193H336.38H309.403V43.1452ZM409.986 1.87788C409.619 2.2433 409.32 21.1132 409.32 43.8111V85.0784H412.817H416.314L416.326 47.8876L416.338 10.6968L418.655 14.6905C419.929 16.887 422.337 20.7059 424.005 23.177C425.674 25.648 430.088 32.3873 433.815 38.1531C437.542 43.9189 442.924 52.2307 445.775 56.6237C448.626 61.0167 453.959 69.2166 457.628 74.8447L464.298 85.0784H468.283H472.267V43.0823V1.08514L469.02 1.39863L465.773 1.71114V38.4027C465.773 58.5836 465.697 75.0943 465.605 75.0943C465.512 75.0943 464.405 73.41 463.143 71.3503C461.882 69.2915 455.846 59.9684 449.73 50.6332C443.614 41.2981 433.83 26.3599 427.989 17.4361L417.368 1.21193H414.01C412.163 1.21193 410.352 1.51146 409.986 1.87788ZM548.514 2.40903C547.953 3.12389 545.575 8.87473 543.229 15.1897C540.882 21.5046 536.061 34.3092 532.514 43.6444C528.967 52.9795 524.077 65.7452 521.647 72.0132C519.217 78.2802 517.23 83.8134 517.23 84.3066C517.23 84.8008 518.691 85.0644 520.477 84.8917L523.724 84.5792L529.113 70.3518L534.502 56.1245H552.256H570.009L572.77 63.363C574.289 67.3446 576.577 73.2622 577.854 76.514C579.132 79.7668 580.177 83.0237 580.177 83.7525C580.177 84.6331 581.517 85.0784 584.166 85.0784H588.155L586.692 81.3344C585.888 79.2756 581.817 68.6046 577.645 57.6221C573.474 46.6396 569.418 35.8568 568.634 33.6603C567.849 31.4638 564.8 23.3766 561.86 15.6889L556.512 1.71114L553.022 1.41062C551.014 1.2379 549.099 1.66222 548.514 2.40903ZM680.843 1.794C680.431 2.20634 680.094 21.1132 680.094 43.8111V85.0784H698.919C712.372 85.0784 719.101 84.671 722.497 83.6497C725.11 82.8629 728.949 81.0957 731.028 79.7219C733.2 78.2852 735.704 75.3709 736.917 72.8658C738.078 70.4697 739.303 66.504 739.639 64.0539C739.975 61.6028 739.71 57.5812 739.05 55.1161C738.238 52.0779 736.46 49.2974 733.536 46.4878C731.163 44.2085 727.723 42.009 725.891 41.6016L722.559 40.8618L726.683 39.1006C728.952 38.1321 732.082 35.6721 733.638 33.6333C735.89 30.684 736.55 28.6293 736.872 23.5823C737.095 20.0929 737 16.1382 736.662 14.7933C736.324 13.4484 734.867 10.9464 733.425 9.23217C731.981 7.51889 728.946 5.13069 726.679 3.9266L722.559 1.7371L702.076 1.39065C690.81 1.20095 681.256 1.38165 680.843 1.794ZM784.007 32.4801C784.007 57.1069 784.32 64.7957 785.477 68.6725C786.286 71.3812 788.319 75.253 789.994 77.2768C791.67 79.3016 795.617 82.2219 798.765 83.7665L804.49 86.576L814.982 86.564C823.937 86.553 826.171 86.2096 830.243 84.2168C832.866 82.9328 836.424 80.4717 838.148 78.7485C839.873 77.0262 842.218 73.5887 843.359 71.1116L845.435 66.6078L845.446 34.1595L845.456 1.71114L842.293 1.40462L839.13 1.09811L838.772 33.3537C838.459 61.5009 838.188 66.1136 836.651 69.5661C835.681 71.7426 834.119 74.3914 833.178 75.4527C832.237 76.513 829.471 78.2732 827.03 79.3645C823.862 80.7802 820.43 81.3453 815.04 81.3413C810.237 81.3373 806.033 80.7253 803.491 79.659C801.293 78.7375 798.248 76.7896 796.723 75.3309C795.199 73.8722 793.289 70.4447 792.476 67.715C791.315 63.8063 791.002 56.2074 791.002 31.9809V1.21193H787.505H784.007V32.4801ZM886.284 2.70955C885.967 3.53324 885.967 4.88109 886.284 5.70478C886.76 6.94381 889.45 7.20239 901.878 7.20239H916.897V46.1404V85.0784H920.394H923.891V46.1664V7.25431L939.128 6.97875L954.365 6.70319L954.681 3.95756L954.998 1.21193H920.928C891.566 1.21193 886.78 1.4186 886.284 2.70955ZM993.833 43.1452V85.0784H1020.81H1047.79V82.6003V80.1223L1024.06 79.8547L1000.33 79.5871L1000.05 62.3845L999.781 45.1819L1021.04 44.9123L1042.29 44.6428L1042.61 41.9171L1042.92 39.1915L1021.62 38.9219L1000.33 38.6523L1000.05 22.9453L999.777 7.23833L1023.53 6.97077L1047.29 6.70319L1047.6 3.95756L1047.92 1.21193H1020.88H993.833V43.1452ZM249.6 9.966C251.603 11.211 253.987 13.3646 254.897 14.7524C255.808 16.1402 256.802 19.39 257.107 21.9739C257.412 24.5578 257.123 28.6662 256.465 31.1043C255.795 33.5894 253.861 36.943 252.064 38.7392C250.301 40.5004 247.082 42.4343 244.91 43.0363C242.737 43.6394 234.778 44.1346 227.221 44.1376L213.483 44.1436V25.5871V7.03067L229.719 7.36613L245.956 7.7016L249.6 9.966ZM724.358 9.59658C725.898 10.6399 727.808 12.7516 728.605 14.2901C729.401 15.8287 730.052 19.7714 730.052 23.0512C730.052 27.9753 729.612 29.5378 727.521 32.0199C726.13 33.6722 723.32 35.6032 721.277 36.311C718.905 37.1327 712.146 37.608 702.575 37.626L687.588 37.6539L687.312 22.3453L687.035 7.03666L704.298 7.36914C719.257 7.65768 721.933 7.95419 724.358 9.59658ZM561.97 34.6587C563.596 39.0517 565.636 44.3313 566.506 46.39L568.085 50.134H552.582H537.078L537.754 47.8876C538.124 46.6516 541.26 38.228 544.721 29.1674C548.182 20.1068 551.325 11.6383 551.706 10.3484C552.273 8.42944 552.998 9.69642 555.707 17.3373C557.526 22.4711 560.345 30.2657 561.97 34.6587ZM718.962 44.2065C721.38 44.7636 724.646 46.1364 726.221 47.2566C727.795 48.3768 729.817 50.7101 730.714 52.4433C731.61 54.1756 732.389 58.0714 732.445 61.1006C732.508 64.5471 731.889 67.9147 730.789 70.1022C729.823 72.0242 727.479 74.6011 725.582 75.8281C723.679 77.0591 719.092 78.5318 715.351 79.1109C711.622 79.689 703.849 80.0324 698.079 79.8747L687.588 79.5871L687.313 62.6511C687.162 53.3359 687.26 45.136 687.531 44.4301C687.9 43.4696 691.381 43.1511 701.295 43.1691C708.593 43.1831 716.544 43.6493 718.962 44.2065ZM352.367 185.419V201.892H362.359C370.451 201.892 372.35 201.616 372.35 200.435C372.35 199.299 370.534 198.914 364.107 198.687L355.864 198.398L355.587 183.671C355.359 171.491 355.057 168.945 353.839 168.945C352.602 168.945 352.367 171.574 352.367 185.419ZM416.07 170.511C414.561 171.329 412.426 173.764 411.324 175.923C410.026 178.464 409.32 181.813 409.32 185.419C409.32 189.028 410.027 192.375 411.328 194.922C412.432 197.086 414.658 199.539 416.274 200.374C417.89 201.209 421.646 201.892 424.622 201.892C428.596 201.892 430.737 201.338 432.685 199.808C434.144 198.661 436.059 196.328 436.942 194.624C437.901 192.77 438.545 189.071 438.545 185.419C438.545 181.663 437.902 178.069 436.873 176.081C435.953 174.304 433.761 171.973 432.002 170.902C429.921 169.634 427.057 168.965 423.808 168.989C421.06 169.009 417.578 169.694 416.07 170.511ZM475.265 185.419V201.892H477.234H479.203L479.482 188.789L479.761 175.687L484.66 183.548C487.355 187.872 491.105 193.793 492.995 196.709C495.636 200.782 496.929 201.936 498.587 201.701L500.743 201.393V185.433C500.743 171.129 500.565 169.437 499.024 169.141C497.479 168.843 497.277 170.152 497.026 182.106L496.747 195.403L488.422 182.174C481.48 171.142 479.695 168.945 477.681 168.945H475.265V185.419ZM539.211 185.419V201.892H546.186C550.294 201.892 554.827 201.225 557.22 200.269C560.211 199.073 561.838 197.56 563.393 194.528C564.8 191.786 565.509 188.535 565.515 184.798C565.521 181.053 564.885 178.099 563.608 175.925C562.554 174.132 560.126 171.828 558.212 170.805C555.673 169.449 552.628 168.945 546.971 168.945H539.211V185.419ZM607.703 172.031C605.508 173.957 603.764 176.68 603.064 179.269C602.448 181.554 602.193 185.531 602.498 188.11C602.802 190.689 603.758 194.164 604.62 195.831C605.483 197.499 607.508 199.545 609.12 200.378C610.733 201.21 614.344 201.892 617.146 201.892C619.949 201.892 623.56 201.21 625.173 200.378C626.784 199.545 628.747 197.62 629.533 196.101C630.32 194.58 631.278 191.665 631.661 189.621C632.045 187.577 632.054 183.874 631.681 181.392C631.185 178.082 629.998 175.822 627.228 172.913L623.451 168.945H617.336C611.926 168.945 610.816 169.3 607.703 172.031ZM668.572 170.167C668.284 170.916 668.173 178.242 668.326 186.448C668.572 199.638 668.803 201.406 670.323 201.698L672.044 202.028L672.322 188.499L672.6 174.97L680.959 188.432C687.904 199.613 689.722 201.892 691.7 201.892H694.082V185.419V168.945H692.113H690.144L689.865 181.945L689.586 194.944L681.534 182.195C675.721 172.989 672.871 169.355 671.287 169.125C670.081 168.949 668.859 169.418 668.572 170.167ZM427.77 172.36C429.763 173.193 431.87 175.134 432.863 177.054C433.849 178.959 434.539 182.506 434.512 185.53C434.486 188.391 433.92 191.782 433.254 193.067C432.588 194.351 431.365 196.18 430.536 197.13C429.707 198.08 427.571 199.132 425.79 199.465C423.684 199.86 421.434 199.494 419.354 198.42C417.508 197.466 415.556 195.332 414.736 193.372C413.956 191.504 413.316 187.895 413.316 185.352C413.316 182.809 414.023 179.24 414.886 177.423C415.749 175.605 417.886 173.414 419.632 172.552C421.379 171.691 423.16 170.977 423.59 170.965C424.019 170.952 425.901 171.581 427.77 172.36ZM623.529 173.821C624.566 174.709 626.028 176.88 626.776 178.647C627.525 180.415 628.137 183.462 628.137 185.419C628.137 187.376 627.525 190.423 626.776 192.19C626.028 193.957 624.418 196.291 623.199 197.377C621.809 198.617 619.555 199.351 617.146 199.351C614.737 199.351 612.484 198.617 611.094 197.377C609.875 196.291 608.265 193.957 607.517 192.19C606.768 190.423 606.156 187.376 606.156 185.419C606.156 183.462 606.768 180.415 607.517 178.647C608.265 176.88 609.727 174.695 610.764 173.79C611.801 172.887 613.549 171.939 614.649 171.684C615.748 171.431 617.771 171.445 619.145 171.715C620.519 171.987 622.492 172.935 623.529 173.821ZM557.812 175.096C559.2 176.484 560.731 179.376 561.214 181.524C561.72 183.769 561.719 187.084 561.213 189.324C560.73 191.468 559.198 194.355 557.81 195.742C555.816 197.736 554.021 198.356 549.247 198.7L543.208 199.137V185.419V171.7L549.247 172.137C554.022 172.481 555.816 173.101 557.812 175.096Z" fill="black" style="fill:black;fill-opacity:1;"/>
</svg>
