<svg width="320" height="120"  viewBox="0 0 1049 203" fill="none" xmlns="http://www.w3.org/2000/svg" style="display: block; max-width: 100%; height: auto;">
<path fill-rule="evenodd" clip-rule="evenodd" d="M19.2746 2.20554C16.4759 3.172 12.809 5.06699 11.1264 6.41684C9.44278 7.76569 7.0198 10.6671 5.74186 12.8636C4.01131 15.8378 3.4188 18.3858 3.4198 22.8477C3.4218 26.8014 4.09424 30.196 5.39916 32.8318C6.75602 35.5744 9.01514 37.8019 12.6121 39.9424C16.6658 42.3546 21.0061 43.6555 31.8161 45.6993C39.7695 47.2019 47.2633 49.2117 49.2206 50.3659C51.1121 51.4811 52.9755 53.1584 53.3632 54.0939C53.7499 55.0294 54.4273 57.3008 54.8689 59.1409C55.3695 61.2316 55.1897 64.3346 54.3893 67.4187C53.6849 70.1314 52.0363 73.517 50.7254 74.9417C49.4145 76.3665 46.344 78.4292 43.9031 79.5244C40.7247 80.9522 37.3225 81.5152 31.9131 81.5113C27.1101 81.5073 22.9066 80.8952 20.3647 79.8289C18.1665 78.9074 15.0901 76.9415 13.5284 75.4609C11.9677 73.9802 9.83146 71.1008 8.78233 69.0641C7.7342 67.0263 6.87592 64.6761 6.87592 63.8414C6.87592 63.0057 5.71889 62.0323 4.30507 61.6778C2.89124 61.3234 1.2676 61.4991 0.698071 62.0682C-0.0173332 62.7831 0.169506 64.6332 1.30356 68.0447C2.20781 70.7624 4.51689 74.8189 6.43529 77.0594C8.35469 79.2998 12.4982 82.3959 15.6446 83.9394L21.3638 86.7459L31.8551 86.7409L42.3464 86.7359L48.0716 83.9314C51.22 82.3899 55.0907 79.5584 56.6724 77.6404C58.2551 75.7225 60.0626 72.4417 60.6901 70.35C61.3165 68.2574 61.8301 64.2947 61.8301 61.5421C61.8301 58.7905 61.1717 54.9645 60.3683 53.0416C59.564 51.1177 57.5547 48.408 55.9031 47.0192C54.2514 45.6304 50.7504 43.7933 48.1225 42.9377C45.4947 42.0811 38.2638 40.4776 32.0529 39.3744C25.8411 38.2711 19.1527 36.6068 17.1883 35.6753C14.7594 34.5231 13.0248 32.68 11.7668 29.9124C10.7497 27.674 9.9074 24.4781 9.89541 22.8097C9.88342 21.1414 10.8856 17.7718 12.1216 15.3217C13.8421 11.9111 15.5417 10.2817 19.3655 8.37073C23.4141 6.34795 25.7822 5.88569 31.8551 5.93361C37.5044 5.97854 40.369 6.52367 43.4944 8.14908C45.7745 9.33519 48.5472 11.7793 49.6553 13.5814C50.7643 15.3836 51.9883 18.5665 52.376 20.6552L53.0804 24.4541L56.2058 24.1496L59.3322 23.8461L59.0145 20.3516C58.8396 18.4297 57.7825 14.9353 56.6644 12.587C55.5464 10.2378 53.1244 7.16765 51.2819 5.76388C49.4395 4.35912 45.8165 2.57396 43.2316 1.79719C40.6468 1.01943 35.3432 0.398425 31.4465 0.416396C27.3599 0.434367 22.2081 1.19215 19.2746 2.20554ZM106.476 2.03182C106.1 2.40622 105.793 21.2832 105.793 43.981V85.2483H133.271H160.748V82.7703V80.2922L137.017 80.0246L113.287 79.7571L113.013 62.5544L112.741 45.3518L133.996 45.0823L155.252 44.8127L155.568 42.0671L155.885 39.3214H134.336H112.788V23.3649V7.40825L136.518 7.14069L160.248 6.87311V4.37708V1.88106L133.703 1.61548C119.103 1.46971 106.851 1.65642 106.476 2.03182ZM206.709 43.2123V85.2483H210.206H213.704V67.7761V50.304H226.508H239.312L240.954 53.5488C241.857 55.3339 245.951 63.0836 250.051 70.7714L257.507 84.7491L261.705 85.0616L265.903 85.3751L262.417 79.0711C260.5 75.6047 256.123 67.4646 252.692 60.983C249.26 54.5003 246.615 49.0519 246.814 48.8742C247.013 48.6975 249.005 47.6312 251.24 46.505C253.476 45.3798 256.92 42.6721 258.893 40.4906C261.477 37.6321 262.809 34.9404 263.655 30.8669C264.318 27.677 264.536 23.0743 264.156 20.3107C263.744 17.3145 262.355 13.857 260.583 11.4129C258.912 9.10755 255.462 6.26009 252.43 4.6856L247.176 1.95495L226.943 1.56656L206.709 1.17718V43.2123ZM309.624 43.3151V85.2483H336.601H363.579V82.7523V80.2563H340.098H316.618V62.804V45.3518L337.85 45.0823L359.082 44.8127V42.3167V39.8206L337.85 39.5511L316.618 39.2815V23.3269V7.37232H340.098H363.579V4.37708V1.38185H336.601H309.624V43.3151ZM410.207 2.0478C409.84 2.41322 409.54 21.2832 409.54 43.981V85.2483H413.037H416.535L416.547 48.0575L416.559 10.8668L418.876 14.8604C420.15 17.0569 422.558 20.8758 424.226 23.3469C425.895 25.8179 430.309 32.5572 434.036 38.323C437.763 44.0889 443.144 52.4006 445.996 56.7936C448.847 61.1866 454.18 69.3866 457.849 75.0146L464.519 85.2483H468.503H472.488V43.2522V1.25506L469.241 1.56855L465.993 1.88106V38.5726C465.993 58.7535 465.917 75.2642 465.825 75.2642C465.733 75.2642 464.625 73.5799 463.363 71.5202C462.103 69.4615 456.067 60.1383 449.951 50.8032C443.835 41.468 434.051 26.5298 428.21 17.606L417.589 1.38185H414.23C412.384 1.38185 410.572 1.68138 410.207 2.0478ZM548.734 2.57895C548.174 3.29381 545.796 9.04465 543.45 15.3596C541.103 21.6745 536.282 34.4792 532.735 43.8143C529.188 53.1494 524.298 65.9151 521.868 72.1831C519.438 78.4501 517.45 83.9833 517.45 84.4765C517.45 84.9707 518.911 85.2343 520.698 85.0616L523.945 84.7491L529.334 70.5218L534.723 56.2944H552.476H570.229L572.991 63.5329C574.51 67.5146 576.798 73.4321 578.075 76.6839C579.353 79.9368 580.398 83.1936 580.398 83.9224C580.398 84.803 581.738 85.2483 584.387 85.2483H588.375L586.913 81.5043C586.108 79.4456 582.038 68.7745 577.866 57.792C573.695 46.8095 569.639 36.0267 568.855 33.8302C568.069 31.6337 565.021 23.5466 562.08 15.8588L556.733 1.88106L553.243 1.58054C551.234 1.40782 549.32 1.83214 548.734 2.57895ZM681.064 1.96392C680.651 2.37626 680.315 21.2832 680.315 43.981V85.2483H699.14C712.593 85.2483 719.321 84.841 722.717 83.8196C725.331 83.0328 729.17 81.2657 731.248 79.8919C733.42 78.4551 735.924 75.5408 737.137 73.0358C738.298 70.6396 739.523 66.6739 739.86 64.2238C740.196 61.7727 739.931 57.7511 739.271 55.286C738.458 52.2479 736.681 49.4673 733.757 46.6578C731.384 44.3784 727.944 42.1789 726.112 41.7715L722.779 41.0317L726.904 39.2705C729.173 38.3021 732.302 35.842 733.859 33.8032C736.11 30.8539 736.771 28.7992 737.092 23.7522C737.315 20.2628 737.22 16.3081 736.883 14.9632C736.545 13.6184 735.088 11.1164 733.645 9.40209C732.201 7.68882 729.167 5.30061 726.9 4.09653L722.779 1.90702L702.296 1.56057C691.031 1.37087 681.477 1.55158 681.064 1.96392ZM784.228 32.6501C784.228 57.2768 784.541 64.9656 785.698 68.8424C786.506 71.5511 788.54 75.423 790.215 77.4467C791.891 79.4715 795.837 82.3919 798.986 83.9364L804.711 86.7459L815.202 86.734C824.158 86.723 826.392 86.3795 830.464 84.3867C833.086 83.1027 836.644 80.6417 838.369 78.9184C840.094 77.1961 842.439 73.7586 843.58 71.2815L845.656 66.7777L845.667 34.3294L845.677 1.88106L842.514 1.57454L839.35 1.26804L838.992 33.5237C838.68 61.6708 838.409 66.2835 836.871 69.736C835.902 71.9126 834.339 74.5613 833.399 75.6226C832.458 76.683 829.691 78.4432 827.25 79.5344C824.083 80.9502 820.651 81.5152 815.26 81.5113C810.457 81.5073 806.254 80.8952 803.712 79.8289C801.514 78.9074 798.468 76.9595 796.944 75.5008C795.42 74.0422 793.509 70.6146 792.697 67.885C791.536 63.9762 791.222 56.3773 791.222 32.1509V1.38185H787.725H784.228V32.6501ZM886.505 2.87947C886.188 3.70316 886.188 5.05101 886.505 5.8747C886.981 7.11373 889.67 7.37232 902.099 7.37232H917.117V46.3103V85.2483H920.614H924.112V46.3363V7.42423L939.349 7.14867L954.586 6.87311L954.902 4.12748L955.219 1.38185H921.149C891.786 1.38185 887 1.58852 886.505 2.87947ZM994.053 43.3151V85.2483H1021.03H1048.01V82.7703V80.2922L1024.28 80.0246L1000.55 79.7571L1000.27 62.5544L1000 45.3518L1021.26 45.0823L1042.51 44.8127L1042.83 42.087L1043.14 39.3614L1021.84 39.0918L1000.55 38.8222L1000.27 23.1153L999.997 7.40825L1023.75 7.14069L1047.51 6.87311L1047.82 4.12748L1048.14 1.38185H1021.1H994.053V43.3151ZM249.82 10.1359C251.824 11.3809 254.208 13.5345 255.118 14.9223C256.028 16.3101 257.022 19.5599 257.327 22.1438C257.633 24.7277 257.344 28.8361 256.686 31.2743C256.015 33.7593 254.082 37.113 252.284 38.9091C250.522 40.6703 247.303 42.6042 245.13 43.2062C242.958 43.8093 234.999 44.3045 227.442 44.3075L213.704 44.3135V25.757V7.20059L229.94 7.53606L246.177 7.87152L249.82 10.1359ZM724.579 9.7665C726.119 10.8098 728.029 12.9215 728.825 14.46C729.622 15.9986 730.273 19.9413 730.273 23.2211C730.273 28.1452 729.832 29.7077 727.742 32.1898C726.35 33.8422 723.541 35.7731 721.497 36.481C719.125 37.3027 712.367 37.7779 702.796 37.7959L687.808 37.8238L687.533 22.5152L687.256 7.20658L704.519 7.53906C719.478 7.8276 722.154 8.12411 724.579 9.7665ZM562.191 34.8286C563.817 39.2216 565.857 44.5012 566.726 46.5599L568.306 50.304H552.803H537.299L537.974 48.0575C538.345 46.8215 541.48 38.3979 544.942 29.3373C548.403 20.2768 551.546 11.8083 551.927 10.5183C552.493 8.59936 553.219 9.86635 555.927 17.5072C557.747 22.641 560.566 30.4356 562.191 34.8286ZM719.182 44.3764C721.6 44.9335 724.867 46.3063 726.441 47.4265C728.016 48.5468 730.037 50.88 730.935 52.6133C731.831 54.3455 732.61 58.2413 732.666 61.2705C732.729 64.717 732.11 68.0846 731.009 70.2722C730.043 72.1941 727.699 74.771 725.803 75.998C723.899 77.2291 719.312 78.7017 715.571 79.2808C711.842 79.8589 704.07 80.2023 698.3 80.0446L687.808 79.7571L687.534 62.821C687.383 53.5058 687.481 45.3059 687.752 44.6C688.12 43.6396 691.601 43.3211 701.516 43.339C708.814 43.353 716.764 43.8193 719.182 44.3764ZM352.588 185.589V202.062H362.579C370.672 202.062 372.571 201.786 372.571 200.605C372.571 199.468 370.755 199.084 364.328 198.857L356.085 198.568L355.808 183.841C355.579 171.661 355.278 169.115 354.06 169.115C352.823 169.115 352.588 171.744 352.588 185.589ZM416.291 170.681C414.782 171.499 412.647 173.934 411.545 176.093C410.247 178.634 409.54 181.983 409.54 185.589C409.54 189.198 410.248 192.544 411.549 195.092C412.653 197.256 414.879 199.709 416.495 200.544C418.11 201.379 421.867 202.062 424.843 202.062C428.816 202.062 430.958 201.508 432.906 199.978C434.365 198.83 436.28 196.498 437.162 194.794C438.122 192.94 438.766 189.241 438.766 185.589C438.766 181.833 438.123 178.239 437.093 176.251C436.174 174.474 433.982 172.143 432.222 171.072C430.142 169.804 427.278 169.135 424.028 169.159C421.281 169.179 417.798 169.864 416.291 170.681ZM475.485 185.589V202.062H477.455H479.424L479.703 188.959L479.982 175.857L484.881 183.718C487.575 188.042 491.325 193.963 493.216 196.879C495.856 200.952 497.149 202.106 498.808 201.871L500.964 201.563V185.603C500.964 171.299 500.785 169.607 499.245 169.31C497.7 169.013 497.498 170.322 497.246 182.276L496.968 195.573L488.642 182.344C481.7 171.312 479.916 169.115 477.901 169.115H475.485V185.589ZM539.432 185.589V202.062H546.406C550.515 202.062 555.048 201.395 557.441 200.439C560.432 199.243 562.058 197.73 563.614 194.698C565.021 191.956 565.729 188.705 565.735 184.968C565.741 181.222 565.106 178.269 563.829 176.095C562.775 174.302 560.347 171.998 558.432 170.975C555.893 169.619 552.849 169.115 547.192 169.115H539.432V185.589ZM607.924 172.201C605.729 174.127 603.984 176.849 603.285 179.439C602.668 181.724 602.414 185.701 602.718 188.28C603.023 190.859 603.978 194.334 604.841 196.001C605.704 197.669 607.729 199.715 609.341 200.548C610.954 201.38 614.565 202.062 617.367 202.062C620.17 202.062 623.781 201.38 625.394 200.548C627.005 199.715 628.967 197.79 629.754 196.271C630.541 194.75 631.498 191.835 631.882 189.791C632.266 187.747 632.275 184.044 631.902 181.562C631.405 178.252 630.218 175.992 627.449 173.082L623.672 169.115H617.557C612.147 169.115 611.036 169.47 607.924 172.201ZM668.792 170.337C668.505 171.086 668.394 178.412 668.547 186.618C668.792 199.808 669.024 201.576 670.544 201.868L672.264 202.198L672.542 188.669L672.821 175.14L681.18 188.602C688.124 199.783 689.943 202.062 691.921 202.062H694.303V185.589V169.115H692.334H690.364L690.086 182.115L689.807 195.114L681.755 182.365C675.941 173.159 673.092 169.525 671.508 169.294C670.302 169.119 669.08 169.588 668.792 170.337ZM427.991 172.53C429.983 173.363 432.091 175.304 433.084 177.224C434.07 179.129 434.759 182.676 434.732 185.7C434.706 188.561 434.141 191.952 433.474 193.237C432.809 194.521 431.586 196.35 430.757 197.3C429.927 198.25 427.792 199.302 426.011 199.635C423.904 200.03 421.654 199.664 419.575 198.59C417.729 197.636 415.777 195.502 414.957 193.542C414.176 191.674 413.537 188.065 413.537 185.522C413.537 182.979 414.243 179.41 415.107 177.593C415.97 175.775 418.106 173.584 419.853 172.722C421.599 171.861 423.381 171.147 423.81 171.135C424.24 171.122 426.122 171.751 427.991 172.53ZM623.75 173.991C624.787 174.879 626.249 177.05 626.997 178.817C627.746 180.584 628.358 183.632 628.358 185.589C628.358 187.545 627.746 190.593 626.997 192.36C626.249 194.127 624.639 196.461 623.42 197.546C622.029 198.787 619.776 199.521 617.367 199.521C614.958 199.521 612.705 198.787 611.314 197.546C610.095 196.461 608.486 194.127 607.737 192.36C606.989 190.593 606.376 187.545 606.376 185.589C606.376 183.632 606.989 180.584 607.737 178.817C608.486 177.05 609.947 174.865 610.984 173.96C612.022 173.056 613.77 172.109 614.869 171.854C615.968 171.601 617.992 171.615 619.366 171.885C620.739 172.157 622.713 173.104 623.75 173.991ZM558.033 175.266C559.42 176.654 560.952 179.546 561.435 181.694C561.94 183.939 561.939 187.254 561.434 189.494C560.95 191.638 559.418 194.525 558.031 195.912C556.036 197.906 554.242 198.526 549.468 198.87L543.429 199.307V185.589V171.87L549.468 172.307C554.243 172.651 556.036 173.271 558.033 175.266Z" fill="white" style="fill:white;fill-opacity:1;"/>
</svg>
