<svg width="130" height="73" viewBox="0 0 130 73" fill="none" xmlns="http://www.w3.org/2000/svg">
<circle cx="64.5" cy="36.5" r="35.5" fill="black" stroke="#B7B7B7" style="fill:black;fill-opacity:1;stroke:#B7B7B7;stroke:color(display-p3 0.7191 0.7191 0.7191);stroke-opacity:1;" stroke-width="2"/>
<rect x="1" y="20" width="128" height="33" rx="16.5" fill="black" stroke="#B7B7B7" style="fill:black;fill-opacity:1;stroke:#B7B7B7;stroke:color(display-p3 0.7191 0.7191 0.7191);stroke-opacity:1;" stroke-width="2"/>
<path d="M22.7671 38.5859C22.7671 38.2705 22.7176 37.9922 22.6187 37.751C22.5259 37.5036 22.3589 37.2809 22.1177 37.083C21.8826 36.8851 21.5549 36.6965 21.1343 36.5171C20.7199 36.3377 20.1942 36.1553 19.5571 35.9697C18.8892 35.7718 18.2861 35.5522 17.748 35.311C17.21 35.0636 16.7492 34.7822 16.3657 34.4668C15.9823 34.1514 15.6885 33.7896 15.4844 33.3813C15.2803 32.9731 15.1782 32.5062 15.1782 31.9805C15.1782 31.4548 15.2865 30.9692 15.5029 30.5239C15.7194 30.0786 16.0286 29.6921 16.4307 29.3643C16.8389 29.0303 17.3244 28.7705 17.8872 28.585C18.45 28.3994 19.0778 28.3066 19.7705 28.3066C20.7848 28.3066 21.6445 28.5015 22.3496 28.8911C23.0609 29.2746 23.6021 29.7786 23.9731 30.4033C24.3442 31.0218 24.5298 31.6836 24.5298 32.3887H22.7485C22.7485 31.8815 22.6403 31.4331 22.4238 31.0435C22.2074 30.6476 21.8796 30.3384 21.4404 30.1157C21.0013 29.8869 20.4447 29.7725 19.7705 29.7725C19.1335 29.7725 18.6077 29.8683 18.1934 30.0601C17.779 30.2518 17.4697 30.5116 17.2656 30.8394C17.0677 31.1672 16.9688 31.5413 16.9688 31.9619C16.9688 32.2464 17.0275 32.5062 17.145 32.7412C17.2687 32.9701 17.4574 33.1834 17.7109 33.3813C17.9707 33.5793 18.2985 33.7617 18.6943 33.9287C19.0964 34.0957 19.5757 34.2565 20.1323 34.4111C20.8993 34.6276 21.561 34.8688 22.1177 35.1348C22.6743 35.4007 23.132 35.7007 23.4907 36.0347C23.8556 36.3625 24.1247 36.7367 24.2979 37.1572C24.4772 37.5716 24.5669 38.0417 24.5669 38.5674C24.5669 39.1178 24.4556 39.6157 24.2329 40.061C24.0103 40.5063 23.6917 40.8867 23.2773 41.2021C22.863 41.5176 22.3651 41.7619 21.7837 41.9351C21.2085 42.1021 20.5653 42.1855 19.854 42.1855C19.2293 42.1855 18.6139 42.099 18.0078 41.9258C17.4079 41.7526 16.8605 41.4928 16.3657 41.1465C15.8771 40.8001 15.4844 40.3734 15.1875 39.8662C14.8968 39.3529 14.7515 38.7591 14.7515 38.085H16.5327C16.5327 38.5488 16.6224 38.9478 16.8018 39.2817C16.9811 39.6095 17.2254 39.8817 17.5347 40.0981C17.8501 40.3146 18.2057 40.4754 18.6016 40.5806C19.0036 40.6795 19.4211 40.729 19.854 40.729C20.4787 40.729 21.0075 40.6424 21.4404 40.4692C21.8734 40.2961 22.2012 40.0487 22.4238 39.7271C22.6527 39.4054 22.7671 39.0251 22.7671 38.5859ZM35.6719 34.2998V35.7563H28.3613V34.2998H35.6719ZM28.6396 28.4922V42H26.8491V28.4922H28.6396ZM37.2305 28.4922V42H35.4492V28.4922H37.2305ZM48.9941 40.5435V42H41.8413V40.5435H48.9941ZM42.2031 28.4922V42H40.4126V28.4922H42.2031ZM48.0479 34.2998V35.7563H41.8413V34.2998H48.0479ZM48.9014 28.4922V29.958H41.8413V28.4922H48.9014ZM54.8667 42H52.0464L52.0649 40.5435H54.8667C55.8315 40.5435 56.6356 40.3424 57.2788 39.9404C57.922 39.5322 58.4045 38.9632 58.7261 38.2334C59.0539 37.4974 59.2178 36.6377 59.2178 35.6543V34.8286C59.2178 34.0555 59.125 33.369 58.9395 32.769C58.7539 32.1629 58.4818 31.6527 58.123 31.2383C57.7643 30.8177 57.3252 30.4992 56.8057 30.2827C56.2923 30.0662 55.7017 29.958 55.0337 29.958H51.9907V28.4922H55.0337C55.9181 28.4922 56.7253 28.6406 57.4551 28.9375C58.1849 29.2282 58.8127 29.6519 59.3384 30.2085C59.8703 30.759 60.2785 31.4269 60.563 32.2124C60.8475 32.9917 60.9897 33.87 60.9897 34.8472V35.6543C60.9897 36.6315 60.8475 37.5129 60.563 38.2983C60.2785 39.0776 59.8672 39.7425 59.3291 40.293C58.7972 40.8434 58.154 41.2671 57.3994 41.564C56.651 41.8547 55.8068 42 54.8667 42ZM53.002 28.4922V42H51.2114V28.4922H53.002Z" fill="#B7B7B7" style="fill:#B7B7B7;fill:color(display-p3 0.7191 0.7191 0.7191);fill-opacity:1;"/>
<path d="M77.9585 28.4922V42H76.1587L69.3584 31.5815V42H67.5679V28.4922H69.3584L76.1865 38.9385V28.4922H77.9585ZM80.417 37.0923V36.8789C80.417 36.1553 80.5221 35.4842 80.7324 34.8657C80.9427 34.241 81.2458 33.6999 81.6416 33.2422C82.0374 32.7783 82.5168 32.4196 83.0796 32.166C83.6424 31.9062 84.2733 31.7764 84.9722 31.7764C85.6772 31.7764 86.3112 31.9062 86.874 32.166C87.443 32.4196 87.9255 32.7783 88.3213 33.2422C88.7233 33.6999 89.0295 34.241 89.2397 34.8657C89.45 35.4842 89.5552 36.1553 89.5552 36.8789V37.0923C89.5552 37.8159 89.45 38.487 89.2397 39.1055C89.0295 39.724 88.7233 40.2651 88.3213 40.729C87.9255 41.1867 87.4461 41.5454 86.8833 41.8052C86.3267 42.0588 85.6958 42.1855 84.9907 42.1855C84.2856 42.1855 83.6517 42.0588 83.0889 41.8052C82.526 41.5454 82.0436 41.1867 81.6416 40.729C81.2458 40.2651 80.9427 39.724 80.7324 39.1055C80.5221 38.487 80.417 37.8159 80.417 37.0923ZM82.1333 36.8789V37.0923C82.1333 37.5933 82.1921 38.0664 82.3096 38.5117C82.4271 38.9508 82.6034 39.3405 82.8384 39.6807C83.0796 40.0208 83.3796 40.2899 83.7383 40.4878C84.097 40.6795 84.5145 40.7754 84.9907 40.7754C85.4608 40.7754 85.8721 40.6795 86.2246 40.4878C86.5833 40.2899 86.8802 40.0208 87.1152 39.6807C87.3503 39.3405 87.5265 38.9508 87.644 38.5117C87.7677 38.0664 87.8296 37.5933 87.8296 37.0923V36.8789C87.8296 36.3841 87.7677 35.9172 87.644 35.478C87.5265 35.0327 87.3472 34.64 87.106 34.2998C86.8709 33.9535 86.5741 33.6813 86.2153 33.4834C85.8628 33.2855 85.4484 33.1865 84.9722 33.1865C84.5021 33.1865 84.0877 33.2855 83.729 33.4834C83.3765 33.6813 83.0796 33.9535 82.8384 34.2998C82.6034 34.64 82.4271 35.0327 82.3096 35.478C82.1921 35.9172 82.1333 36.3841 82.1333 36.8789Z" fill="#B7B7B7" style="fill:#B7B7B7;fill:color(display-p3 0.7191 0.7191 0.7191);fill-opacity:1;"/>
<path d="M117 46H96V25H117V46ZM106.842 28C105.789 28 104.902 28.2069 104.182 28.6201C103.461 29.0266 102.918 29.5755 102.551 30.2666C102.184 30.9576 102 31.7195 102 32.5527H103.886C103.886 31.9635 103.995 31.4421 104.212 30.9883C104.429 30.5344 104.756 30.1813 105.19 29.9307C105.632 29.6732 106.183 29.5449 106.842 29.5449C107.392 29.5449 107.862 29.6633 108.249 29.9004C108.636 30.1374 108.928 30.456 109.125 30.8555C109.329 31.2484 109.432 31.689 109.432 32.1768C109.432 32.5629 109.363 32.9428 109.228 33.3154C109.098 33.6812 108.867 34.0981 108.534 34.5654C108.208 35.0261 107.745 35.5881 107.147 36.252L102.285 41.6484V43H112V41.4551H104.559L108.534 37.1562C108.915 36.743 109.272 36.3232 109.604 35.8965C109.944 35.4697 110.24 35.036 110.491 34.5957C110.749 34.1553 110.95 33.7148 111.093 33.2744C111.242 32.8273 111.317 32.3867 111.317 31.9531C111.317 31.1605 111.137 30.4693 110.776 29.8799C110.423 29.2839 109.914 28.8232 109.248 28.498C108.582 28.1661 107.78 28 106.842 28Z" fill="#B7B7B7" style="fill:#B7B7B7;fill:color(display-p3 0.7191 0.7191 0.7191);fill-opacity:1;"/>
</svg>
