<svg width="284" height="60" viewBox="0 0 2064 72" fill="none" xmlns="http://www.w3.org/2000/svg">
<path fill-rule="evenodd" clip-rule="evenodd" d="M160.478 7.17661C160.478 13.7116 160.478 13.7116 166.726 13.4151C176.84 12.934 177.127 0.640625 167.024 0.640625C160.478 0.640625 160.478 0.640629 160.478 7.17661ZM473.353 34.9705C473.353 73.0695 472.864 70.5271 480.182 70.4972C486.102 70.4722 486.129 70.3994 486.504 53.3188C486.891 35.6772 487.838 33.2477 494.337 33.2477C500.242 33.2477 500.804 34.8537 501.184 52.8267C501.557 70.4403 501.568 70.4722 507.507 70.4972C514.589 70.5261 514.337 71.2279 514.337 51.4602C514.337 31.2194 513.373 27.0062 507.988 23.7012C501.246 19.5638 491.536 20.6399 487.82 25.9361C486.493 27.8286 486.348 26.6868 486.348 14.3385C486.348 0.640633 486.348 0.640625 479.85 0.640625C473.353 0.640625 473.353 0.640629 473.353 34.9705ZM1007.81 1.30641C1007.44 1.67174 1007.14 7.58087 1007.14 14.4373C1007.14 26.3424 1007.06 26.8295 1005.35 25.2883C991.974 13.1965 973.075 27.094 974.396 48.0535C975.57 66.6862 993.363 77.8856 1004.89 67.2492C1007.14 65.173 1007.14 65.173 1007.14 67.2372C1007.14 70.2207 1014.57 71.8178 1019.55 69.9063C1025.65 67.5686 1021.06 0.640625 1014.8 0.640625C1011.32 0.640625 1008.17 0.940082 1007.81 1.30641ZM1532.17 35.3269C1532.45 73.0645 1532.32 72.6343 1542.58 70.064C1549.52 68.3252 1545.46 0.640625 1538.41 0.640625C1531.9 0.640625 1531.9 0.640625 1532.17 35.3269ZM21.2149 22.1002C19.1187 22.8198 16.5328 24.1943 15.4702 25.1556C13.616 26.8315 13.537 26.8145 13.537 24.7513C13.537 22.7689 13.0262 22.6003 7.03958 22.6003C0.54218 22.6003 0.54218 22.6003 0.54218 45.9503C0.54218 71.8397 0.176327 70.5271 7.37145 70.4972C13.2961 70.4722 13.3521 70.3275 13.7089 54.1962C14.0738 37.7404 16.059 33.5801 23.549 33.5801C26.5248 33.5801 26.5318 33.5661 26.5318 27.65C26.5318 20.6898 26.2329 20.3773 21.2149 22.1002ZM318.286 22.1661C296.242 28.9436 299.318 67.4388 322.195 71.0921C332.972 72.8129 347.963 61.6415 345.049 54.0604C343.962 51.2286 333.57 51.9932 332.429 54.9887C328.324 65.7699 317.024 59.2689 317.055 46.144C317.086 33.073 326.828 26.7606 331.888 36.5316C333.722 40.0751 345.404 41.3777 345.404 38.0399C345.404 26.5011 331.209 18.1924 318.286 22.1661ZM655.527 21.9335C637.779 28.3617 636.548 60.5016 653.722 69.0469C659.895 72.1192 663.667 72.1522 669.534 69.1866C673.926 66.9667 674.152 66.9467 674.621 68.7374C678.598 83.9275 687.767 68.1096 687.767 46.0571C687.767 22.4615 682.124 12.2722 675.193 23.3539C674.079 25.1356 673.87 25.1196 669.487 22.9037C664.52 20.3923 660.544 20.1158 655.527 21.9335ZM840.997 21.5951C839.509 22.0413 836.922 23.3778 835.249 24.5676C832.21 26.7287 832.21 26.7287 832.21 24.6645C832.21 22.8059 831.609 22.6003 826.194 22.6003C818.742 22.6003 816.68 69.6278 824.101 70.3365C832.105 71.1001 832.208 70.9334 832.215 57.2675C832.223 39.2876 834.016 34.9446 841.959 33.6549C845.704 33.0471 845.704 33.0471 845.704 27.1579C845.704 20.8784 845.237 20.3264 840.997 21.5951ZM1180.69 21.636C1179.11 22.1102 1176.74 23.4976 1175.44 24.7194C1173.07 26.9413 1173.07 26.9413 1173.07 24.7234C1173.07 22.6362 1172.7 22.5224 1166.83 22.8019C1160.58 23.0993 1160.58 23.0993 1160.31 45.9863C1160.01 71.3187 1159.79 70.4712 1166.63 70.4972C1173.81 70.5241 1174.01 70.05 1174.31 52.1519C1174.61 33.9364 1176.42 30.0276 1182.87 33.638C1185.57 35.1512 1185.57 35.1512 1185.84 52.0401C1186.14 70.5072 1186.13 70.4712 1192.23 70.4972C1199.2 70.5261 1199.06 70.8306 1199.06 55.0825C1199.06 39.4233 1199.92 35.4157 1203.66 33.7178C1210.8 30.4678 1212.06 33.3455 1212.06 52.9375C1212.06 70.9604 1211.89 70.5122 1218.56 70.5122C1225.27 70.5122 1225.05 71.177 1225.05 50.9092C1225.05 27.626 1223.79 23.9518 1215.01 21.5901C1210.03 20.2496 1204.36 21.64 1200.05 25.2604C1196.95 27.8676 1196.95 27.8676 1195.37 25.6277C1192.49 21.5103 1186.53 19.8912 1180.69 21.636ZM1367.63 22.0662C1348.25 28.9666 1348.73 63.9233 1368.3 70.082C1374.28 71.9645 1379.99 71.0222 1383.74 67.5347C1386.43 65.0283 1386.99 65.0143 1386.99 67.4508C1386.99 69.9502 1390.06 70.8785 1395.58 70.05C1404.17 68.7654 1402.13 22.6003 1393.49 22.6003C1387.65 22.6003 1386.99 22.8049 1386.99 24.5966C1386.99 27.1329 1385.79 27.1349 1383.49 24.6026C1380.15 20.9104 1373.75 19.8872 1367.63 22.0662ZM1692.45 21.7199C1669.44 27.11 1668.69 63.4731 1691.45 70.081C1710.37 75.5729 1726.2 58.0052 1720.37 37.984C1716.8 25.7325 1704.91 18.8022 1692.45 21.7199ZM1871.48 22.0033C1869.38 22.7759 1866.79 24.1943 1865.73 25.1556C1863.88 26.8315 1863.8 26.8145 1863.8 24.7513C1863.8 22.7689 1863.29 22.6003 1857.3 22.6003C1850.8 22.6003 1850.8 22.6003 1850.8 45.9503C1850.8 71.8397 1850.44 70.5271 1857.63 70.4972C1863.59 70.4722 1863.62 70.4014 1863.97 53.3058C1864.34 35.6742 1865.28 33.2477 1871.79 33.2477C1877.69 33.2477 1878.24 34.8278 1878.79 53.3268C1879.33 71.2937 1880.05 72.4177 1889.52 70.0441C1892.98 69.1766 1892.73 32.6498 1889.22 27.9724C1884.44 21.5791 1878.27 19.5029 1871.48 22.0033ZM2036.6 22.1661C2016.31 28.4026 2017.34 64.9384 2037.96 70.6C2048.59 73.5167 2062.72 65.5074 2062.72 56.5698C2062.72 54.1712 2051.61 55.406 2049.54 58.0351C2045.34 63.3773 2035.73 59.5903 2035.73 52.5901C2035.73 49.5507 2035.73 49.5507 2049.86 49.5507C2063.99 49.5507 2063.99 49.5507 2063.5 42.8051C2062.33 26.4312 2051 17.7382 2036.6 22.1661ZM160.71 46.3067C161 71.9446 161.26 72.5365 171.129 70.064C178.035 68.3322 174.017 22.6003 166.958 22.6003C160.442 22.6003 160.442 22.6003 160.71 46.3067ZM668.782 34.149C679.028 39.0041 675.684 58.9335 664.623 58.9335C651.925 58.9335 651.928 33.592 664.626 32.6448C665.092 32.6108 666.963 33.2876 668.782 34.149ZM1004.03 36.1114C1011.23 43.0048 1006.85 58.5701 997.65 58.8307C987.176 59.1271 983.794 38.9063 993.528 34.187C997.276 32.3693 1000.8 33.0161 1004.03 36.1114ZM1380.37 33.9634C1391.76 38.7176 1386.43 61.9369 1374.63 58.9774C1365.19 56.6127 1364.33 37.2713 1373.49 33.5252C1376.28 32.3853 1376.64 32.4082 1380.37 33.9634ZM1704.83 36.1264C1708.72 39.9553 1709.07 50.9531 1705.44 55.2692C1700.48 61.1524 1692.81 60.1512 1689.5 53.187C1683.39 40.3157 1695.44 26.8974 1704.83 36.1264ZM2047.32 33.3455C2048.63 34.2189 2050.72 38.0029 2050.72 39.5032C2050.72 40.163 2047.85 40.5672 2043.16 40.5672C2035.78 40.5672 2035.61 40.5133 2036.28 38.3214C2037.78 33.4074 2043.53 30.8162 2047.32 33.3455Z" fill="black" style="fill:black;fill-opacity:1;"/>
</svg>
