<svg width="284" height="60" viewBox="0 0 2064 72" fill="none" xmlns="http://www.w3.org/2000/svg">
<path fill-rule="evenodd" clip-rule="evenodd" d="M160.441 7.14536C160.441 13.6804 160.441 13.6804 166.689 13.3839C176.803 12.9028 177.089 0.609375 166.986 0.609375C160.441 0.609375 160.441 0.609379 160.441 7.14536ZM473.316 34.9393C473.316 73.0382 472.827 70.4959 480.145 70.4659C486.065 70.441 486.092 70.3681 486.467 53.2875C486.854 35.646 487.801 33.2164 494.3 33.2164C500.205 33.2164 500.767 34.8225 501.147 52.7955C501.52 70.4091 501.531 70.441 507.47 70.4659C514.551 70.4949 514.3 71.1966 514.3 51.429C514.3 31.1882 513.336 26.9749 507.951 23.67C501.209 19.5326 491.499 20.6086 487.783 25.9049C486.456 27.7974 486.311 26.6555 486.311 14.3072C486.311 0.609383 486.311 0.609375 479.813 0.609375C473.316 0.609375 473.316 0.609379 473.316 34.9393ZM1007.77 1.27516C1007.4 1.64049 1007.1 7.54962 1007.1 14.406C1007.1 26.3111 1007.02 26.7982 1005.32 25.2571C991.937 13.1653 973.038 27.0627 974.359 48.0222C975.533 66.655 993.326 77.8544 1004.85 67.2179C1007.1 65.1417 1007.1 65.1417 1007.1 67.2059C1007.1 70.1895 1014.53 71.7865 1019.52 69.8751C1025.62 67.5374 1021.03 0.609375 1014.77 0.609375C1011.28 0.609375 1008.14 0.908832 1007.77 1.27516ZM1532.13 35.2956C1532.42 73.0332 1532.29 72.603 1542.54 70.0328C1549.48 68.2939 1545.42 0.609375 1538.38 0.609375C1531.87 0.609375 1531.87 0.609375 1532.13 35.2956ZM21.1778 22.0689C19.0816 22.7886 16.4957 24.1631 15.4331 25.1243C13.5788 26.8002 13.4999 26.7833 13.4999 24.7201C13.4999 22.7377 12.9891 22.569 7.00247 22.569C0.50507 22.569 0.50507 22.569 0.50507 45.9191C0.50507 71.8085 0.139218 70.4959 7.33434 70.4659C13.259 70.441 13.3149 70.2963 13.6718 54.1649C14.0367 37.7092 16.0219 33.5488 23.5119 33.5488C26.4877 33.5488 26.4947 33.5348 26.4947 27.6187C26.4947 20.6585 26.1958 20.3461 21.1778 22.0689ZM318.249 22.1348C296.205 28.9123 299.281 67.4076 322.158 71.0609C332.935 72.7817 347.926 61.6102 345.012 54.0292C343.925 51.1974 333.533 51.962 332.392 54.9575C328.287 65.7386 316.986 59.2376 317.017 46.1127C317.048 33.0418 326.791 26.7294 331.851 36.5004C333.685 40.0439 345.367 41.3465 345.367 38.0086C345.367 26.4698 331.172 18.1611 318.249 22.1348ZM655.49 21.9022C637.742 28.3304 636.511 60.4703 653.685 69.0156C659.858 72.088 663.63 72.1209 669.496 69.1554C673.889 66.9354 674.115 66.9155 674.583 68.7062C678.561 83.8963 687.73 68.0784 687.73 46.0259C687.73 22.4303 682.086 12.241 675.156 23.3226C674.042 25.1044 673.833 25.0884 669.449 22.8725C664.482 20.3611 660.507 20.0846 655.49 21.9022ZM840.96 21.5639C839.472 22.01 836.885 23.3466 835.212 24.5364C832.172 26.6974 832.172 26.6974 832.172 24.6332C832.172 22.7746 831.572 22.569 826.157 22.569C818.705 22.569 816.643 69.5966 824.064 70.3053C832.068 71.0689 832.171 70.9021 832.178 57.2363C832.186 39.2563 833.979 34.9133 841.922 33.6237C845.667 33.0158 845.667 33.0158 845.667 27.1266C845.667 20.8472 845.2 20.2952 840.96 21.5639ZM1180.65 21.6048C1179.07 22.0789 1176.71 23.4664 1175.4 24.6881C1173.04 26.91 1173.04 26.91 1173.04 24.6921C1173.04 22.6049 1172.67 22.4911 1166.79 22.7706C1160.54 23.0681 1160.54 23.0681 1160.27 45.955C1159.97 71.2874 1159.76 70.44 1166.6 70.4659C1173.77 70.4929 1173.97 70.0188 1174.27 52.1207C1174.57 33.9052 1176.38 29.9964 1182.83 33.6067C1185.53 35.12 1185.53 35.1199 1185.81 52.0089C1186.11 70.4759 1186.09 70.44 1192.2 70.4659C1199.16 70.4949 1199.03 70.7993 1199.03 55.0513C1199.03 39.3921 1199.89 35.3845 1203.62 33.6866C1210.76 30.4365 1212.02 33.3143 1212.02 52.9062C1212.02 70.9291 1211.85 70.4809 1218.52 70.4809C1225.24 70.4809 1225.02 71.1457 1225.02 50.878C1225.02 27.5948 1223.76 23.9205 1214.97 21.5589C1209.99 20.2183 1204.32 21.6088 1200.01 25.2291C1196.91 27.8363 1196.91 27.8363 1195.34 25.5964C1192.45 21.479 1186.49 19.86 1180.65 21.6048ZM1367.6 22.035C1348.21 28.9353 1348.69 63.892 1368.26 70.0507C1374.24 71.9333 1379.95 70.991 1383.7 67.5034C1386.4 64.997 1386.95 64.9831 1386.95 67.4196C1386.95 69.919 1390.02 70.8472 1395.55 70.0188C1404.13 68.7341 1402.09 22.569 1393.45 22.569C1387.62 22.569 1386.95 22.7736 1386.95 24.5653C1386.95 27.1017 1385.75 27.1037 1383.46 24.5713C1380.11 20.8791 1373.72 19.856 1367.6 22.035ZM1692.42 21.6886C1669.4 27.0787 1668.65 63.4419 1691.42 70.0497C1710.33 75.5416 1726.16 57.9739 1720.33 37.9527C1716.77 25.7012 1704.87 18.771 1692.42 21.6886ZM1871.44 21.9721C1869.34 22.7447 1866.76 24.1631 1865.69 25.1243C1863.84 26.8002 1863.76 26.7833 1863.76 24.7201C1863.76 22.7377 1863.25 22.569 1857.26 22.569C1850.77 22.569 1850.77 22.569 1850.77 45.9191C1850.77 71.8085 1850.4 70.4959 1857.59 70.4659C1863.56 70.441 1863.58 70.3701 1863.94 53.2746C1864.3 35.643 1865.25 33.2164 1871.75 33.2164C1877.65 33.2164 1878.2 34.7965 1878.75 53.2955C1879.29 71.2625 1880.01 72.3864 1889.48 70.0128C1892.94 69.1454 1892.69 32.6185 1889.19 27.9411C1884.4 21.5479 1878.23 19.4717 1871.44 21.9721ZM2036.56 22.1348C2016.28 28.3713 2017.31 64.9072 2037.93 70.5688C2048.55 73.4854 2062.68 65.4761 2062.68 56.5386C2062.68 54.14 2051.58 55.3747 2049.51 58.0039C2045.3 63.3461 2035.69 59.559 2035.69 52.5589C2035.69 49.5195 2035.69 49.5195 2049.82 49.5195C2063.95 49.5195 2063.95 49.5195 2063.46 42.7739C2062.29 26.4 2050.96 17.7069 2036.56 22.1348ZM160.673 46.2754C160.963 71.9133 161.223 72.5052 171.092 70.0328C177.998 68.3009 173.98 22.569 166.92 22.569C160.405 22.569 160.405 22.569 160.673 46.2754ZM668.745 34.1178C678.991 38.9729 675.647 58.9022 664.585 58.9022C651.888 58.9022 651.891 33.5608 664.588 32.6135C665.055 32.5796 666.926 33.2564 668.745 34.1178ZM1004 36.0802C1011.19 42.9735 1006.82 58.5389 997.613 58.7994C987.139 59.0959 983.757 38.875 993.491 34.1557C997.238 32.3381 1000.77 32.9849 1004 36.0802ZM1380.33 33.9321C1391.72 38.6864 1386.4 61.9057 1374.59 58.9461C1365.15 56.5815 1364.29 37.24 1373.46 33.4939C1376.25 32.354 1376.6 32.377 1380.33 33.9321ZM1704.79 36.0951C1708.69 39.9241 1709.03 50.9219 1705.4 55.238C1700.44 61.1211 1692.77 60.12 1689.46 53.1558C1683.35 40.2844 1695.4 26.8661 1704.79 36.0951ZM2047.29 33.3143C2048.6 34.1877 2050.69 37.9717 2050.69 39.4719C2050.69 40.1317 2047.81 40.536 2043.12 40.536C2035.74 40.536 2035.57 40.4821 2036.24 38.2901C2037.74 33.3761 2043.49 30.7849 2047.29 33.3143Z" fill="white" style="fill:white;fill-opacity:1;"/>
</svg>
