<svg width="2262" height="171" viewBox="0 0 2262 171" fill="none" xmlns="http://www.w3.org/2000/svg">
<path fill-rule="evenodd" clip-rule="evenodd" d="M55.99 0.188851L49.2415 0.483712V1.43818V2.39161H45.8492H42.457L41.8811 3.89076L41.3062 5.3899H38.14H34.9737L32.6571 7.8885C31.3834 9.26272 30.0757 10.3871 29.7518 10.3871C29.4269 10.3871 28.4841 10.9497 27.6562 11.6364C26.8284 12.324 25.6097 13.4693 24.9489 14.1829C24.288 14.8965 23.2972 15.915 22.7473 16.4467C22.1975 16.9794 20.5098 18.5105 18.9982 19.8497C17.4865 21.189 16.2488 22.981 16.2488 23.8315V25.3786H14.7491H13.2494V27.8772V30.3758H12.2497C11.6998 30.3758 11.2499 30.8575 11.2499 31.4462C11.2499 32.0358 10.575 33.1922 9.75021 34.0167C8.9254 34.8413 8.25055 36.6083 8.25055 37.9425V40.3701H7.25076C6.70088 40.3701 6.25098 41.2147 6.25098 42.2471C6.25098 43.2785 5.57613 44.6827 4.75131 45.3673L3.25165 46.6116V53.9015V61.1914L2.09888 61.5762L0.947144 61.9599L0.86618 82.8192L0.785156 103.678L2.01889 104.09L3.25165 104.501V112.222V119.943L4.7193 121.883C5.52712 122.949 6.20197 124.61 6.21896 125.572C6.23696 126.533 6.70088 127.321 7.25076 127.321H8.25055V130.319V133.318H9.75021H11.2499V135.316C11.2499 136.416 11.6998 137.315 12.2497 137.315H13.2494V139.845V142.375L14.7491 142.95C15.5739 143.267 16.2488 143.96 16.2488 144.489C16.2488 145.02 16.8117 146.08 17.4985 146.847C18.1864 147.612 19.2891 148.818 19.95 149.523C20.6108 150.23 21.8296 151.37 22.6574 152.057C23.4852 152.745 24.6319 153.306 25.2048 153.306C25.7777 153.306 26.2466 153.981 26.2466 154.805C26.2466 155.63 26.8145 156.305 27.5093 156.305C28.2032 156.305 29.6158 157.429 30.6486 158.803L32.5252 161.302H34.3018C35.2786 161.302 36.2274 161.639 36.4113 162.051C36.5943 162.464 38.2429 163.588 40.0745 164.55C41.9061 165.511 44.6805 166.299 46.2401 166.299H49.0746L49.4594 167.453L49.8444 168.607L62.2906 169.537L74.7359 170.467L86.4833 169.232C92.9439 168.554 98.2307 167.681 98.2307 167.293C98.2307 166.906 101.487 166.316 105.466 165.982L112.702 165.376L113.048 164.338C113.238 163.767 114.291 163.301 115.387 163.301H117.38L120.457 160.225L123.533 157.149L124.001 152.286C124.258 149.61 124.168 145.823 123.802 143.868L123.134 140.314H118.181H113.227V141.313V142.312H110.697H108.166L107.591 143.812L107.015 145.311H105.205C104.21 145.311 103.247 145.756 103.063 146.3L102.73 147.29L96.4811 147.942C93.0449 148.3 90.2325 148.98 90.2325 149.45V150.308H80.2347H70.2369V149.437C70.2369 148.959 67.9874 148.268 65.238 147.903L60.2391 147.241V146.276C60.2391 145.746 59.5642 145.311 58.7394 145.311C57.9146 145.311 57.2397 144.891 57.2397 144.378C57.2397 143.866 56.2749 143.141 55.0962 142.766C53.9165 142.392 51.667 140.772 50.0973 139.166C48.5267 137.561 47.2419 135.636 47.2419 134.89C47.2419 134.142 46.5671 133.273 45.7423 132.956L44.2426 132.381V130.35C44.2426 129.234 43.7927 128.32 43.2428 128.32H42.243V125.393V122.467L40.7434 120.968C39.9186 120.143 39.2437 118.312 39.2437 116.898C39.2437 115.485 38.8618 114.328 38.3949 114.328H37.5451L36.9372 103.598L36.3293 92.8685L35.2876 92.5217L34.2448 92.1738V79.3481V66.5223L35.3736 66.1455L36.5013 65.7698L37.0092 56.0682L37.5171 46.3668H38.3799C38.8548 46.3668 39.2437 45.6921 39.2437 44.8676C39.2437 44.043 39.6516 43.3684 40.1495 43.3684C40.6484 43.3684 41.3652 41.1197 41.7432 38.3713C42.1211 35.6228 42.8379 33.3741 43.3368 33.3741C43.8347 33.3741 44.2426 32.7384 44.2426 31.9609C44.2426 31.1833 45.8093 28.9346 47.7238 26.9637L51.2061 23.3798H53.1006C54.1424 23.3798 55.5551 22.7051 56.24 21.8806L57.4847 20.3814H59.8612H62.2386V19.382V18.3826H67.2375H72.2365V19.2541C72.2365 19.7338 74.036 20.4134 76.2356 20.7652L80.2347 21.4049V22.3923V23.3798H82.7341H85.2336V24.4501C85.2336 25.0398 85.7965 26.1482 86.4833 26.9147C87.1712 27.6803 88.2959 28.9785 88.9828 29.7991C89.6706 30.6196 90.2325 32.4346 90.2325 33.8319V36.3724H91.2323C91.7821 36.3724 92.232 37.172 92.232 38.1494C92.232 39.1269 93.1368 40.7009 94.2426 41.6474L96.2542 43.3684H108.739H121.226V42.369V41.3696H123.725H126.225V35.4539V29.5382L124.475 26.2551C123.513 24.4492 122.275 22.4043 121.726 21.7107C121.176 21.0181 120.164 19.7798 119.476 18.9593C118.789 18.1388 118.226 17.1893 118.226 16.8485C118.226 16.5087 116.912 14.9155 115.304 13.3084L112.382 10.3871H110.305H108.229V8.88795V7.3888H106.729C105.904 7.3888 105.229 6.98904 105.229 6.50031C105.229 6.01259 103.655 5.31692 101.73 4.95612C99.8054 4.59533 98.2307 3.87078 98.2307 3.34608V2.39161H94.3146H90.3994L90.0655 1.45014L89.7326 0.509713L76.2356 0.200814C68.8122 0.0319099 59.7012 0.0259436 55.99 0.188851ZM578.875 0.168893L567.127 0.455697V1.42414V2.39161H564.628H562.129V3.89076V5.3899H558.629H555.13V6.38935C555.13 6.93904 554.441 7.3888 553.599 7.3888C552.757 7.3888 551.809 8.06341 551.493 8.88795L550.917 10.3871H548.953C547.873 10.3871 546.346 11.0298 545.561 11.8153C544.775 12.5999 544.133 13.7242 544.133 14.3139C544.133 14.9026 543.651 15.3843 543.062 15.3843C542.472 15.3843 541.347 16.0269 540.562 16.8124C539.777 17.597 539.134 18.7214 539.134 19.311C539.134 19.8997 538.459 20.3814 537.634 20.3814H536.134V21.8806C536.134 22.7051 535.684 23.3798 535.135 23.3798H534.135V25.8783V28.3769H533.064C532.474 28.3769 531.349 29.0196 530.565 29.8051L529.136 31.2323V34.8023V38.3713H527.636H526.136V43.3684V48.3656H525.279C524.808 48.3656 524.128 51.177 523.77 54.6121L523.117 60.8585L522.127 61.1914L521.138 61.5252V83.9945V106.464L522.209 108.466C522.798 109.566 523.475 113.022 523.712 116.145L524.144 121.824L525.14 122.157L526.136 122.491V126.214V129.937L527.604 131.877C528.412 132.944 529.087 134.605 529.104 135.566C529.122 136.528 529.586 137.315 530.136 137.315C530.685 137.315 531.135 137.99 531.135 138.814V140.314H532.635H534.135V142.812V145.311H535.135C535.684 145.311 536.134 145.985 536.134 146.81V148.309H537.634C538.459 148.309 539.134 148.791 539.134 149.379C539.134 149.969 539.777 151.094 540.562 151.878C541.347 152.664 542.472 153.306 543.062 153.306C543.651 153.306 544.133 153.788 544.133 154.377C544.133 154.966 544.775 156.091 545.561 156.875C546.346 157.661 547.718 158.303 548.608 158.303C549.498 158.303 551.218 159.341 552.429 160.608C553.639 161.875 556.67 163.674 559.162 164.606C561.656 165.537 564.43 166.299 565.328 166.299C566.226 166.299 567.113 166.757 567.3 167.316L567.639 168.333L579.131 169.351L590.622 170.37L601.62 169.286L612.617 168.202L612.95 167.25C613.134 166.727 614.11 166.299 615.119 166.299C616.129 166.299 618.453 165.511 620.285 164.55C622.116 163.588 623.765 162.464 623.948 162.051C624.132 161.639 625.158 161.302 626.229 161.302H628.177L628.752 159.803L629.328 158.303H631.22C632.261 158.303 633.113 157.854 633.113 157.304C633.113 156.754 633.788 156.305 634.613 156.305H636.112V154.805V153.306H637.612C638.437 153.306 639.112 152.837 639.112 152.262C639.112 151.687 640.236 150.092 641.611 148.718C642.986 147.344 644.11 145.729 644.11 145.13C644.11 144.531 645.235 142.999 646.61 141.725L649.109 139.409V136.447C649.109 134.818 649.447 133.335 649.859 133.151C650.271 132.968 651.396 131.32 652.359 129.489L654.108 126.16V119.327V112.496L655.259 112.113L656.41 111.729L656.883 106.033L657.356 100.336H658.231H659.107V87.3436V74.3509H658.248H657.39L656.846 65.6378L656.302 56.9258L655.205 56.5599L654.108 56.1942V49.7818V43.3684H653.217C652.727 43.3684 652.043 42.244 651.698 40.8698C651.353 39.4956 650.629 38.3713 650.09 38.3713H649.109V34.7383V31.1044L646.61 28.7886C645.235 27.5154 644.11 25.8403 644.11 25.0668C644.11 24.2932 642.986 22.8151 641.611 21.7836C640.236 20.7512 639.112 19.339 639.112 18.6454C639.112 17.9508 638.63 17.3831 638.041 17.3831C637.451 17.3831 636.386 16.8005 635.673 16.0869C634.959 15.3743 634.062 13.8002 633.678 12.5889L632.978 10.3871H630.547H628.114V8.88795V7.3888H625.615C624.24 7.3888 623.115 6.98798 623.115 6.49726C623.115 6.00754 621.99 5.32394 620.616 4.97913C619.241 4.63433 618.116 3.91077 618.116 3.37208V2.39161H614.7C612.821 2.39161 611.135 2.00984 610.951 1.5431L610.618 0.694589L600.62 0.28785C595.121 0.0639771 585.335 0.00998287 578.875 0.168893ZM212.206 1.39216V2.39161H203.767H195.327L194.709 3.39106C194.37 3.94075 192.656 4.39747 190.901 4.40547C189.147 4.41446 187.099 4.80826 186.352 5.28199L184.994 6.14246L184.493 10.582L183.993 15.0225L185.673 16.7025L187.354 18.3826H191.281H195.209V19.382V20.3814H198.638H202.065L203.387 21.8457C204.112 22.6512 205.27 23.9814 205.957 24.8019L207.207 26.2941V95.5749V164.856L209.217 166.577L211.229 168.298H259.206H307.185V167.227C307.185 166.638 307.86 165.481 308.684 164.657L310.184 163.158V155.734V148.309H311.184H312.184V138.334V128.358L309.684 127.732C308.309 127.387 307.185 126.703 307.185 126.214C307.185 125.723 306.028 125.322 304.614 125.322C303.2 125.322 301.4 125.965 300.615 126.75C299.829 127.535 299.186 128.659 299.186 129.249C299.186 129.838 298.796 130.319 298.317 130.319C297.839 130.319 297.208 132.441 296.915 135.034L296.384 139.748L295.285 140.115C294.682 140.316 294.188 140.924 294.188 141.468C294.188 142.011 293.545 143.098 292.759 143.883C291.974 144.668 290.886 145.311 290.343 145.311C289.8 145.311 289.182 145.831 288.97 146.467L288.584 147.623L270.519 148.098C260.584 148.358 249.922 148.255 246.827 147.868L241.199 147.166V74.7786V2.39161H239.7C238.875 2.39161 238.2 1.94185 238.2 1.39216V0.39277H225.203H212.206V1.39216ZM411.162 1.39216V2.39161H400.223H389.285L388.667 3.39106C388.327 3.94075 386.388 4.39643 384.359 4.40443C382.329 4.41142 379.656 4.68934 378.419 5.02015L376.17 5.62275V10.504V15.3843H377.169C377.719 15.3843 378.169 16.0589 378.169 16.8834V18.3826H382.168H386.167V19.382V20.3814H390.121H394.075L396.62 22.925L399.164 25.4696V27.9221V30.3758H400.164H401.164V92.8405V155.305H400.164H399.164V157.804V160.302H400.164H401.164V162.719C401.164 164.048 401.437 165.847 401.771 166.717L402.378 168.298H415.839H429.301L430.728 166.87C431.514 166.085 432.157 164.961 432.157 164.371C432.157 163.782 432.607 163.301 433.157 163.301H434.157V84.3453V5.3899H433.157C432.607 5.3899 432.157 4.90819 432.157 4.31953C432.157 3.72986 431.514 2.60549 430.728 1.82093L429.301 0.39277H420.231H411.162V1.39216ZM866.062 1.39216V2.39161H863.669H861.277L860.67 3.97267C860.336 4.84217 860.063 7.05399 860.063 8.88795C860.063 10.7219 860.336 12.9337 860.67 13.8032C861.004 14.6727 862.016 15.3982 862.919 15.4162C863.823 15.4332 865.436 16.1078 866.503 16.9154L868.443 18.3826H872.74H877.036L879.048 20.1036L881.058 21.8246V86.0663V150.308H882.058H883.058V157.582V164.856L885.068 166.577L887.08 168.298H899.137H911.195L912.622 166.87C913.408 166.085 914.051 164.998 914.051 164.455C914.051 163.911 914.614 163.28 915.301 163.051L916.551 162.634L916.765 131.236C916.882 113.967 916.994 99.2978 917.014 98.6401L917.05 97.4428L930.797 97.0461C938.359 96.8282 948.031 96.0396 952.293 95.2951C956.555 94.5505 960.041 93.5811 960.041 93.1413C960.041 92.7006 961.166 92.3407 962.54 92.3407H965.04V90.8416V89.3424H967.539H970.039V88.343C970.039 87.7933 970.714 87.3436 971.538 87.3436H973.038V85.8444C973.038 85.0199 973.52 84.3453 974.109 84.3453C974.699 84.3453 975.824 83.7026 976.608 82.9171C977.394 82.1325 978.037 81.211 978.037 80.8712C978.037 80.5304 979.162 79.2102 980.536 77.9369C981.911 76.6626 983.036 74.8536 983.036 73.9152C983.036 72.9767 983.711 71.5345 984.536 70.71L986.035 69.2108V65.285V61.3583H987.035H988.035V49.8648V38.3713H987.035H986.035V34.4445V30.5187L984.536 29.0195C983.711 28.195 983.036 27.0387 983.036 26.449C983.036 25.8603 982.616 25.3786 982.103 25.3786C981.59 25.3786 980.858 24.3951 980.478 23.1928C980.096 21.9915 978.266 19.5769 976.41 17.8279C974.556 16.0799 973.038 14.139 973.038 13.5173C973.038 12.8947 972.363 12.3859 971.538 12.3859C970.714 12.3859 970.039 11.9362 970.039 11.3865C970.039 10.8369 969.187 10.3871 968.146 10.3871H966.254L965.678 8.88795L965.103 7.3888H962.571H960.041V6.38935V5.3899H957.733C956.463 5.3899 954.551 4.72928 953.483 3.92274L951.543 2.45558L911.302 2.42359L871.061 2.39161V1.39216V0.39277H868.561H866.062V1.39216ZM1053.27 1.88789C1052.58 2.66845 1052.02 3.77584 1052.02 4.34852C1052.02 4.9212 1051.35 5.3899 1050.52 5.3899H1049.02L1049.04 9.13783C1049.05 11.1997 1049.38 13.3394 1049.79 13.8931C1050.19 14.4478 1052.77 15.6861 1055.52 16.6466C1058.27 17.607 1061.75 18.3906 1063.26 18.3876L1065.99 18.3826L1068.01 20.1036L1070.02 21.8246V24.1013C1070.02 25.3536 1070.47 26.3781 1071.02 26.3781H1072.02V96.3384V166.299H1073.52C1074.34 166.299 1075.02 166.749 1075.02 167.298V168.298H1121.01H1167V167.406C1167 166.917 1168.12 166.233 1169.49 165.888L1171.99 165.261V146.291V127.321H1170.49C1169.67 127.321 1168.99 126.871 1168.99 126.322V125.322H1165.42H1161.85L1160.43 126.75C1159.64 127.535 1159 128.659 1159 129.249C1159 129.838 1158.4 130.319 1157.67 130.319H1156.35L1156.21 135.747L1156.07 141.175L1152.82 144.492L1149.58 147.809H1129.48H1109.38L1107.64 146.08L1105.91 144.351L1105.84 117.097L1105.78 89.8422L1120.8 89.5663L1135.81 89.2915L1137.33 90.8156C1138.17 91.6551 1139.34 92.3407 1139.93 92.3407H1141V94.3396C1141 95.439 1141.39 96.3384 1141.87 96.3384C1142.35 96.3384 1142.96 98.5292 1143.21 101.207L1143.68 106.075L1145.72 108.266L1147.77 110.456L1152.13 110.144L1156.5 109.831L1156.81 107.082C1156.99 105.57 1157.55 104.334 1158.06 104.334H1159V81.3469V58.3599H1158C1157.45 58.3599 1157 57.5604 1157 56.583C1157 55.6055 1156.09 54.0314 1154.99 53.0849C1153.88 52.1384 1152.53 51.3639 1151.99 51.3639C1151.44 51.3639 1151 51.8137 1151 52.3633C1151 52.913 1149.99 53.3698 1148.75 53.3778C1147.51 53.3868 1145.99 53.7236 1145.38 54.1274C1144.76 54.5312 1143.93 56.3231 1143.55 58.1101C1143.16 59.8971 1142.43 61.3583 1141.92 61.3583H1141V64.7393V68.1215L1138.75 68.7241C1137.51 69.0549 1130.54 69.3328 1123.26 69.3398L1110.01 69.3537V70.3532C1110.01 70.9028 1109.11 71.3526 1108.01 71.3526H1106.01L1105.94 70.1033C1105.9 69.4167 1105.93 58.7857 1106 46.4807L1106.14 24.1074L1107.5 22.7441L1108.87 21.3809H1121.92H1134.97L1141.98 22.5842L1149 23.7865V24.715C1149 25.2257 1149.98 26.49 1151.17 27.5234L1153.34 29.4044L1153.81 35.1001L1154.28 40.7959L1155.82 42.332L1157.35 43.8682H1161.5H1165.64L1167.44 42.0631L1169.25 40.2592L1169.07 24.1004L1168.89 7.94148L1168.06 7.4148C1167.6 7.12597 1167.06 5.98958 1166.85 4.89021L1166.48 2.89131L1162.74 2.58149L1159 2.2707V1.33222V0.39277H1116.51H1074.02V1.39216V2.39161H1066.52H1059.02V1.39216V0.39277L1056.77 0.430734C1055.53 0.451722 1053.96 1.10733 1053.27 1.88789ZM1242.98 1.39216C1242.98 1.94185 1242.3 2.39161 1241.48 2.39161H1239.98V3.89076C1239.98 4.71529 1239.53 5.3899 1238.98 5.3899H1237.98V7.8885C1237.98 9.26272 1238.38 10.3871 1238.87 10.3871C1239.36 10.3871 1240.05 11.5115 1240.39 12.8857L1241.02 15.3843H1242.8C1243.78 15.3843 1245.05 15.86 1245.64 16.4417C1246.22 17.0223 1249.23 17.76 1252.33 18.0798C1255.44 18.4006 1257.98 19.0492 1257.98 19.5219C1257.98 19.9947 1258.65 20.3814 1259.47 20.3814H1260.97V92.3407V164.3H1261.91C1262.42 164.3 1263.13 165.2 1263.47 166.299L1264.11 168.298H1276.54H1288.97V167.298V166.299H1291.36H1293.75L1294.44 163.55C1294.83 162.038 1295.08 148.815 1295.01 134.164L1294.89 107.525L1296.18 107.054L1297.47 106.583L1296.22 105.258C1295.53 104.53 1294.97 103.093 1294.97 102.064C1294.97 101.035 1295.58 99.5766 1296.34 98.8231L1297.71 97.4528L1310.58 96.9981C1317.67 96.7472 1327.17 95.9837 1331.71 95.2991C1336.25 94.6155 1339.96 93.6699 1339.96 93.1982C1339.96 92.7265 1340.63 92.3407 1341.46 92.3407C1342.28 92.3407 1342.96 91.891 1342.96 91.3413C1342.96 90.7916 1343.6 90.3419 1344.39 90.3419C1345.17 90.3419 1346.43 89.7263 1347.18 88.9747C1347.93 88.2221 1349.54 87.2926 1350.75 86.9088C1351.96 86.524 1352.95 85.7904 1352.95 85.2777C1352.95 84.765 1353.44 84.3453 1354.03 84.3453C1354.62 84.3453 1355.74 83.7026 1356.52 82.9171C1357.31 82.1325 1357.95 81.0081 1357.95 80.4185C1357.95 79.8298 1358.39 79.3481 1358.93 79.3481C1359.47 79.3481 1360.2 78.2237 1360.54 76.8495C1360.89 75.4753 1361.57 74.3509 1362.06 74.3509H1362.95V70.9598V67.5687L1364.45 66.993L1365.95 66.4184V62.8884V59.3594H1366.95H1367.95V50.3644V41.3696H1366.95H1365.95V37.3718V33.3741H1364.45H1362.95V29.876V26.3781H1361.95C1361.4 26.3781 1360.95 25.6894 1360.95 24.8479C1360.95 24.0054 1360.28 23.0579 1359.45 22.7421C1358.63 22.4253 1357.95 21.5518 1357.95 20.8002C1357.95 20.0496 1355.92 17.3991 1353.43 14.9105L1348.9 10.3871H1346.93C1345.84 10.3871 1344.96 9.94632 1344.96 9.40662C1344.96 8.86793 1343.83 8.14437 1342.46 7.79957C1341.08 7.45476 1339.96 6.84516 1339.96 6.44538C1339.96 6.04461 1337.26 4.96918 1333.97 4.0547L1327.99 2.39161H1291.98H1255.98V1.39216V0.39277H1249.48H1242.98V1.39216ZM1429.57 2.64149C1429.24 3.87779 1428.97 6.68919 1428.97 8.88795C1428.97 11.0867 1429.3 13.3974 1429.7 14.023C1430.11 14.6477 1432.18 15.885 1434.31 16.7715L1438.18 18.3826H1442.96H1447.74L1448.84 21.5298L1449.93 24.677V94.9692V165.261L1452.43 165.888C1453.81 166.233 1454.93 166.917 1454.93 167.406V168.298H1467.5H1480.07L1481.5 166.87L1482.93 165.442V131.439V97.4359L1498.17 97.0471L1513.42 96.6583L1521.17 95.3001C1525.43 94.5525 1528.92 93.5811 1528.92 93.1413C1528.92 92.7006 1530.04 92.3407 1531.42 92.3407H1533.91V91.3603C1533.91 90.8216 1535.04 90.098 1536.41 89.7532C1537.79 89.4084 1538.91 88.7248 1538.91 88.2351C1538.91 87.7443 1539.59 87.3436 1540.41 87.3436H1541.91V85.8444C1541.91 85.0199 1542.39 84.3453 1542.98 84.3453C1543.57 84.3453 1544.7 83.7026 1545.48 82.9171C1546.27 82.1325 1546.91 81.0081 1546.91 80.4185C1546.91 79.8298 1547.42 79.3481 1548.05 79.3481C1548.68 79.3481 1549.79 78.5605 1550.52 77.5991C1551.25 76.6376 1551.86 75.0305 1551.88 74.0301C1551.9 73.0287 1552.59 71.5345 1553.41 70.71C1554.24 69.8854 1554.91 68.1184 1554.91 66.7842V64.3566H1555.91H1556.91V49.8648V35.3729H1556.02C1555.54 35.3729 1554.83 33.3491 1554.46 30.8755C1554.09 28.4019 1553.37 26.3781 1552.85 26.3781C1552.33 26.3781 1551.91 25.9073 1551.91 25.3306C1551.91 24.755 1550.79 23.2419 1549.41 21.9686C1548.04 20.6943 1546.91 19.1422 1546.91 18.5175C1546.91 17.8939 1546.43 17.3831 1545.84 17.3831C1545.25 17.3831 1544.13 16.7405 1543.34 15.9549C1542.56 15.1703 1541.91 14.046 1541.91 13.4564C1541.91 12.8677 1541.24 12.3859 1540.41 12.3859C1539.59 12.3859 1538.91 11.9362 1538.91 11.3865C1538.91 10.8369 1538.24 10.3871 1537.41 10.3871C1536.59 10.3871 1535.91 9.94632 1535.91 9.40662C1535.91 8.86793 1534.79 8.14437 1533.41 7.79957C1532.04 7.45476 1530.92 6.77116 1530.92 6.28144C1530.92 5.79072 1530.07 5.3899 1529.04 5.3899C1528 5.3899 1525.55 4.71529 1523.57 3.89076L1519.98 2.39161H1479.96H1439.94V1.39216V0.39277H1435.05H1430.17L1429.57 2.64149ZM1653.89 1.2403V2.08881L1639.32 2.77644L1624.75 3.46497L1622.82 4.66731L1620.9 5.87068V10.6989V15.5272L1622.32 16.9544L1623.75 18.3826H1627.32H1630.89V19.382V20.3814H1634.24H1637.59L1639.99 23.5097L1642.39 26.6389L1642.89 95.7908L1643.39 164.944L1645.07 166.621L1646.75 168.298H1661.82H1676.88V85.3447V2.39161H1675.38C1674.56 2.39161 1673.88 1.94185 1673.88 1.39216V0.39277H1663.89H1653.89V1.2403ZM1793.86 1.33222V2.2707L1790.11 2.58149L1786.36 2.89131L1786.07 9.00288L1785.77 15.1144L1789.81 15.7611L1793.86 16.4077V17.3952V18.3826H1797.43H1801L1802.43 19.8108C1803.21 20.5954 1803.86 22.1694 1803.86 23.3088C1803.86 24.4471 1803.41 25.3786 1802.86 25.3786H1801.86V27.9082V30.4387L1800.36 31.0134L1798.86 31.5891V36.4793V41.3696H1797.88C1797.34 41.3696 1796.61 42.4939 1796.27 43.8682C1795.92 45.2424 1795.24 46.3668 1794.75 46.3668H1793.86V49.8648V53.3628H1792.87H1791.88L1791.24 57.3605C1790.89 59.5593 1790.21 61.3583 1789.73 61.3583C1789.25 61.3583 1788.86 62.4826 1788.86 63.8568C1788.86 65.231 1788.46 66.3554 1787.97 66.3554C1787.48 66.3554 1786.79 67.4798 1786.45 68.854C1786.1 70.2282 1785.38 71.3526 1784.84 71.3526H1783.86V76.2429V81.1331L1782.36 81.7087L1780.86 82.2835V85.8134V89.3424H1779.86H1778.86V92.2698V95.1961L1777.36 96.6953C1776.54 97.5198 1775.86 99.1259 1775.86 100.265C1775.86 101.404 1775.43 102.335 1774.91 102.335C1774.38 102.335 1773.66 103.914 1773.29 105.844C1772.93 107.774 1772.24 109.6 1771.75 109.901C1771.26 110.202 1770.86 111.959 1770.86 113.805C1770.86 115.65 1770.52 117.31 1770.11 117.493C1769.7 117.676 1768.58 119.324 1767.61 121.155C1766.65 122.986 1765.86 125.798 1765.86 127.402V130.319H1764.91C1764.38 130.319 1763.66 131.893 1763.3 133.817C1762.94 135.741 1762.24 137.315 1761.75 137.315H1760.86V141.313V145.311H1759.36H1757.87V148.309V151.307H1756.87H1755.87V154.805V158.303H1754.26H1752.65L1753.26 159.884C1753.59 160.754 1753.87 161.855 1753.87 162.331C1753.87 162.808 1754.93 164.345 1756.23 165.747L1758.59 168.298H1764.73H1770.86V167.298V166.299H1773.35H1775.84L1776.48 162.301C1776.83 160.102 1777.51 158.303 1777.99 158.303H1778.86V154.805V151.307H1779.78C1780.29 151.307 1781 149.958 1781.36 148.309C1781.72 146.66 1782.43 145.311 1782.94 145.311H1783.86V141.92V138.529L1785.36 137.953L1786.86 137.378V133.848V130.319H1787.86H1788.86V128.012C1788.86 126.742 1789.52 124.831 1790.33 123.764C1791.13 122.698 1791.81 121.085 1791.83 120.182C1791.84 119.278 1792.57 118.267 1793.44 117.933C1794.31 117.599 1806.62 117.327 1820.81 117.327H1846.59L1847.23 121.324L1847.87 125.322H1848.86H1849.84V128.239C1849.84 129.844 1850.63 132.655 1851.59 134.486C1852.56 136.317 1853.68 137.965 1854.09 138.148C1854.51 138.332 1854.84 140.692 1854.84 143.395V148.309H1856.34H1857.84V150.808C1857.84 152.182 1858.24 153.306 1858.72 153.306C1859.19 153.306 1859.87 155.105 1860.23 157.304L1860.87 161.302H1861.85C1862.4 161.302 1862.84 162.192 1862.84 163.282V165.261L1865.34 165.888C1866.72 166.233 1867.84 166.917 1867.84 167.406V168.298H1879.34H1890.84V167.298C1890.84 166.749 1891.51 166.299 1892.34 166.299H1893.84V160.873V155.448L1892.34 153.949C1891.51 153.124 1890.84 151.518 1890.84 150.379C1890.84 149.241 1890.39 148.309 1889.84 148.309H1888.84V144.311V140.314H1887.34H1885.84V137.815V135.316H1884.84H1883.84V131.787V128.257L1882.34 127.683L1880.84 127.107V123.716V120.325H1879.84H1878.84V117.795V115.265L1877.34 114.69L1875.84 114.114V110.723C1875.84 108.858 1875.45 107.332 1874.97 107.332C1874.49 107.332 1873.81 105.533 1873.46 103.335L1872.82 99.3368H1871.83H1870.84V96.4194C1870.84 94.8153 1870.05 92.0039 1869.09 90.173C1868.13 88.342 1867 86.6939 1866.59 86.511C1866.18 86.3271 1865.84 84.6411 1865.84 82.7631V79.3481H1864.92C1864.41 79.3481 1863.7 77.9989 1863.34 76.3498C1862.98 74.7007 1862.27 73.3514 1861.76 73.3514H1860.84V69.9244V66.4984L1859.34 64.9992C1858.52 64.1747 1857.84 62.5686 1857.84 61.4292C1857.84 60.2909 1857.39 59.3594 1856.84 59.3594H1855.84V55.4326V51.5068L1854.34 50.0077C1853.52 49.1832 1852.84 47.603 1852.84 46.4967C1852.84 45.3913 1852.45 44.2439 1851.98 43.9491C1851.5 43.6543 1850.82 41.6034 1850.47 39.3926L1849.82 35.3729H1848.83C1848.29 35.3729 1847.85 34.5004 1847.85 33.4331C1847.85 32.3657 1847.45 31.2463 1846.96 30.9454C1846.47 30.6446 1845.78 28.8187 1845.41 26.8887C1845.05 24.9588 1844.33 23.3798 1843.8 23.3798C1843.28 23.3798 1842.85 22.3833 1842.85 21.164C1842.85 19.9457 1842.11 17.0223 1841.21 14.6677C1840.31 12.314 1839.19 10.3871 1838.71 10.3871C1838.24 10.3871 1837.85 9.26272 1837.85 7.8885V5.3899H1836.35H1834.85V3.89076V2.39161H1815.85H1796.86V1.39216C1796.86 0.842471 1796.18 0.39277 1795.36 0.39277C1794.53 0.39277 1793.86 0.815515 1793.86 1.33222ZM2061.8 1.39216V2.39161H2006.31H1950.82L1948.82 4.39051L1946.82 6.38935V19.8817V33.3741H1945.82H1944.82V36.3724V39.3707H1945.82C1946.37 39.3707 1946.82 40.2343 1946.82 41.2907V43.2095L1949.7 43.8402C1951.27 44.187 1953.75 44.174 1955.19 43.8112L1957.82 43.1516V41.7614C1957.82 40.9958 1958.27 40.3701 1958.82 40.3701H1959.82V34.3735V28.3769H1960.89C1961.48 28.3769 1962.61 27.7342 1963.39 26.9487C1964.18 26.1641 1964.82 25.1107 1964.82 24.609C1964.82 24.1063 1966.56 23.1749 1968.68 22.5382L1972.55 21.3809H1982.68H1992.81V93.4111V165.442L1994.24 166.87L1995.67 168.298H2009.17H2022.67L2023.37 166.096C2023.76 164.885 2024.69 163.27 2025.46 162.507L2026.84 161.12L2026.81 92.4996C2026.78 54.759 2026.77 23.2858 2026.79 22.5592L2026.81 21.2389L2035.55 21.7357C2040.37 22.0085 2046.25 22.5412 2048.63 22.919L2052.96 23.6046L2055.74 26.316L2058.51 29.0275L2059.2 32.7004C2059.58 34.7193 2060.32 36.3724 2060.84 36.3724H2061.8V39.7635V43.1545L2063.38 43.7612C2064.25 44.095 2066.4 44.3679 2068.16 44.3679H2071.35L2073.07 42.358L2074.8 40.3471V22.869V5.3899H2073.3H2071.8V3.89076V2.39161H2069.3H2066.8V1.39216V0.39277H2064.3H2061.8V1.39216ZM2138.78 1.39216C2138.78 1.94185 2137.76 2.39161 2136.5 2.39161H2134.23L2132.5 4.40144L2130.78 6.41236V18.3936V30.3758H2129.78H2128.78V34.3735V38.3713H2129.78H2130.78V40.7559V43.1415L2135.11 43.7902C2137.49 44.147 2140.19 44.148 2141.12 43.7932C2142.04 43.4384 2143.07 42.0732 2143.4 40.7599C2143.73 39.4456 2144.34 38.3713 2144.76 38.3713C2145.18 38.3713 2145.76 36.2495 2146.05 33.6569L2146.58 28.9426L2147.68 28.5758C2148.29 28.3749 2148.78 27.1686 2148.78 25.8953V23.5806L2153.53 22.918C2156.14 22.5542 2162.15 22.0285 2166.89 21.7507L2175.5 21.2459L2176.14 24.4371C2176.49 26.1912 2176.77 58.5948 2176.77 96.4444V165.261L2179.27 165.888C2180.65 166.233 2181.77 166.917 2181.77 167.406V168.298H2193.27H2204.77V167.406C2204.77 166.917 2205.89 166.233 2207.27 165.888L2209.77 165.261V93.2322V21.204L2220.51 21.7247C2226.42 22.0115 2233 22.5562 2235.13 22.937L2239.01 23.6276L2240.88 25.5026L2242.76 27.3775V31.3752V35.3729H2243.63C2244.11 35.3729 2244.79 37.1719 2245.14 39.3707L2245.78 43.3684H2247.57C2248.55 43.3684 2249.78 43.7702 2250.31 44.2609L2251.26 45.1524L2254.63 44.6278L2258.01 44.103L2258.5 42.2371C2258.77 41.2096 2259.39 40.3701 2259.87 40.3701H2260.75V35.3729V30.3758H2259.75H2258.75V20.4644V10.554L2260 9.97035L2261.25 9.38764L2260 8.805C2259.32 8.48418 2258.75 7.58466 2258.75 6.8061V5.3899H2257.26H2255.76V3.89076V2.39161H2253.26H2250.76V1.39216C2250.76 0.842471 2250.08 0.39277 2249.26 0.39277C2248.43 0.39277 2247.76 0.842471 2247.76 1.39216V2.39161H2195.77H2143.78V1.39216V0.39277H2141.28H2138.78V1.39216ZM595.121 19.382C595.121 19.9317 596.012 20.3814 597.101 20.3814C598.19 20.3814 601.001 21.145 603.349 22.0785C605.697 23.011 608.181 24.3282 608.868 25.0048C609.556 25.6814 610.118 26.7169 610.118 27.3065C610.118 27.8952 610.6 28.3769 611.189 28.3769C611.779 28.3769 612.903 29.0196 613.688 29.8051C614.474 30.5897 615.117 31.7141 615.117 32.3037C615.117 32.8924 615.792 33.3741 616.617 33.3741H618.116V37.3718V41.3696H619.031H619.945L620.648 48.8653C621.035 52.988 621.714 56.3611 622.159 56.3611H622.968L623.568 65.1061C623.898 69.9164 624.408 79.424 624.701 86.2352L625.233 98.6191L624.174 99.6776L623.115 100.736V108.948V117.16L621.943 117.55L620.771 117.941L620.324 124.13L619.876 130.319H618.996C618.512 130.319 618.116 131.444 618.116 132.818V135.316H616.617H615.117V137.386C615.117 138.526 614.474 140.1 613.688 140.884C612.903 141.67 611.779 142.312 611.189 142.312C610.6 142.312 610.118 142.879 610.118 143.571C610.118 144.263 609.238 145.38 608.162 146.051C607.087 146.723 604.387 147.562 602.164 147.918C599.94 148.274 598.121 148.957 598.121 149.436V150.308H591.622H585.124V149.308C585.124 148.759 584.486 148.309 583.707 148.309C582.928 148.309 582.062 148.872 581.783 149.558L581.276 150.808L580.45 149.808C579.996 149.259 578.125 148.021 576.293 147.06C574.463 146.098 572.325 145.311 571.546 145.311H570.127V143.812C570.127 142.987 569.645 142.312 569.056 142.312C568.466 142.312 567.341 141.67 566.557 140.884C565.771 140.1 565.128 138.975 565.128 138.386C565.128 137.797 564.453 137.315 563.628 137.315H562.129V133.318V129.32H561.129H560.129V126.892C560.129 125.558 559.454 123.791 558.629 122.966C557.804 122.142 557.13 120.573 557.13 119.48C557.13 118.387 557.693 117.231 558.379 116.91L559.629 116.327L558.379 115.745L557.13 115.161V110.307V105.451L556.13 104.834L555.13 104.216V82.7871V61.3583H556.13H557.13V52.863V44.3679H558.05C558.556 44.3679 559.267 43.0186 559.629 41.3696C559.991 39.7205 560.702 38.3713 561.208 38.3713H562.129V34.9811V31.5921L564.561 30.9815L566.995 30.3708L567.612 28.4259C567.951 27.3555 569.106 26.2022 570.178 25.8624C571.25 25.5226 572.126 24.8249 572.126 24.3122C572.126 23.7995 572.764 23.3798 573.543 23.3798C574.322 23.3798 575.124 22.886 575.325 22.2824L575.692 21.184L580.408 20.6533C583.001 20.3604 585.124 19.7298 585.124 19.2521V18.3826H590.122H595.121V19.382ZM939.795 22.914C942.133 23.2858 944.044 23.9434 944.044 24.3762C944.044 24.8079 945.162 25.4425 946.529 25.7853L949.013 26.408L949.636 28.8916C949.979 30.2578 950.596 31.3752 951.008 31.3752C951.419 31.3752 952.115 34.6364 952.554 38.6211C952.992 42.6058 953.351 46.9914 953.351 48.3656C953.351 49.7398 952.988 54.2373 952.544 58.3599L951.737 65.8557L949.39 68.0565C948.1 69.2668 947.044 70.9049 947.044 71.6964V73.1346L944.544 73.7623C943.17 74.1071 942.045 74.8306 942.045 75.3693V76.3498H938.629H935.213L934.819 77.5291L934.427 78.7084L928.488 79.0742C925.222 79.2741 921.2 79.1941 919.55 78.8963L916.551 78.3536L916.832 51.29L917.113 24.2273L918.332 22.7971L919.55 21.3669L927.548 21.8026C931.947 22.0425 937.458 22.5422 939.795 22.914ZM1311.96 22.3803V23.3798H1317.96H1323.96V24.4102C1323.96 24.9778 1324.75 25.7394 1325.71 26.1032C1326.67 26.468 1328.02 27.3215 1328.71 28.0001C1329.4 28.6787 1329.96 30.1649 1329.96 31.3043C1329.96 32.4426 1330.37 33.3741 1330.87 33.3741C1331.36 33.3741 1332.08 35.6228 1332.46 38.3713C1332.84 41.1197 1333.55 43.3684 1334.05 43.3684H1334.96V49.436V55.5046L1333.46 57.0037C1332.63 57.8283 1331.96 59.5953 1331.96 60.9295V63.3571H1330.96H1329.96V65.9266C1329.96 67.3408 1329.32 69.1398 1328.53 69.9244C1327.75 70.7099 1326.82 71.3526 1326.48 71.3526C1326.14 71.3526 1324.82 72.477 1323.55 73.8512L1321.23 76.3498H1318.56C1317.09 76.3498 1314.83 77.0434 1313.54 77.8909L1311.19 79.432L1302.83 79.1402C1298.23 78.9803 1294.58 78.5115 1294.72 78.0988C1294.86 77.686 1294.97 65.2751 1294.97 50.5174V23.6856L1297.22 22.6002C1298.45 22.0045 1302.28 21.4858 1305.71 21.4488L1311.96 21.3809V22.3803ZM1505.92 22.3803V23.3798H1509.49H1513.06L1514.49 24.8079C1515.28 25.5925 1515.92 26.7169 1515.92 27.3065C1515.92 27.8952 1516.4 28.3769 1516.99 28.3769C1517.58 28.3769 1518.64 28.9536 1519.34 29.6592C1520.05 30.3648 1520.97 32.5016 1521.38 34.4065C1521.8 36.3124 1522.35 42.315 1522.6 47.747L1523.05 57.6224L1521.99 58.6907C1521.4 59.2784 1520.92 61.0794 1520.92 62.6925V65.6268L1518.42 67.9426C1517.04 69.2159 1515.92 70.9448 1515.92 71.7853V73.3135L1513.42 73.9401C1512.04 74.2849 1510.92 74.9685 1510.92 75.4583C1510.92 75.949 1509.88 76.3498 1508.62 76.3498C1507.36 76.3498 1505.77 76.9015 1505.09 77.5751L1503.87 78.7994L1493.4 79.1871L1482.93 79.575V52.976V26.3781H1483.93C1484.48 26.3781 1484.93 25.7034 1484.93 24.8789V23.3798H1486.43C1487.25 23.3798 1487.92 22.93 1487.92 22.3803V21.3809H1496.92H1505.92V22.3803ZM1819.44 48.8653C1819.79 50.2395 1820.47 51.3639 1820.96 51.3639C1821.45 51.3639 1821.85 52.6772 1821.85 54.2813C1821.85 55.8854 1822.64 58.6968 1823.6 60.5277C1824.56 62.3587 1825.69 64.0067 1826.1 64.1896C1826.51 64.3735 1826.85 65.7988 1826.85 67.3569C1826.85 68.916 1827.64 71.6894 1828.6 73.5204C1829.56 75.3514 1830.69 76.9994 1831.1 77.1823C1831.51 77.3662 1831.85 79.0522 1831.85 80.9302V84.3453H1833.35H1834.85V86.8438C1834.85 88.218 1835.24 89.3424 1835.72 89.3424C1836.2 89.3424 1836.88 91.1414 1837.23 93.3402L1837.87 97.3379H1838.86C1839.4 97.3379 1839.85 97.7877 1839.85 98.3373V99.3368H1819.28H1798.72L1799.42 97.088C1799.81 95.8517 1800.51 94.6894 1800.99 94.5065C1801.46 94.3226 1801.86 92.6366 1801.86 90.7586V87.3436H1802.75C1803.24 87.3436 1803.92 86.2192 1804.27 84.845C1804.61 83.4708 1805.33 82.3464 1805.87 82.3464H1806.85V78.7774V75.2074L1808.35 73.7083C1809.18 72.8837 1809.85 71.3416 1809.85 70.2822C1809.85 69.2218 1810.3 68.3543 1810.85 68.3543H1811.85V64.8563V61.3583H1812.83C1813.37 61.3583 1814.1 60.2339 1814.44 58.8597C1814.79 57.4855 1815.47 56.3611 1815.96 56.3611H1816.85V51.3639V46.3668H1817.83C1818.37 46.3668 1819.1 47.4911 1819.44 48.8653Z" fill="#0B0B0B" style="fill:#0B0B0B;fill:color(display-p3 0.0433 0.0418 0.0418);fill-opacity:1;"/>
</svg>
