<svg width="2262" height="171" viewBox="0 0 2262 171" fill="none" xmlns="http://www.w3.org/2000/svg">
<path fill-rule="evenodd" clip-rule="evenodd" d="M55.99 0.20057L49.2415 0.495431V1.4499V2.40333H45.8492H42.457L41.8811 3.90247L41.3062 5.40162H38.14H34.9737L32.6571 7.90022C31.3834 9.27444 30.0757 10.3988 29.7518 10.3988C29.4269 10.3988 28.4841 10.9615 27.6562 11.6481C26.8284 12.3357 25.6097 13.4811 24.9489 14.1946C24.288 14.9082 23.2972 15.9267 22.7473 16.4584C22.1975 16.9911 20.5098 18.5222 18.9982 19.8615C17.4865 21.2007 16.2488 22.9927 16.2488 23.8432V25.3903H14.7491H13.2494V27.8889V30.3875H12.2497C11.6998 30.3875 11.2499 30.8692 11.2499 31.4579C11.2499 32.0476 10.575 33.2039 9.75021 34.0285C8.9254 34.853 8.25055 36.62 8.25055 37.9542V40.3818H7.25076C6.70088 40.3818 6.25098 41.2264 6.25098 42.2588C6.25098 43.2902 5.57613 44.6944 4.75131 45.379L3.25165 46.6233V53.9132V61.2031L2.09888 61.5879L0.947144 61.9716L0.86618 82.8309L0.785156 103.69L2.01889 104.102L3.25165 104.513V112.233V119.955L4.7193 121.895C5.52712 122.961 6.20197 124.622 6.21896 125.584C6.23696 126.545 6.70088 127.333 7.25076 127.333H8.25055V130.331V133.329H9.75021H11.2499V135.328C11.2499 136.428 11.6998 137.327 12.2497 137.327H13.2494V139.857V142.387L14.7491 142.962C15.5739 143.279 16.2488 143.971 16.2488 144.501C16.2488 145.032 16.8117 146.092 17.4985 146.859C18.1864 147.624 19.2891 148.83 19.95 149.535C20.6108 150.242 21.8296 151.382 22.6574 152.069C23.4852 152.756 24.6319 153.318 25.2048 153.318C25.7777 153.318 26.2466 153.993 26.2466 154.817C26.2466 155.642 26.8145 156.316 27.5093 156.316C28.2032 156.316 29.6158 157.441 30.6486 158.815L32.5252 161.313H34.3018C35.2786 161.313 36.2274 161.65 36.4113 162.063C36.5943 162.476 38.2429 163.6 40.0745 164.562C41.9061 165.523 44.6805 166.311 46.2401 166.311H49.0746L49.4594 167.465L49.8444 168.618L62.2906 169.549L74.7359 170.478L86.4833 169.244C92.9439 168.565 98.2307 167.693 98.2307 167.305C98.2307 166.917 101.487 166.328 105.466 165.994L112.702 165.388L113.048 164.35C113.238 163.779 114.291 163.312 115.387 163.312H117.38L120.457 160.237L123.533 157.161L124.001 152.298C124.258 149.622 124.168 145.834 123.802 143.879L123.134 140.325H118.181H113.227V141.325V142.324H110.697H108.166L107.591 143.823L107.015 145.323H105.205C104.21 145.323 103.247 145.768 103.063 146.312L102.73 147.301L96.4811 147.954C93.0449 148.312 90.2325 148.991 90.2325 149.462V150.32H80.2347H70.2369V149.449C70.2369 148.97 67.9874 148.28 65.238 147.915L60.2391 147.252V146.288C60.2391 145.757 59.5642 145.323 58.7394 145.323C57.9146 145.323 57.2397 144.903 57.2397 144.39C57.2397 143.877 56.2749 143.153 55.0962 142.778C53.9165 142.404 51.667 140.784 50.0973 139.178C48.5267 137.573 47.2419 135.648 47.2419 134.901C47.2419 134.154 46.5671 133.284 45.7423 132.967L44.2426 132.393V130.362C44.2426 129.246 43.7927 128.332 43.2428 128.332H42.243V125.405V122.478L40.7434 120.979C39.9186 120.155 39.2437 118.324 39.2437 116.91C39.2437 115.496 38.8618 114.34 38.3949 114.34H37.5451L36.9372 103.61L36.3293 92.8802L35.2876 92.5334L34.2448 92.1856V79.3598V66.5341L35.3736 66.1572L36.5013 65.7815L37.0092 56.08L37.5171 46.3785H38.3799C38.8548 46.3785 39.2437 45.7038 39.2437 44.8793C39.2437 44.0547 39.6516 43.3801 40.1495 43.3801C40.6484 43.3801 41.3652 41.1314 41.7432 38.383C42.1211 35.6346 42.8379 33.3858 43.3368 33.3858C43.8347 33.3858 44.2426 32.7502 44.2426 31.9726C44.2426 31.195 45.8093 28.9463 47.7238 26.9754L51.2061 23.3915H53.1006C54.1424 23.3915 55.5551 22.7168 56.24 21.8923L57.4847 20.3931H59.8612H62.2386V19.3937V18.3943H67.2375H72.2365V19.2658C72.2365 19.7455 74.036 20.4251 76.2356 20.7769L80.2347 21.4166V22.4041V23.3915H82.7341H85.2336V24.4619C85.2336 25.0515 85.7965 26.1599 86.4833 26.9265C87.1712 27.692 88.2959 28.9903 88.9828 29.8108C89.6706 30.6313 90.2325 32.4464 90.2325 33.8436V36.3841H91.2323C91.7821 36.3841 92.232 37.1837 92.232 38.1611C92.232 39.1386 93.1368 40.7127 94.2426 41.6591L96.2542 43.3801H108.739H121.226V42.3807V41.3813H123.725H126.225V35.4656V29.5499L124.475 26.2669C123.513 24.4609 122.275 22.416 121.726 21.7224C121.176 21.0298 120.164 19.7916 119.476 18.971C118.789 18.1505 118.226 17.201 118.226 16.8602C118.226 16.5204 116.912 14.9272 115.304 13.3201L112.382 10.3988H110.305H108.229V8.89967V7.40052H106.729C105.904 7.40052 105.229 7.00076 105.229 6.51203C105.229 6.02431 103.655 5.32864 101.73 4.96784C99.8054 4.60705 98.2307 3.8825 98.2307 3.3578V2.40333H94.3146H90.3994L90.0655 1.46186L89.7326 0.521432L76.2356 0.212533C68.8122 0.0436287 59.7012 0.0376624 55.99 0.20057ZM578.875 0.180612L567.127 0.467416V1.43586V2.40333H564.628H562.129V3.90247V5.40162H558.629H555.13V6.40107C555.13 6.95076 554.441 7.40052 553.599 7.40052C552.757 7.40052 551.809 8.07513 551.493 8.89967L550.917 10.3988H548.953C547.873 10.3988 546.346 11.0415 545.561 11.827C544.775 12.6116 544.133 13.736 544.133 14.3256C544.133 14.9143 543.651 15.396 543.062 15.396C542.472 15.396 541.347 16.0386 540.562 16.8242C539.777 17.6087 539.134 18.7331 539.134 19.3228C539.134 19.9114 538.459 20.3931 537.634 20.3931H536.134V21.8923C536.134 22.7168 535.684 23.3915 535.135 23.3915H534.135V25.89V28.3886H533.064C532.474 28.3886 531.349 29.0313 530.565 29.8168L529.136 31.244V34.814V38.383H527.636H526.136V43.3801V48.3773H525.279C524.808 48.3773 524.128 51.1887 523.77 54.6238L523.117 60.8702L522.127 61.2031L521.138 61.5369V84.0062V106.475L522.209 108.477C522.798 109.578 523.475 113.034 523.712 116.157L524.144 121.836L525.14 122.169L526.136 122.502V126.225V129.949L527.604 131.889C528.412 132.956 529.087 134.617 529.104 135.578C529.122 136.539 529.586 137.327 530.136 137.327C530.685 137.327 531.135 138.002 531.135 138.826V140.325H532.635H534.135V142.824V145.323H535.135C535.684 145.323 536.134 145.997 536.134 146.822V148.321H537.634C538.459 148.321 539.134 148.803 539.134 149.391C539.134 149.981 539.777 151.105 540.562 151.89C541.347 152.675 542.472 153.318 543.062 153.318C543.651 153.318 544.133 153.8 544.133 154.388C544.133 154.978 544.775 156.102 545.561 156.887C546.346 157.672 547.718 158.315 548.608 158.315C549.498 158.315 551.218 159.353 552.429 160.62C553.639 161.887 556.67 163.686 559.162 164.618C561.656 165.549 564.43 166.311 565.328 166.311C566.226 166.311 567.113 166.768 567.3 167.328L567.639 168.344L579.131 169.363L590.622 170.381L601.62 169.298L612.617 168.214L612.95 167.262C613.134 166.738 614.11 166.311 615.119 166.311C616.129 166.311 618.453 165.523 620.285 164.562C622.116 163.6 623.765 162.476 623.948 162.063C624.132 161.65 625.158 161.313 626.229 161.313H628.177L628.752 159.814L629.328 158.315H631.22C632.261 158.315 633.113 157.865 633.113 157.316C633.113 156.766 633.788 156.316 634.613 156.316H636.112V154.817V153.318H637.612C638.437 153.318 639.112 152.848 639.112 152.274C639.112 151.699 640.236 150.104 641.611 148.73C642.986 147.355 644.11 145.741 644.11 145.142C644.11 144.543 645.235 143.011 646.61 141.737L649.109 139.421V136.459C649.109 134.829 649.447 133.346 649.859 133.162C650.271 132.979 651.396 131.331 652.359 129.5L654.108 126.171V119.339V112.508L655.259 112.124L656.41 111.74L656.883 106.045L657.356 100.348H658.231H659.107V87.3553V74.3626H658.248H657.39L656.846 65.6495L656.302 56.9375L655.205 56.5717L654.108 56.2059V49.7935V43.3801H653.217C652.727 43.3801 652.043 42.2558 651.698 40.8815C651.353 39.5073 650.629 38.383 650.09 38.383H649.109V34.75V31.1161L646.61 28.8004C645.235 27.5271 644.11 25.8521 644.11 25.0785C644.11 24.3049 642.986 22.8268 641.611 21.7954C640.236 20.7629 639.112 19.3507 639.112 18.6571C639.112 17.9625 638.63 17.3948 638.041 17.3948C637.451 17.3948 636.386 16.8122 635.673 16.0986C634.959 15.386 634.062 13.8119 633.678 12.6006L632.978 10.3988H630.547H628.114V8.89967V7.40052H625.615C624.24 7.40052 623.115 6.9997 623.115 6.50898C623.115 6.01926 621.99 5.33566 620.616 4.99085C619.241 4.64605 618.116 3.92249 618.116 3.3838V2.40333H614.7C612.821 2.40333 611.135 2.02155 610.951 1.55482L610.618 0.706308L600.62 0.299569C595.121 0.0756959 585.335 0.0217016 578.875 0.180612ZM212.206 1.40388V2.40333H203.767H195.327L194.709 3.40278C194.37 3.95247 192.656 4.40919 190.901 4.41718C189.147 4.42618 187.099 4.81998 186.352 5.29371L184.994 6.15418L184.493 10.5937L183.993 15.0342L185.673 16.7142L187.354 18.3943H191.281H195.209V19.3937V20.3931H198.638H202.065L203.387 21.8574C204.112 22.6629 205.27 23.9931 205.957 24.8136L207.207 26.3059V95.5866V164.867L209.217 166.588L211.229 168.309H259.206H307.185V167.239C307.185 166.649 307.86 165.493 308.684 164.669L310.184 163.169V155.746V148.321H311.184H312.184V138.345V128.37L309.684 127.743C308.309 127.399 307.185 126.715 307.185 126.225C307.185 125.735 306.028 125.334 304.614 125.334C303.2 125.334 301.4 125.976 300.615 126.762C299.829 127.547 299.186 128.671 299.186 129.261C299.186 129.849 298.796 130.331 298.317 130.331C297.839 130.331 297.208 132.453 296.915 135.045L296.384 139.76L295.285 140.126C294.682 140.327 294.188 140.936 294.188 141.48C294.188 142.022 293.545 143.11 292.759 143.894C291.974 144.68 290.886 145.323 290.343 145.323C289.8 145.323 289.182 145.843 288.97 146.479L288.584 147.635L270.519 148.11C260.584 148.37 249.922 148.267 246.827 147.88L241.199 147.177V74.7904V2.40333H239.7C238.875 2.40333 238.2 1.95357 238.2 1.40388V0.404489H225.203H212.206V1.40388ZM411.162 1.40388V2.40333H400.223H389.285L388.667 3.40278C388.327 3.95247 386.388 4.40815 384.359 4.41615C382.329 4.42314 379.656 4.70106 378.419 5.03187L376.17 5.63447V10.5158V15.396H377.169C377.719 15.396 378.169 16.0706 378.169 16.8952V18.3943H382.168H386.167V19.3937V20.3931H390.121H394.075L396.62 22.9367L399.164 25.4813V27.9338V30.3875H400.164H401.164V92.8522V155.317H400.164H399.164V157.815V160.314H400.164H401.164V162.731C401.164 164.06 401.437 165.859 401.771 166.728L402.378 168.309H415.839H429.301L430.728 166.881C431.514 166.097 432.157 164.972 432.157 164.383C432.157 163.794 432.607 163.312 433.157 163.312H434.157V84.357V5.40162H433.157C432.607 5.40162 432.157 4.91991 432.157 4.33125C432.157 3.74158 431.514 2.61721 430.728 1.83265L429.301 0.404489H420.231H411.162V1.40388ZM866.062 1.40388V2.40333H863.669H861.277L860.67 3.98438C860.336 4.85389 860.063 7.0657 860.063 8.89967C860.063 10.7336 860.336 12.9454 860.67 13.8149C861.004 14.6844 862.016 15.4099 862.919 15.4279C863.823 15.4449 865.436 16.1195 866.503 16.9271L868.443 18.3943H872.74H877.036L879.048 20.1153L881.058 21.8363V86.078V150.32H882.058H883.058V157.594V164.867L885.068 166.588L887.08 168.309H899.137H911.195L912.622 166.881C913.408 166.097 914.051 165.009 914.051 164.467C914.051 163.923 914.614 163.291 915.301 163.062L916.551 162.646L916.765 131.247C916.882 113.978 916.994 99.3095 917.014 98.6519L917.05 97.4545L930.797 97.0578C938.359 96.8399 948.031 96.0513 952.293 95.3068C956.555 94.5622 960.041 93.5928 960.041 93.153C960.041 92.7123 961.166 92.3524 962.54 92.3524H965.04V90.8533V89.3541H967.539H970.039V88.3547C970.039 87.805 970.714 87.3553 971.538 87.3553H973.038V85.8561C973.038 85.0316 973.52 84.357 974.109 84.357C974.699 84.357 975.824 83.7143 976.608 82.9288C977.394 82.1442 978.037 81.2227 978.037 80.8829C978.037 80.5421 979.162 79.2219 980.536 77.9486C981.911 76.6743 983.036 74.8654 983.036 73.9269C983.036 72.9884 983.711 71.5462 984.536 70.7217L986.035 69.2225V65.2968V61.37H987.035H988.035V49.8765V38.383H987.035H986.035V34.4562V30.5304L984.536 29.0313C983.711 28.2067 983.036 27.0504 983.036 26.4607C983.036 25.872 982.616 25.3903 982.103 25.3903C981.59 25.3903 980.858 24.4069 980.478 23.2045C980.096 22.0032 978.266 19.5886 976.41 17.8396C974.556 16.0916 973.038 14.1507 973.038 13.5291C973.038 12.9064 972.363 12.3977 971.538 12.3977C970.714 12.3977 970.039 11.948 970.039 11.3983C970.039 10.8486 969.187 10.3988 968.146 10.3988H966.254L965.678 8.89967L965.103 7.40052H962.571H960.041V6.40107V5.40162H957.733C956.463 5.40162 954.551 4.741 953.483 3.93446L951.543 2.46729L911.302 2.43531L871.061 2.40333V1.40388V0.404489H868.561H866.062V1.40388ZM1053.27 1.89961C1052.58 2.68016 1052.02 3.78756 1052.02 4.36024C1052.02 4.93291 1051.35 5.40162 1050.52 5.40162H1049.02L1049.04 9.14954C1049.05 11.2114 1049.38 13.3511 1049.79 13.9048C1050.19 14.4595 1052.77 15.6978 1055.52 16.6583C1058.27 17.6187 1061.75 18.4023 1063.26 18.3993L1065.99 18.3943L1068.01 20.1153L1070.02 21.8363V24.113C1070.02 25.3653 1070.47 26.3898 1071.02 26.3898H1072.02V96.3502V166.311H1073.52C1074.34 166.311 1075.02 166.76 1075.02 167.31V168.309H1121.01H1167V167.418C1167 166.928 1168.12 166.245 1169.49 165.9L1171.99 165.273V146.303V127.333H1170.49C1169.67 127.333 1168.99 126.883 1168.99 126.333V125.334H1165.42H1161.85L1160.43 126.762C1159.64 127.547 1159 128.671 1159 129.261C1159 129.849 1158.4 130.331 1157.67 130.331H1156.35L1156.21 135.759L1156.07 141.187L1152.82 144.504L1149.58 147.821H1129.48H1109.38L1107.64 146.092L1105.91 144.363L1105.84 117.108L1105.78 89.8539L1120.8 89.578L1135.81 89.3032L1137.33 90.8273C1138.17 91.6669 1139.34 92.3524 1139.93 92.3524H1141V94.3513C1141 95.4507 1141.39 96.3502 1141.87 96.3502C1142.35 96.3502 1142.96 98.5409 1143.21 101.218L1143.68 106.087L1145.72 108.277L1147.77 110.468L1152.13 110.155L1156.5 109.843L1156.81 107.094C1156.99 105.582 1157.55 104.346 1158.06 104.346H1159V81.3587V58.3717H1158C1157.45 58.3717 1157 57.5721 1157 56.5947C1157 55.6172 1156.09 54.0431 1154.99 53.0966C1153.88 52.1502 1152.53 51.3756 1151.99 51.3756C1151.44 51.3756 1151 51.8254 1151 52.3751C1151 52.9248 1149.99 53.3815 1148.75 53.3895C1147.51 53.3985 1145.99 53.7353 1145.38 54.1391C1144.76 54.5429 1143.93 56.3348 1143.55 58.1218C1143.16 59.9088 1142.43 61.37 1141.92 61.37H1141V64.751V68.1332L1138.75 68.7358C1137.51 69.0666 1130.54 69.3445 1123.26 69.3515L1110.01 69.3654V70.3649C1110.01 70.9146 1109.11 71.3643 1108.01 71.3643H1106.01L1105.94 70.1151C1105.9 69.4284 1105.93 58.7974 1106 46.4924L1106.14 24.1191L1107.5 22.7558L1108.87 21.3926H1121.92H1134.97L1141.98 22.5959L1149 23.7982V24.7267C1149 25.2374 1149.98 26.5017 1151.17 27.5351L1153.34 29.4161L1153.81 35.1118L1154.28 40.8076L1155.82 42.3438L1157.35 43.8799H1161.5H1165.64L1167.44 42.0748L1169.25 40.2709L1169.07 24.1121L1168.89 7.95319L1168.06 7.42652C1167.6 7.13769 1167.06 6.0013 1166.85 4.90193L1166.48 2.90302L1162.74 2.59321L1159 2.28242V1.34394V0.404489H1116.51H1074.02V1.40388V2.40333H1066.52H1059.02V1.40388V0.404489L1056.77 0.442453C1055.53 0.463441 1053.96 1.11905 1053.27 1.89961ZM1242.98 1.40388C1242.98 1.95357 1242.3 2.40333 1241.48 2.40333H1239.98V3.90247C1239.98 4.72701 1239.53 5.40162 1238.98 5.40162H1237.98V7.90022C1237.98 9.27444 1238.38 10.3988 1238.87 10.3988C1239.36 10.3988 1240.05 11.5232 1240.39 12.8974L1241.02 15.396H1242.8C1243.78 15.396 1245.05 15.8717 1245.64 16.4534C1246.22 17.0341 1249.23 17.7717 1252.33 18.0915C1255.44 18.4123 1257.98 19.0609 1257.98 19.5336C1257.98 20.0064 1258.65 20.3931 1259.47 20.3931H1260.97V92.3524V164.312H1261.91C1262.42 164.312 1263.13 165.211 1263.47 166.311L1264.11 168.309H1276.54H1288.97V167.31V166.311H1291.36H1293.75L1294.44 163.562C1294.83 162.05 1295.08 148.827 1295.01 134.176L1294.89 107.537L1296.18 107.066L1297.47 106.594L1296.22 105.27C1295.53 104.542 1294.97 103.104 1294.97 102.076C1294.97 101.047 1295.58 99.5884 1296.34 98.8348L1297.71 97.4645L1310.58 97.0098C1317.67 96.7589 1327.17 95.9954 1331.71 95.3108C1336.25 94.6272 1339.96 93.6816 1339.96 93.2099C1339.96 92.7382 1340.63 92.3524 1341.46 92.3524C1342.28 92.3524 1342.96 91.9027 1342.96 91.353C1342.96 90.8033 1343.6 90.3536 1344.39 90.3536C1345.17 90.3536 1346.43 89.738 1347.18 88.9864C1347.93 88.2338 1349.54 87.3043 1350.75 86.9205C1351.96 86.5358 1352.95 85.8021 1352.95 85.2894C1352.95 84.7767 1353.44 84.357 1354.03 84.357C1354.62 84.357 1355.74 83.7143 1356.52 82.9288C1357.31 82.1442 1357.95 81.0198 1357.95 80.4302C1357.95 79.8415 1358.39 79.3598 1358.93 79.3598C1359.47 79.3598 1360.2 78.2354 1360.54 76.8612C1360.89 75.487 1361.57 74.3626 1362.06 74.3626H1362.95V70.9716V67.5805L1364.45 67.0048L1365.95 66.4301V62.9001V59.3711H1366.95H1367.95V50.3762V41.3813H1366.95H1365.95V37.3836V33.3858H1364.45H1362.95V29.8878V26.3898H1361.95C1361.4 26.3898 1360.95 25.7012 1360.95 24.8596C1360.95 24.0171 1360.28 23.0696 1359.45 22.7538C1358.63 22.437 1357.95 21.5635 1357.95 20.8119C1357.95 20.0613 1355.92 17.4108 1353.43 14.9222L1348.9 10.3988H1346.93C1345.84 10.3988 1344.96 9.95804 1344.96 9.41834C1344.96 8.87965 1343.83 8.15609 1342.46 7.81129C1341.08 7.46648 1339.96 6.85687 1339.96 6.4571C1339.96 6.05633 1337.26 4.9809 1333.97 4.06642L1327.99 2.40333H1291.98H1255.98V1.40388V0.404489H1249.48H1242.98V1.40388ZM1429.57 2.65321C1429.24 3.88951 1428.97 6.70091 1428.97 8.89967C1428.97 11.0984 1429.3 13.4091 1429.7 14.0347C1430.11 14.6594 1432.18 15.8967 1434.31 16.7832L1438.18 18.3943H1442.96H1447.74L1448.84 21.5415L1449.93 24.6887V94.981V165.273L1452.43 165.9C1453.81 166.245 1454.93 166.928 1454.93 167.418V168.309H1467.5H1480.07L1481.5 166.881L1482.93 165.454V131.45V97.4476L1498.17 97.0588L1513.42 96.67L1521.17 95.3118C1525.43 94.5642 1528.92 93.5928 1528.92 93.153C1528.92 92.7123 1530.04 92.3524 1531.42 92.3524H1533.91V91.372C1533.91 90.8333 1535.04 90.1097 1536.41 89.7649C1537.79 89.4201 1538.91 88.7365 1538.91 88.2468C1538.91 87.7561 1539.59 87.3553 1540.41 87.3553H1541.91V85.8561C1541.91 85.0316 1542.39 84.357 1542.98 84.357C1543.57 84.357 1544.7 83.7143 1545.48 82.9288C1546.27 82.1442 1546.91 81.0198 1546.91 80.4302C1546.91 79.8415 1547.42 79.3598 1548.05 79.3598C1548.68 79.3598 1549.79 78.5722 1550.52 77.6108C1551.25 76.6493 1551.86 75.0423 1551.88 74.0418C1551.9 73.0404 1552.59 71.5462 1553.41 70.7217C1554.24 69.8972 1554.91 68.1302 1554.91 66.7959V64.3683H1555.91H1556.91V49.8765V35.3847H1556.02C1555.54 35.3847 1554.83 33.3608 1554.46 30.8872C1554.09 28.4136 1553.37 26.3898 1552.85 26.3898C1552.33 26.3898 1551.91 25.919 1551.91 25.3424C1551.91 24.7667 1550.79 23.2536 1549.41 21.9803C1548.04 20.706 1546.91 19.1539 1546.91 18.5292C1546.91 17.9056 1546.43 17.3948 1545.84 17.3948C1545.25 17.3948 1544.13 16.7522 1543.34 15.9666C1542.56 15.1821 1541.91 14.0578 1541.91 13.4681C1541.91 12.8794 1541.24 12.3977 1540.41 12.3977C1539.59 12.3977 1538.91 11.948 1538.91 11.3983C1538.91 10.8486 1538.24 10.3988 1537.41 10.3988C1536.59 10.3988 1535.91 9.95804 1535.91 9.41834C1535.91 8.87965 1534.79 8.15609 1533.41 7.81129C1532.04 7.46648 1530.92 6.78288 1530.92 6.29316C1530.92 5.80244 1530.07 5.40162 1529.04 5.40162C1528 5.40162 1525.55 4.72701 1523.57 3.90247L1519.98 2.40333H1479.96H1439.94V1.40388V0.404489H1435.05H1430.17L1429.57 2.65321ZM1653.89 1.25202V2.10053L1639.32 2.78816L1624.75 3.47669L1622.82 4.67902L1620.9 5.88239V10.7106V15.5389L1622.32 16.9661L1623.75 18.3943H1627.32H1630.89V19.3937V20.3931H1634.24H1637.59L1639.99 23.5214L1642.39 26.6506L1642.89 95.8025L1643.39 164.955L1645.07 166.632L1646.75 168.309H1661.82H1676.88V85.3564V2.40333H1675.38C1674.56 2.40333 1673.88 1.95357 1673.88 1.40388V0.404489H1663.89H1653.89V1.25202ZM1793.86 1.34394V2.28242L1790.11 2.59321L1786.36 2.90302L1786.07 9.0146L1785.77 15.1261L1789.81 15.7728L1793.86 16.4194V17.4069V18.3943H1797.43H1801L1802.43 19.8225C1803.21 20.6071 1803.86 22.1811 1803.86 23.3205C1803.86 24.4589 1803.41 25.3903 1802.86 25.3903H1801.86V27.9199V30.4504L1800.36 31.0252L1798.86 31.6008V36.491V41.3813H1797.88C1797.34 41.3813 1796.61 42.5057 1796.27 43.8799C1795.92 45.2541 1795.24 46.3785 1794.75 46.3785H1793.86V49.8765V53.3745H1792.87H1791.88L1791.24 57.3723C1790.89 59.571 1790.21 61.37 1789.73 61.37C1789.25 61.37 1788.86 62.4943 1788.86 63.8685C1788.86 65.2428 1788.46 66.3671 1787.97 66.3671C1787.48 66.3671 1786.79 67.4915 1786.45 68.8657C1786.1 70.24 1785.38 71.3643 1784.84 71.3643H1783.86V76.2546V81.1448L1782.36 81.7205L1780.86 82.2952V85.8251V89.3541H1779.86H1778.86V92.2815V95.2078L1777.36 96.707C1776.54 97.5315 1775.86 99.1376 1775.86 100.277C1775.86 101.415 1775.43 102.347 1774.91 102.347C1774.38 102.347 1773.66 103.926 1773.29 105.856C1772.93 107.786 1772.24 109.612 1771.75 109.913C1771.26 110.213 1770.86 111.97 1770.86 113.816C1770.86 115.661 1770.52 117.321 1770.11 117.505C1769.7 117.688 1768.58 119.336 1767.61 121.167C1766.65 122.998 1765.86 125.809 1765.86 127.414V130.331H1764.91C1764.38 130.331 1763.66 131.905 1763.3 133.829C1762.94 135.753 1762.24 137.327 1761.75 137.327H1760.86V141.325V145.323H1759.36H1757.87V148.321V151.319H1756.87H1755.87V154.817V158.315H1754.26H1752.65L1753.26 159.896C1753.59 160.766 1753.87 161.867 1753.87 162.343C1753.87 162.82 1754.93 164.357 1756.23 165.759L1758.59 168.309H1764.73H1770.86V167.31V166.311H1773.35H1775.84L1776.48 162.313C1776.83 160.114 1777.51 158.315 1777.99 158.315H1778.86V154.817V151.319H1779.78C1780.29 151.319 1781 149.97 1781.36 148.321C1781.72 146.672 1782.43 145.323 1782.94 145.323H1783.86V141.931V138.54L1785.36 137.965L1786.86 137.39V133.86V130.331H1787.86H1788.86V128.023C1788.86 126.754 1789.52 124.843 1790.33 123.776C1791.13 122.709 1791.81 121.097 1791.83 120.194C1791.84 119.29 1792.57 118.279 1793.44 117.945C1794.31 117.611 1806.62 117.338 1820.81 117.338H1846.59L1847.23 121.336L1847.87 125.334H1848.86H1849.84V128.251C1849.84 129.855 1850.63 132.667 1851.59 134.498C1852.56 136.329 1853.68 137.977 1854.09 138.16C1854.51 138.343 1854.84 140.704 1854.84 143.407V148.321H1856.34H1857.84V150.819C1857.84 152.194 1858.24 153.318 1858.72 153.318C1859.19 153.318 1859.87 155.117 1860.23 157.316L1860.87 161.313H1861.85C1862.4 161.313 1862.84 162.204 1862.84 163.293V165.273L1865.34 165.9C1866.72 166.245 1867.84 166.928 1867.84 167.418V168.309H1879.34H1890.84V167.31C1890.84 166.76 1891.51 166.311 1892.34 166.311H1893.84V160.885V155.46L1892.34 153.961C1891.51 153.136 1890.84 151.53 1890.84 150.391C1890.84 149.252 1890.39 148.321 1889.84 148.321H1888.84V144.323V140.325H1887.34H1885.84V137.827V135.328H1884.84H1883.84V131.799V128.269L1882.34 127.694L1880.84 127.119V123.728V120.337H1879.84H1878.84V117.807V115.276L1877.34 114.702L1875.84 114.126V110.735C1875.84 108.87 1875.45 107.344 1874.97 107.344C1874.49 107.344 1873.81 105.545 1873.46 103.346L1872.82 99.3485H1871.83H1870.84V96.4312C1870.84 94.8271 1870.05 92.0157 1869.09 90.1847C1868.13 88.3537 1867 86.7056 1866.59 86.5227C1866.18 86.3388 1865.84 84.6528 1865.84 82.7748V79.3598H1864.92C1864.41 79.3598 1863.7 78.0106 1863.34 76.3615C1862.98 74.7125 1862.27 73.3632 1861.76 73.3632H1860.84V69.9361V66.5101L1859.34 65.0109C1858.52 64.1864 1857.84 62.5803 1857.84 61.4409C1857.84 60.3026 1857.39 59.3711 1856.84 59.3711H1855.84V55.4443V51.5186L1854.34 50.0194C1853.52 49.1949 1852.84 47.6147 1852.84 46.5084C1852.84 45.403 1852.45 44.2557 1851.98 43.9608C1851.5 43.666 1850.82 41.6151 1850.47 39.4044L1849.82 35.3847H1848.83C1848.29 35.3847 1847.85 34.5122 1847.85 33.4448C1847.85 32.3774 1847.45 31.258 1846.96 30.9572C1846.47 30.6563 1845.78 28.8304 1845.41 26.9005C1845.05 24.9706 1844.33 23.3915 1843.8 23.3915C1843.28 23.3915 1842.85 22.395 1842.85 21.1757C1842.85 19.9574 1842.11 17.0341 1841.21 14.6794C1840.31 12.3257 1839.19 10.3988 1838.71 10.3988C1838.24 10.3988 1837.85 9.27444 1837.85 7.90022V5.40162H1836.35H1834.85V3.90247V2.40333H1815.85H1796.86V1.40388C1796.86 0.854189 1796.18 0.404489 1795.36 0.404489C1794.53 0.404489 1793.86 0.827234 1793.86 1.34394ZM2061.8 1.40388V2.40333H2006.31H1950.82L1948.82 4.40223L1946.82 6.40107V19.8934V33.3858H1945.82H1944.82V36.3841V39.3824H1945.82C1946.37 39.3824 1946.82 40.246 1946.82 41.3024V43.2213L1949.7 43.8519C1951.27 44.1987 1953.75 44.1857 1955.19 43.8229L1957.82 43.1633V41.7731C1957.82 41.0075 1958.27 40.3818 1958.82 40.3818H1959.82V34.3853V28.3886H1960.89C1961.48 28.3886 1962.61 27.746 1963.39 26.9604C1964.18 26.1758 1964.82 25.1225 1964.82 24.6207C1964.82 24.118 1966.56 23.1866 1968.68 22.5499L1972.55 21.3926H1982.68H1992.81V93.4229V165.454L1994.24 166.881L1995.67 168.309H2009.17H2022.67L2023.37 166.108C2023.76 164.896 2024.69 163.281 2025.46 162.519L2026.84 161.132L2026.81 92.5114C2026.78 54.7707 2026.77 23.2975 2026.79 22.5709L2026.81 21.2506L2035.55 21.7474C2040.37 22.0202 2046.25 22.5529 2048.63 22.9307L2052.96 23.6163L2055.74 26.3278L2058.51 29.0393L2059.2 32.7122C2059.58 34.731 2060.32 36.3841 2060.84 36.3841H2061.8V39.7752V43.1663L2063.38 43.773C2064.25 44.1068 2066.4 44.3796 2068.16 44.3796H2071.35L2073.07 42.3698L2074.8 40.3588V22.8807V5.40162H2073.3H2071.8V3.90247V2.40333H2069.3H2066.8V1.40388V0.404489H2064.3H2061.8V1.40388ZM2138.78 1.40388C2138.78 1.95357 2137.76 2.40333 2136.5 2.40333H2134.23L2132.5 4.41316L2130.78 6.42408V18.4053V30.3875H2129.78H2128.78V34.3853V38.383H2129.78H2130.78V40.7676V43.1533L2135.11 43.8019C2137.49 44.1587 2140.19 44.1597 2141.12 43.8049C2142.04 43.4501 2143.07 42.0849 2143.4 40.7716C2143.73 39.4574 2144.34 38.383 2144.76 38.383C2145.18 38.383 2145.76 36.2612 2146.05 33.6686L2146.58 28.9543L2147.68 28.5875C2148.29 28.3866 2148.78 27.1803 2148.78 25.9071V23.5924L2153.53 22.9298C2156.14 22.566 2162.15 22.0402 2166.89 21.7624L2175.5 21.2576L2176.14 24.4489C2176.49 26.2029 2176.77 58.6065 2176.77 96.4561V165.273L2179.27 165.9C2180.65 166.245 2181.77 166.928 2181.77 167.418V168.309H2193.27H2204.77V167.418C2204.77 166.928 2205.89 166.245 2207.27 165.9L2209.77 165.273V93.244V21.2157L2220.51 21.7364C2226.42 22.0232 2233 22.568 2235.13 22.9487L2239.01 23.6393L2240.88 25.5143L2242.76 27.3892V31.3869V35.3847H2243.63C2244.11 35.3847 2244.79 37.1836 2245.14 39.3824L2245.78 43.3801H2247.57C2248.55 43.3801 2249.78 43.7819 2250.31 44.2727L2251.26 45.1641L2254.63 44.6395L2258.01 44.1148L2258.5 42.2488C2258.77 41.2214 2259.39 40.3818 2259.87 40.3818H2260.75V35.3847V30.3875H2259.75H2258.75V20.4761V10.5657L2260 9.98206L2261.25 9.39936L2260 8.81672C2259.32 8.4959 2258.75 7.59638 2258.75 6.81782V5.40162H2257.26H2255.76V3.90247V2.40333H2253.26H2250.76V1.40388C2250.76 0.854189 2250.08 0.404489 2249.26 0.404489C2248.43 0.404489 2247.76 0.854189 2247.76 1.40388V2.40333H2195.77H2143.78V1.40388V0.404489H2141.28H2138.78V1.40388ZM595.121 19.3937C595.121 19.9434 596.012 20.3931 597.101 20.3931C598.19 20.3931 601.001 21.1567 603.349 22.0902C605.697 23.0227 608.181 24.3399 608.868 25.0166C609.556 25.6932 610.118 26.7286 610.118 27.3182C610.118 27.9069 610.6 28.3886 611.189 28.3886C611.779 28.3886 612.903 29.0313 613.688 29.8168C614.474 30.6014 615.117 31.7258 615.117 32.3154C615.117 32.9041 615.792 33.3858 616.617 33.3858H618.116V37.3836V41.3813H619.031H619.945L620.648 48.877C621.035 52.9997 621.714 56.3728 622.159 56.3728H622.968L623.568 65.1179C623.898 69.9281 624.408 79.4357 624.701 86.2469L625.233 98.6309L624.174 99.6893L623.115 100.748V108.96V117.171L621.943 117.562L620.771 117.953L620.324 124.141L619.876 130.331H618.996C618.512 130.331 618.116 131.455 618.116 132.83V135.328H616.617H615.117V137.398C615.117 138.537 614.474 140.111 613.688 140.896C612.903 141.682 611.779 142.324 611.189 142.324C610.6 142.324 610.118 142.891 610.118 143.582C610.118 144.275 609.238 145.392 608.162 146.063C607.087 146.735 604.387 147.574 602.164 147.93C599.94 148.286 598.121 148.968 598.121 149.448V150.32H591.622H585.124V149.32C585.124 148.771 584.486 148.321 583.707 148.321C582.928 148.321 582.062 148.883 581.783 149.57L581.276 150.819L580.45 149.82C579.996 149.27 578.125 148.033 576.293 147.071C574.463 146.11 572.325 145.323 571.546 145.323H570.127V143.823C570.127 142.999 569.645 142.324 569.056 142.324C568.466 142.324 567.341 141.682 566.557 140.896C565.771 140.111 565.128 138.987 565.128 138.397C565.128 137.809 564.453 137.327 563.628 137.327H562.129V133.329V129.332H561.129H560.129V126.904C560.129 125.57 559.454 123.803 558.629 122.978C557.804 122.154 557.13 120.585 557.13 119.492C557.13 118.399 557.693 117.242 558.379 116.922L559.629 116.339L558.379 115.756L557.13 115.173V110.318V105.463L556.13 104.845L555.13 104.228V82.7988V61.37H556.13H557.13V52.8748V44.3796H558.05C558.556 44.3796 559.267 43.0304 559.629 41.3813C559.991 39.7322 560.702 38.383 561.208 38.383H562.129V34.9929V31.6038L564.561 30.9932L566.995 30.3825L567.612 28.4376C567.951 27.3672 569.106 26.2139 570.178 25.8741C571.25 25.5343 572.126 24.8366 572.126 24.3239C572.126 23.8112 572.764 23.3915 573.543 23.3915C574.322 23.3915 575.124 22.8977 575.325 22.2941L575.692 21.1957L580.408 20.665C583.001 20.3722 585.124 19.7415 585.124 19.2638V18.3943H590.122H595.121V19.3937ZM939.795 22.9257C942.133 23.2975 944.044 23.9551 944.044 24.3879C944.044 24.8196 945.162 25.4543 946.529 25.7971L949.013 26.4197L949.636 28.9033C949.979 30.2696 950.596 31.3869 951.008 31.3869C951.419 31.3869 952.115 34.6481 952.554 38.6328C952.992 42.6176 953.351 47.0031 953.351 48.3773C953.351 49.7515 952.988 54.249 952.544 58.3717L951.737 65.8674L949.39 68.0682C948.1 69.2786 947.044 70.9166 947.044 71.7081V73.1463L944.544 73.774C943.17 74.1188 942.045 74.8424 942.045 75.3811V76.3615H938.629H935.213L934.819 77.5408L934.427 78.7202L928.488 79.0859C925.222 79.2858 921.2 79.2059 919.55 78.908L916.551 78.3654L916.832 51.3017L917.113 24.239L918.332 22.8088L919.55 21.3786L927.548 21.8143C931.947 22.0542 937.458 22.5539 939.795 22.9257ZM1311.96 22.392V23.3915H1317.96H1323.96V24.4219C1323.96 24.9896 1324.75 25.7511 1325.71 26.1149C1326.67 26.4797 1328.02 27.3332 1328.71 28.0119C1329.4 28.6905 1329.96 30.1766 1329.96 31.316C1329.96 32.4543 1330.37 33.3858 1330.87 33.3858C1331.36 33.3858 1332.08 35.6346 1332.46 38.383C1332.84 41.1314 1333.55 43.3801 1334.05 43.3801H1334.96V49.4477V55.5163L1333.46 57.0154C1332.63 57.84 1331.96 59.607 1331.96 60.9412V63.3688H1330.96H1329.96V65.9384C1329.96 67.3526 1329.32 69.1515 1328.53 69.9361C1327.75 70.7217 1326.82 71.3643 1326.48 71.3643C1326.14 71.3643 1324.82 72.4887 1323.55 73.8629L1321.23 76.3615H1318.56C1317.09 76.3615 1314.83 77.0551 1313.54 77.9026L1311.19 79.4437L1302.83 79.1519C1298.23 78.992 1294.58 78.5232 1294.72 78.1105C1294.86 77.6977 1294.97 65.2868 1294.97 50.5291V23.6973L1297.22 22.6119C1298.45 22.0162 1302.28 21.4975 1305.71 21.4605L1311.96 21.3926V22.392ZM1505.92 22.392V23.3915H1509.49H1513.06L1514.49 24.8197C1515.28 25.6042 1515.92 26.7286 1515.92 27.3182C1515.92 27.9069 1516.4 28.3886 1516.99 28.3886C1517.58 28.3886 1518.64 28.9653 1519.34 29.6709C1520.05 30.3765 1520.97 32.5133 1521.38 34.4182C1521.8 36.3241 1522.35 42.3267 1522.6 47.7587L1523.05 57.6341L1521.99 58.7025C1521.4 59.2901 1520.92 61.0911 1520.92 62.7042V65.6386L1518.42 67.9543C1517.04 69.2276 1515.92 70.9565 1515.92 71.7971V73.3252L1513.42 73.9519C1512.04 74.2967 1510.92 74.9803 1510.92 75.47C1510.92 75.9607 1509.88 76.3615 1508.62 76.3615C1507.36 76.3615 1505.77 76.9132 1505.09 77.5868L1503.87 78.8111L1493.4 79.1989L1482.93 79.5867V52.9877V26.3898H1483.93C1484.48 26.3898 1484.93 25.7152 1484.93 24.8906V23.3915H1486.43C1487.25 23.3915 1487.92 22.9417 1487.92 22.392V21.3926H1496.92H1505.92V22.392ZM1819.44 48.877C1819.79 50.2512 1820.47 51.3756 1820.96 51.3756C1821.45 51.3756 1821.85 52.6889 1821.85 54.293C1821.85 55.8971 1822.64 58.7085 1823.6 60.5394C1824.56 62.3704 1825.69 64.0185 1826.1 64.2014C1826.51 64.3853 1826.85 65.8105 1826.85 67.3686C1826.85 68.9277 1827.64 71.7011 1828.6 73.5321C1829.56 75.3631 1830.69 77.0111 1831.1 77.194C1831.51 77.3779 1831.85 79.064 1831.85 80.9419V84.357H1833.35H1834.85V86.8555C1834.85 88.2298 1835.24 89.3541 1835.72 89.3541C1836.2 89.3541 1836.88 91.1531 1837.23 93.3519L1837.87 97.3496H1838.86C1839.4 97.3496 1839.85 97.7994 1839.85 98.3491V99.3485H1819.28H1798.72L1799.42 97.0997C1799.81 95.8634 1800.51 94.7011 1800.99 94.5182C1801.46 94.3343 1801.86 92.6483 1801.86 90.7703V87.3553H1802.75C1803.24 87.3553 1803.92 86.2309 1804.27 84.8567C1804.61 83.4825 1805.33 82.3581 1805.87 82.3581H1806.85V78.7891V75.2191L1808.35 73.72C1809.18 72.8954 1809.85 71.3534 1809.85 70.294C1809.85 69.2336 1810.3 68.366 1810.85 68.366H1811.85V64.868V61.37H1812.83C1813.37 61.37 1814.1 60.2456 1814.44 58.8714C1814.79 57.4972 1815.47 56.3728 1815.96 56.3728H1816.85V51.3756V46.3785H1817.83C1818.37 46.3785 1819.1 47.5028 1819.44 48.877Z" fill="white" style="fill:white;fill-opacity:1;"/>
</svg>
