<svg xmlns="http://www.w3.org/2000/svg" version="1.1" xmlns:xlink="http://www.w3.org/1999/xlink" width="67" height="65"><svg width="67" height="65" viewBox="0 0 67 65" fill="none" xmlns="http://www.w3.org/2000/svg">
<path d="M0.0884873 0.210938H66.7698V64.75H0.0878906V32.5217L0.0884873 0.210938Z" fill="black" style="fill:black;fill-opacity:1;"></path>
<path d="M49.8094 47.9687C49.5674 53.0029 47.3338 56.9802 43.1087 59.9007C38.9673 62.7451 33.98 64.0271 28.1467 63.7467C22.3934 63.4701 17.6316 62.5604 13.8613 61.0176C10.091 59.4748 8.24625 57.8644 8.32691 56.1863L8.82822 45.7583C8.89736 44.32 9.45134 43.6258 10.4901 43.6757C11.6088 43.7295 12.3334 44.4852 12.6638 45.9427C14.7453 54.2923 19.7414 58.6572 27.6523 59.0375C31.2481 59.2104 34.247 58.4736 36.6488 56.827C39.0545 55.1005 40.3227 52.8788 40.4533 50.162C40.5839 47.4451 39.6165 45.0759 37.5512 43.0544C35.4897 40.953 32.9353 39.1082 29.8881 37.5201C26.9207 35.9358 23.9173 34.2696 20.8777 32.5217C17.918 30.7775 15.419 28.615 13.3806 26.0342C11.346 23.3734 10.4074 20.4049 10.5649 17.1287C10.7993 12.2543 12.8711 8.30927 16.7804 5.29351C20.6897 2.27774 25.7608 0.919676 31.9936 1.2193C36.1488 1.41906 39.9099 2.32069 43.2767 3.92421C46.6475 5.44783 48.2944 7.00871 48.2176 8.60686L47.7739 17.8362C47.7048 19.2745 47.1108 19.9668 45.9921 19.913C44.8734 19.8593 44.1888 19.1055 43.9383 17.6518C42.1381 10.1167 37.8019 6.18393 30.9298 5.85357C27.8134 5.70376 25.1381 6.37607 22.9037 7.87051C20.6732 9.28503 19.4946 11.3108 19.3678 13.9477C19.2449 16.5048 20.2142 18.834 22.2757 20.9354C24.417 23.0407 27.0094 24.9273 30.0529 26.5954C33.18 28.1874 36.2615 29.8973 39.2972 31.7252C42.3368 33.4732 44.87 35.7574 46.8969 38.578C49.0076 41.3225 49.9784 44.4528 49.8094 47.9687Z" fill="white" style="fill:white;fill-opacity:1;"></path>
<path d="M60.885 54.9902C62.0248 54.9902 63.0051 55.4006 63.8258 56.2213C64.6921 57.042 65.1252 58.045 65.1252 59.2305C65.1252 60.3703 64.6921 61.3506 63.8258 62.1713C63.0051 62.992 62.0248 63.4023 60.885 63.4023C59.7451 63.4023 58.7649 62.992 57.9442 62.1713C57.1235 61.3506 56.7131 60.3703 56.7131 59.2305C56.7131 58.0906 57.1235 57.1104 57.9442 56.2897C58.7649 55.4234 59.7451 54.9902 60.885 54.9902Z" fill="white" style="fill:white;fill-opacity:1;"></path>
</svg><style>@media (prefers-color-scheme: light) { :root { filter: none; } }
@media (prefers-color-scheme: dark) { :root { filter: none; } }
</style></svg>