<svg width="184" height="36" viewBox="0 0 568 96" fill="none" xmlns="http://www.w3.org/2000/svg">
<g clip-path="url(#clip0_292_2)">
<path d="M567.383 16.2079C567.383 7.28089 560.343 0.0438896 551.658 0.0438896C543.395 0.0438896 536.634 6.59889 535.995 14.9229C535.722 16.6089 535.521 18.4119 535.315 20.3099C534.613 26.8119 529.937 33.3249 528.212 35.9219C528.15 36.0115 528.069 36.0873 527.977 36.1448C527.884 36.2022 527.78 36.24 527.672 36.2559C527.564 36.24 527.46 36.2022 527.367 36.1448C527.275 36.0873 527.194 36.0115 527.132 35.9219C525.406 33.3249 520.73 26.8119 520.028 20.3099C519.822 18.4119 519.621 16.6099 519.348 14.9229C518.708 6.59889 511.948 0.0438896 503.686 0.0438896C495.001 0.0438896 487.96 7.28089 487.96 16.2079C487.96 18.8899 488.606 21.4129 489.73 23.6399L489.722 23.6479C489.886 24.0189 490.191 24.5459 490.587 25.1449C490.664 25.2649 490.748 25.3789 490.828 25.4949C491.031 25.7882 491.251 26.0912 491.488 26.4039C491.516 26.4392 491.544 26.4752 491.571 26.5119C492.635 27.8939 493.997 29.3839 495.371 30.3619C496.161 30.9229 500.628 33.6069 501.472 34.0829C504.117 35.5779 511.338 40.5789 515.024 50.7419C518.194 59.4849 516.5 66.4119 515.097 69.9439C513.104 72.7284 512.035 76.0677 512.039 79.4919C512.039 88.3869 519.029 95.5989 527.672 95.6509C536.313 95.5989 543.304 88.3869 543.304 79.4919C543.304 75.9159 542.16 72.6219 540.246 69.9439C538.843 66.4119 537.148 59.4839 540.319 50.7419C544.005 40.5789 551.226 35.5779 553.871 34.0829C554.715 33.6069 559.182 30.9229 559.971 30.3619C561.346 29.3839 562.708 27.8939 563.772 26.5119C563.799 26.4752 563.827 26.4392 563.854 26.4039C564.093 26.0906 564.313 25.7879 564.514 25.4959C564.594 25.3789 564.679 25.2649 564.756 25.1459C565.153 24.5459 565.457 24.0189 565.621 23.6479L565.613 23.6399C566.778 21.3359 567.385 18.7898 567.383 16.2079ZM366.346 61.4099C363.665 61.4099 361.14 62.0639 358.891 63.1969L358.881 63.1829L358.728 63.2769C358.452 63.4209 358.18 63.5719 357.913 63.7299C356.092 64.6739 351.871 66.4689 346.792 66.0159C346.792 66.0159 341.262 45.0439 348.532 24.9029C349.088 23.8415 349.531 22.7243 349.852 21.5699L349.882 21.4999H349.87C350.277 20.0299 350.507 18.4829 350.507 16.8769C350.507 7.64089 343.299 0.15389 334.407 0.15389C325.515 0.15389 318.306 7.64089 318.306 16.8769C318.306 19.4339 318.874 21.8469 319.862 24.0149L319.844 24.0169C319.844 24.0169 325.902 39.2519 323.954 54.8409C322.628 65.4389 320.622 73.4649 319.473 77.5209C319.073 78.4369 318.773 79.4089 318.592 80.4259L318.579 80.4619L318.586 80.4639C318.455 81.2109 318.376 81.9769 318.376 82.7639C318.376 89.8209 323.909 95.5419 330.734 95.5419C332.902 95.5419 334.937 94.9609 336.708 93.9469L336.709 93.9499C336.709 93.9499 341.841 91.0879 347.316 91.0879C351.702 91.0879 354.526 91.4549 357.058 92.6939C357.612 93.0669 358.194 93.3979 358.79 93.7039C358.831 93.7306 358.872 93.7572 358.912 93.7839C359.03 93.8659 359.166 93.9189 359.312 93.9589C361.511 94.9986 363.913 95.5392 366.346 95.5419C375.626 95.5419 383.15 87.9009 383.15 78.4759C383.15 69.0509 375.626 61.4099 366.346 61.4099ZM169.283 68.3699H169.29L169.238 68.3099C169.188 68.2469 169.132 68.1879 169.08 68.1259C168.074 66.9559 163.374 61.3979 160.81 56.8759C160.474 56.1446 160.113 55.4255 159.726 54.7199C159.642 54.5199 159.536 54.3299 159.422 54.1449C148.665 34.0769 151.461 19.2679 151.461 19.2679C151.581 18.4749 151.664 17.6699 151.664 16.8449C151.664 7.56989 143.814 0.0518896 134.132 0.0518896L134.083 0.0538896V0.0478896C134.065 0.0465563 134.047 0.0455563 134.028 0.0448896C124.345 0.0448896 116.495 7.56389 116.495 16.8379C116.495 17.6629 116.578 18.4679 116.699 19.2619C116.82 20.0559 119.494 34.0699 108.738 54.1389C108.623 54.3229 108.518 54.5129 108.434 54.7129C108.047 55.4188 107.685 56.1383 107.349 56.8699C104.786 61.3919 100.086 66.9489 99.079 68.1199C99.0257 68.1799 98.973 68.2409 98.921 68.3029L98.869 68.3629H98.876C96.4544 71.3399 95.1341 75.0613 95.138 78.8989C95.138 88.1469 102.635 95.6429 111.882 95.6429C121.129 95.6429 128.626 88.1469 128.626 78.8989C128.626 78.7769 128.61 78.3939 128.608 78.2719C129.108 78.0779 131.275 77.3089 134.076 77.2799V77.2859C136.88 77.3139 139.051 78.0849 139.552 78.2789C139.549 78.3999 139.533 78.7839 139.533 78.9059C139.533 88.1529 147.03 95.6499 156.277 95.6499C165.524 95.6499 173.021 88.1529 173.021 78.9059C173.021 74.9109 171.618 71.2479 169.283 68.3699ZM138.471 59.4899C137.206 59.8859 134.058 59.8799 134.058 59.8799C134.058 59.8799 130.911 59.8859 129.646 59.4899C129.44 59.4249 129.334 59.1799 129.402 58.9579L133.558 44.8079C133.577 44.7264 133.624 44.6538 133.689 44.6018C133.755 44.5498 133.836 44.5216 133.92 44.5216C134.004 44.5216 134.085 44.5498 134.151 44.6018C134.216 44.6538 134.263 44.7264 134.282 44.8079L138.715 58.9579C138.783 59.1809 138.677 59.4249 138.471 59.4899ZM474.798 69.3519C473.902 62.9739 468.707 57.8719 462.314 57.0869C457.562 56.5029 453.199 58.2319 450.185 61.2939L450.182 61.2919C450.182 61.2919 446.659 64.7799 444.075 67.3159C443.524 67.8569 441.678 69.1939 440.239 69.8589C439.027 70.4189 437.726 70.7539 436.393 70.8379C433.367 71.0279 427.771 70.7679 422.993 67.1519C419.975 64.8899 418.201 62.0919 416.831 57.9179C416.665 57.4119 416.415 55.4149 416.485 54.7829C417.862 54.8089 420.569 54.9469 422.765 55.6199C424.7 56.2139 427.895 57.1369 429.998 57.7399C430.653 57.9954 431.33 58.1892 432.021 58.3189L432.094 58.3389L432.101 58.3309C432.755 58.4479 433.424 58.5189 434.111 58.5189C440.376 58.5189 445.455 53.4559 445.455 47.2119C445.455 40.9679 440.375 35.9049 434.111 35.9049C433.973 35.9049 433.839 35.9209 433.703 35.9249L433.699 35.9049C433.699 35.9049 429.111 36.1769 426.579 37.2199C424.096 38.2429 417.336 39.5869 416.03 39.6699C417.752 32.2179 422.43 26.2269 429.188 24.0099C432.455 22.9369 435.853 22.8679 439.147 23.6409C439.147 23.6409 441.761 24.3549 443.837 25.9479C445.259 27.0389 448.19 30.0139 449.898 31.7819C450.282 32.2272 450.683 32.6459 451.101 33.0379L451.212 33.1549L451.22 33.1539C456.247 37.7499 463.495 38.5359 468.452 34.6669C474.062 30.2869 474.608 21.6099 469.67 15.2839C469.67 15.2839 460.833 0.11589 437.85 0.11589C414.867 0.11589 404.624 14.1519 404.624 14.1519L404.637 14.1539C397.397 22.2159 392.811 34.1039 392.811 47.3739C392.811 61.8559 398.018 74.8969 406.431 82.9079L406.841 83.3519C406.841 83.3519 416.254 92.7509 427.206 94.6779L427.201 94.6809C427.201 94.6809 438.519 97.0509 449.704 94.0879C449.819 94.0579 449.932 94.0272 450.044 93.9959C450.144 93.9706 450.243 93.9439 450.342 93.9159C450.367 93.9099 450.386 93.9019 450.41 93.8949C450.755 93.7969 451.094 93.6926 451.427 93.5819C459.817 90.7679 466.999 86.3769 471.001 81.3519C471.021 81.3269 471.035 81.3009 471.054 81.2759C472.533 79.6968 473.637 77.805 474.285 75.7408C474.933 73.6766 475.108 71.4929 474.797 69.3519H474.798ZM301.126 16.2439C301.126 7.39389 293.828 0.21889 284.826 0.21889C275.824 0.21889 268.526 7.39389 268.526 16.2439C268.526 16.5439 268.555 16.8359 268.572 17.1319L268.552 17.1269L268.576 17.2169C268.654 18.4999 268.87 19.7469 269.238 20.9309C269.658 24.4809 269.803 30.2129 267.93 36.8559C264.795 47.9739 260.975 56.4359 260.975 56.4359L260.607 56.8439C260.607 56.8439 255.735 49.0789 256.042 47.2259C256.045 47.2089 256.038 47.1949 256.04 47.1769C256.735 45.4141 257.095 43.5368 257.1 41.6419C257.1 32.7919 249.512 25.6169 240.152 25.6169C240.077 25.6182 240.004 25.6216 239.931 25.6269C239.857 25.6239 239.784 25.6169 239.71 25.6169C230.35 25.6169 222.76 32.7919 222.76 41.6419C222.76 43.5909 223.147 45.4499 223.821 47.1769C223.823 47.1949 223.816 47.2089 223.819 47.2269C224.126 49.0789 219.254 56.8439 219.254 56.8439L218.887 56.4349C218.887 56.4349 215.066 47.9739 211.931 36.8559C210.058 30.2129 210.204 24.4819 210.623 20.9309C210.991 19.7469 211.207 18.4999 211.285 17.2169L211.31 17.1269L211.29 17.1319C211.306 16.8359 211.336 16.5439 211.336 16.2439C211.336 7.39389 204.038 0.21889 195.036 0.21889C186.034 0.21889 178.736 7.39389 178.736 16.2439C178.736 19.5209 179.741 22.5639 181.46 25.0979H181.456L181.635 25.3359C181.861 25.6559 182.091 25.9759 182.34 26.2789C183.854 28.3149 186.834 32.3859 187.334 33.5569C188.009 35.1389 191.084 42.4449 191.084 42.4449L195.284 53.8179L200.084 68.8179C200.084 68.8179 203.674 81.9499 205.943 86.1659L205.944 86.1729C206.339 87.1149 208.119 89.7129 208.119 89.7129V89.6989C210.383 93.1589 214.469 95.4759 219.15 95.4759C224.802 95.4759 229.6 92.1059 231.351 87.4159L231.357 87.4189L234.429 79.7289C235.914 76.6109 238.166 71.9839 239.18 69.9029L239.657 69.0499C239.657 69.0499 239.932 68.5589 240.205 69.0499L240.681 69.9029C241.696 71.9839 243.947 76.6109 245.433 79.7299L248.505 87.4199L248.51 87.4159C250.262 92.1059 255.06 95.4759 260.711 95.4759C265.233 95.4759 269.202 93.3159 271.507 90.0519L271.508 90.0659C271.508 90.0659 273.078 87.7759 273.595 86.7159C275.828 83.2679 279.778 68.8179 279.778 68.8179L284.578 53.8179L288.778 42.4449C288.778 42.4449 291.852 35.1389 292.528 33.5569C293.028 32.3859 296.008 28.3139 297.522 26.2789C297.771 25.9749 298 25.6569 298.226 25.3359L298.406 25.0979H298.402C300.18 22.4877 301.129 19.402 301.126 16.2439ZM80.397 64.4629C79.463 61.7209 76.717 58.9559 72.905 57.3049C69.085 55.6519 65.179 55.5419 62.543 56.7479L62.546 56.7459C59.205 58.0439 55.96 62.5899 55.96 62.5899L56.02 62.5379L55.55 63.0999C54.356 64.5459 52.927 65.7999 51.258 66.6559C47.801 68.4279 44.493 68.5579 44.493 68.5579C43.906 68.6099 43.314 68.6419 42.715 68.6419C31.089 68.6419 21.664 58.8529 21.664 46.7789C21.664 34.7049 31.089 25.3019 42.714 25.3019C43.314 25.3019 43.906 25.3339 44.493 25.3849C44.493 25.3849 51.054 25.6279 55.793 33.1489C55.915 33.3409 56.045 33.5069 56.176 33.6679C58.649 36.8799 62.37 38.3239 66.601 38.3239C74.048 38.3239 80.137 32.5759 80.137 24.7299C80.137 21.1489 78.869 17.8859 76.793 15.3869C76.761 15.3449 76.74 15.3089 76.708 15.2669C68.534 4.49389 54.221 1.39689 54.221 1.39689C52.07 0.82489 49.321 0.21489 46.825 0.0238896C46.603 0.0198896 45.054 -0.00911042 44.255 0.00288958H44.253C40.881 0.0258896 37.613 0.51489 34.44 1.22189C24.587 3.41389 17.82 7.98389 11.979 14.4169C4.148 23.0429 0 34.8399 0 47.8499C0 62.4899 6.098 76.0969 15.728 84.8749C22.285 90.8519 30.486 94.4529 39.488 95.4249C40.858 95.6879 42.508 95.7939 44.493 95.7039C48.449 95.5259 51.9 95.1009 54.912 94.5279C54.912 94.5279 71.566 91.8749 78.827 80.0759C78.851 80.0359 78.866 80.0019 78.889 79.9629C82.303 75.3079 82.825 69.2839 80.397 64.4629Z" fill="#0C0C0C" style="fill:#0C0C0C;fill:color(display-p3 0.0465 0.0471 0.0481);fill-opacity:1;"/>
</g>
<defs>
<clipPath id="clip0_292_2">
<rect width="567.383" height="95.735" fill="white" style="fill:white;fill-opacity:1;"/>
</clipPath>
</defs>
</svg>
