<svg width="256" height="25" viewBox="0 0 256 25" fill="none" xmlns="http://www.w3.org/2000/svg">
<path fill-rule="evenodd" clip-rule="evenodd" d="M0.731445 5.21043C0.731445 7.95586 1.16506 10.2021 1.69553 10.2021C2.225 10.2021 3.18103 9.1918 3.81839 7.95586C4.45575 6.71992 5.8983 4.69927 7.02417 3.46333C8.15004 2.22739 9.45774 1.21709 9.93027 1.21709C10.4028 1.21709 10.6615 6.02706 10.5057 11.9063L10.222 22.5954L7.72446 23.2873C6.29589 23.6836 9.0731 23.9951 14.218 24.0161C20.5386 24.0411 22.5416 23.7845 20.9612 23.1495L18.7135 22.246V11.7316C18.7135 5.94922 19.0631 1.21709 19.4897 1.21709C19.9173 1.21709 21.204 1.87299 22.3499 2.67465C23.4947 3.47632 24.9982 5.49794 25.6905 7.16716C26.3818 8.83638 27.3428 10.2021 27.8253 10.2021C28.3089 10.2021 28.7035 7.95586 28.7035 5.21043V0.21875H14.7175H0.731445V5.21043ZM36.1561 10.3159C33.4308 15.8687 30.129 21.2597 28.8184 22.296L26.4357 24.1788L32.8144 24.0999C36.3229 24.057 38.5187 23.7805 37.6945 23.486C36.8703 23.1915 35.6345 22.243 34.9472 21.3775C34.2609 20.5119 33.6985 19.4407 33.6985 18.9964C33.6985 18.5522 35.6735 18.1888 38.0871 18.1888C41.167 18.1888 42.6565 18.66 43.0821 19.7682C43.4158 20.6367 43.6885 21.7269 43.6885 22.1901C43.6885 22.6543 42.9013 23.2394 41.9402 23.491C40.9792 23.7415 44.0132 23.9472 48.6835 23.9472C53.3538 23.9472 56.3529 23.7346 55.3479 23.475C54.178 23.1735 51.5916 18.9026 48.163 11.6108C45.217 5.34521 42.4257 0.21875 41.9592 0.21875C41.4927 0.21875 38.8813 4.76219 36.1561 10.3159ZM55.7355 5.95918C55.7844 10.7921 55.9822 11.4041 56.9842 9.83171C57.6386 8.80542 59.0891 6.56216 60.207 4.84702C61.3259 3.13287 63.0112 1.58147 63.9532 1.40077C65.4787 1.10726 65.6645 2.14753 65.6515 10.878C65.6425 16.272 65.3059 21.1938 64.9023 21.8168C64.4987 22.4397 63.2689 23.1735 62.17 23.448C61.0711 23.7226 64.218 23.9382 69.163 23.9272C74.1081 23.9162 77.188 23.7186 76.0082 23.488C74.8284 23.2574 73.5976 22.0823 73.2749 20.8783C72.9513 19.6733 72.6805 14.7575 72.6735 9.95253C72.6625 3.09097 72.9622 1.21709 74.0691 1.21709C74.8443 1.21709 76.6116 2.56283 77.9962 4.20709C79.3808 5.85135 80.8014 8.1036 81.154 9.21275C81.5057 10.3219 82.212 10.9718 82.7215 10.6573C83.231 10.3419 83.6485 7.86501 83.6485 5.15154V0.21875H69.6625H55.6765L55.7355 5.95918ZM91.0431 10.3039C88.3808 15.8507 85.1181 21.2417 83.7924 22.284L81.3808 24.1788H87.233H93.0841L90.8643 22.6244C89.6426 21.7698 88.6436 20.4221 88.6436 19.6294C88.6436 18.5931 89.8733 18.1888 93.0322 18.1888C96.1121 18.1888 97.6016 18.66 98.0272 19.7682C98.3608 20.6367 98.6335 21.7279 98.6335 22.1941C98.6335 22.6603 97.6216 23.2364 96.3858 23.474C95.15 23.7126 98.184 23.9392 103.129 23.9791C108.781 24.0251 111.363 23.7455 110.08 23.2264C108.79 22.7043 106.104 18.3256 102.77 11.3093C99.8723 5.20945 97.1371 0.21875 96.6915 0.21875C96.247 0.21875 93.7055 4.75718 91.0431 10.3039ZM132.377 1.77316C134.374 3.16984 134.598 4.17715 134.598 11.7565C134.598 18.8547 134.282 20.5009 132.6 22.1821L130.602 24.1788H135.708H140.813L138.655 22.4317C136.744 20.8843 136.532 19.859 136.796 13.4697L137.095 6.25568L145.003 15.2168C149.353 20.1455 153.286 24.1788 153.744 24.1788C154.203 24.1788 154.578 19.4876 154.578 13.7532V3.32657L156.798 1.77316L159.018 0.21875H153.846H148.675L151.126 2.66965C152.657 4.1981 153.579 6.26265 153.579 8.16049C153.579 9.8327 153.215 11.2005 152.77 11.2005C152.326 11.2005 149.827 8.72956 147.218 5.70959L142.475 0.21875H136.316H130.157L132.377 1.77316ZM166.416 10.7243C163.627 16.5016 160.396 21.8926 159.237 22.7043L157.13 24.1788H163.069H169.008L166.788 22.6244C165.567 21.7698 164.568 20.4221 164.568 19.6294C164.568 18.5871 165.811 18.1888 169.063 18.1888C171.536 18.1888 173.559 18.6011 173.559 19.1053C173.559 19.6094 173.817 20.6966 174.134 21.5222C174.524 22.5365 173.958 23.1645 172.386 23.464C171.108 23.7076 174.108 23.9392 179.053 23.9791C184.793 24.0261 187.297 23.7505 185.978 23.2164C184.668 22.6863 181.953 18.3286 178.557 11.2993C175.612 5.20543 172.816 0.21875 172.345 0.21875C171.873 0.21875 169.205 4.94589 166.416 10.7243ZM192.29 1.24803L194.538 2.15154V12.1988V22.246L192.29 23.1495C190.656 23.8064 192.206 24.07 197.975 24.1159C204.701 24.1688 205.64 23.9821 204.14 22.8869C202.908 21.9864 202.472 20.5728 202.701 18.2217C202.881 16.3668 203.522 14.6866 204.124 14.49C204.726 14.2933 206.457 16.0014 207.97 18.2856C210.161 21.5941 210.447 22.6144 209.373 23.2943C208.56 23.8084 211.002 24.1269 215.517 24.093C219.638 24.063 222.24 23.7336 221.299 23.3602C220.359 22.9868 217.549 19.7861 215.055 16.247C212.562 12.7079 210.522 9.40344 210.522 8.90327C210.522 8.40311 211.705 7.0304 213.151 5.85336C214.597 4.67632 217.175 2.92623 218.879 1.96584L221.979 0.21875H215.56H209.141L211.08 1.64136L213.019 3.06401L208.024 7.864L203.029 12.664L202.706 9.29861C202.528 7.4467 202.641 4.90393 202.956 3.64803C203.272 2.39112 204.317 1.15818 205.278 0.906601C206.239 0.656019 203.204 0.426382 198.534 0.39743C192.524 0.360492 190.699 0.609097 192.29 1.24803ZM234.534 11.1266C231.397 17.481 228.284 22.4547 227.078 23.0397C225.464 23.8224 226.438 24.045 231.501 24.048C236.062 24.051 237.367 23.7984 235.885 23.2004C234.725 22.7322 233.521 21.682 233.207 20.8653C232.893 20.0497 232.906 19.1142 233.235 18.7858C233.563 18.4573 235.483 18.1888 237.501 18.1888C240.42 18.1888 241.397 18.686 242.279 20.6217C243.257 22.7672 243.128 23.1056 241.191 23.481C239.982 23.7156 242.751 23.9682 247.346 24.043L255.698 24.1788L253.602 22.4317C252.449 21.4713 249.266 16.0793 246.529 10.4517C243.791 4.82409 241.185 0.21875 240.736 0.21875C240.287 0.21875 237.496 5.12757 234.534 11.1266ZM40.5416 14.1934L41.5866 17.1905H38.6415C36.6345 17.1905 35.6965 16.6923 35.6965 15.6271C35.6965 14.7675 36.169 13.1821 36.7454 12.1049C37.3228 11.0277 38.177 10.3828 38.6456 10.6713C39.1131 10.9609 39.9662 12.5452 40.5416 14.1934ZM95.6016 15.9426C95.6206 16.6294 94.5876 17.1905 93.3059 17.1905C92.0232 17.1905 90.6925 16.9089 90.3488 16.5645C90.0042 16.2201 90.4318 14.5678 91.2999 12.8906L92.8763 9.8437L94.221 12.2687C94.9602 13.6034 95.5816 15.2567 95.6016 15.9426ZM170.401 12.7449C171.039 14.1435 171.561 15.7159 171.561 16.2391C171.561 16.7622 170.164 17.1905 168.457 17.1905C165.892 17.1905 165.478 16.887 166.072 15.4434C166.469 14.483 167.018 12.9096 167.295 11.9492C167.572 10.9888 168.123 10.2021 168.52 10.2021C168.917 10.2021 169.763 11.3462 170.401 12.7449ZM238.967 13.1472C239.805 14.7675 240.492 16.3399 240.492 16.6414C240.492 16.9439 239.143 17.1905 237.495 17.1905C235.441 17.1905 234.498 16.6983 234.498 15.6271C234.498 14.7675 234.963 13.1951 235.532 12.1329C236.101 11.0707 236.763 10.2021 237.005 10.2021C237.246 10.2021 238.129 11.5279 238.967 13.1472Z" fill="#0B0B0B" style="fill:#0B0B0B;fill:color(display-p3 0.0433 0.0418 0.0418);fill-opacity:1;"/>
</svg>
