<svg width="255" height="268" viewBox="0 0 255 268" fill="none" xmlns="http://www.w3.org/2000/svg">
<path fill-rule="evenodd" clip-rule="evenodd" d="M106.048 2.0553C100.828 3.14549 92.8151 5.55845 88.2426 7.41735C83.6692 9.27626 76.4764 12.9451 72.2586 15.5698C68.0399 18.1954 60.8251 23.9488 56.2247 28.3565C51.6233 32.7641 45.9439 39.0656 43.6033 42.3601C41.2616 45.6546 37.4984 52.042 35.2396 56.5545C32.9809 61.0669 29.9859 68.7042 28.5843 73.5262C27.1777 78.3681 25.856 85.8696 25.6323 90.2803C25.2277 98.2669 25.2276 98.2669 26.1367 90.458C26.6362 86.1631 27.9769 79.1997 29.1147 74.9837C30.2536 70.7678 33.4115 62.806 36.1317 57.2912C38.9509 51.5788 43.9879 43.654 47.839 38.8729C51.5573 34.2566 58.3935 27.421 63.0318 23.6823C67.814 19.8267 75.814 14.7272 81.5133 11.9009C87.2466 9.05863 95.853 5.81903 101.552 4.35946C107.745 2.77311 115.749 1.58209 122.609 1.22469C129.315 0.876268 136.984 1.13283 142.067 1.8756C146.681 2.54947 154.063 4.23167 158.471 5.61236C162.88 6.99406 170.4 10.1338 175.181 12.5897C179.961 15.0456 186.704 19.1987 190.166 21.8194C193.626 24.44 199.247 29.5675 202.656 33.2124C206.065 36.8583 210.61 42.429 212.757 45.5927C214.904 48.7565 217.791 53.5914 219.173 56.3368C220.554 59.0823 222.88 64.657 224.342 68.7252C225.803 72.7924 227.616 79.5312 228.371 83.7002C229.127 87.8683 229.785 89.9039 229.834 88.2237C229.884 86.5445 228.981 81.3781 227.829 76.7428C226.676 72.1085 223.81 64.2187 221.458 59.209C219.108 54.2004 215.372 47.4616 213.158 44.234C210.943 41.0074 206.823 35.8031 204.002 32.6693C201.181 29.5365 195.234 24.2323 190.787 20.8839C186.34 17.5345 179.502 13.1837 175.593 11.215C171.684 9.24531 165.339 6.56079 161.492 5.24798C157.646 3.93517 150.732 2.20206 146.127 1.3964C141.521 0.589743 132.755 -0.0372153 126.646 0.00171976C119.68 0.0466449 112 0.811377 106.048 2.0553ZM107.047 4.81669C102.377 5.85097 95.6033 7.81869 91.9949 9.1904C88.3865 10.5611 83.4414 12.6966 81.0059 13.9345C78.5703 15.1724 74.0208 17.9169 70.896 20.0323C67.7711 22.1488 62.4105 26.4656 58.9829 29.6263C55.5563 32.7861 50.2357 38.7541 47.1607 42.8872C44.0858 47.0204 39.918 53.7591 37.898 57.8623C35.879 61.9654 33.0418 69.3651 31.5943 74.3069C29.878 80.1631 28.7661 86.855 28.4005 93.5248C28.0918 99.1525 27.4394 103.758 26.9509 103.758C26.4624 103.758 25.7182 102.826 25.2966 101.687C24.875 100.548 24.2106 99.6586 23.82 99.7105C23.4294 99.7625 21.7661 99.1105 20.1237 98.2619C17.1996 96.7505 17.1367 96.7694 17.1367 99.1634C17.1367 100.508 18.1747 102.878 19.4424 104.43C21.2196 106.605 22.0158 109.448 22.9159 116.827C23.5593 122.093 25.4145 130.469 27.0408 135.442C28.6662 140.414 31.7821 148.01 33.9639 152.323C36.1467 156.636 40.1647 163.309 42.893 167.152C45.6222 170.996 50.6902 177.219 54.1567 180.982C57.6233 184.745 65.0898 191.101 70.7501 195.109C76.4105 199.115 84.4534 203.813 88.6243 205.548C92.7941 207.283 99.6572 209.617 103.875 210.737C109.864 212.324 114.713 212.777 126.028 212.803C136.072 212.827 142.964 212.311 148.505 211.121C152.901 210.177 159.873 208.106 163.999 206.519C168.125 204.931 175.315 201.286 179.976 198.419C184.638 195.552 192.406 189.397 197.239 184.742C202.071 180.087 208.214 173.326 210.889 169.718C213.565 166.111 217.567 159.789 219.785 155.671C222.002 151.553 225.152 144.14 226.784 139.199C228.417 134.257 230.465 125.979 231.337 120.803C232.208 115.627 232.921 110.521 232.921 109.454C232.921 108.388 234.27 105.98 235.918 104.104C237.566 102.228 238.915 99.5698 238.915 98.1971C238.915 96.0866 238.632 95.852 237.085 96.6796C236.078 97.2187 234.674 98.3568 233.965 99.2104C233.257 100.064 232.307 100.763 231.854 100.763C231.402 100.763 230.864 98.6293 230.658 96.0207C230.32 91.7298 230.267 91.8726 230.104 97.5182C230.005 100.95 229.536 103.758 229.063 103.758C228.588 103.758 227.888 99.8273 227.505 95.0224C227.122 90.2184 226.113 83.1422 225.262 79.2986C224.41 75.455 222.334 68.9408 220.646 64.8227C218.959 60.7045 215.823 54.3911 213.678 50.7921C211.533 47.1941 207.385 41.4237 204.459 37.9704C201.534 34.5172 196.29 29.2759 192.804 26.3229C189.319 23.3708 183.575 19.2566 180.041 17.1821C176.505 15.1065 170.696 12.1585 167.131 10.632C163.565 9.10454 157.242 6.92718 153.078 5.79407C147.506 4.2766 141.552 3.62768 130.523 3.33517C118.437 3.0147 113.896 3.30122 107.047 4.81669ZM138.515 7.028C143.46 7.633 151.236 9.20838 155.795 10.5282C160.354 11.848 166.872 14.3328 170.281 16.05C173.688 17.7671 178.95 20.85 181.972 22.8996C184.994 24.9491 189.8 28.7239 192.653 31.2886C195.505 33.8533 200.37 39.3112 203.463 43.4184C206.555 47.5245 210.826 54.3581 212.952 58.6021C215.079 62.847 217.73 69.1595 218.844 72.6297C219.959 76.0989 221.307 81.4899 221.84 84.6097C222.375 87.7285 222.95 92.9758 223.121 96.2703C223.43 102.26 223.43 102.26 219.121 101.936C214.81 101.612 214.81 101.612 216.398 104.681C217.273 106.369 218.623 107.751 219.401 107.751C220.179 107.751 221.094 108.201 221.433 108.751C221.774 109.302 221.34 113.551 220.468 118.196C219.598 122.84 217.722 130.139 216.301 134.417C214.879 138.694 211.974 145.567 209.846 149.69C207.717 153.813 203.067 160.864 199.511 165.357C195.956 169.851 190.146 175.912 186.601 178.826C183.056 181.74 177.655 185.631 174.599 187.473C171.542 189.315 166.416 191.882 163.208 193.177C159.999 194.473 154.704 196.28 151.441 197.192C147.866 198.193 140.089 199.045 131.872 199.337C121.535 199.702 116.216 199.415 109.894 198.149C105.306 197.231 98.0379 194.972 93.7412 193.128C89.4455 191.284 83.4185 188.279 80.3466 186.451C77.2756 184.622 70.849 179.426 66.0648 174.904C61.2816 170.383 55.0248 163.297 52.1617 159.158C49.2986 155.019 45.1777 147.839 43.0029 143.203C40.8291 138.567 38.1777 131.366 37.1118 127.2C36.0458 123.035 34.881 117.422 34.5233 114.728C33.9469 110.388 34.1717 109.475 36.4944 106.717C37.935 105.006 39.1148 102.735 39.1148 101.671C39.1148 99.8313 38.9369 99.8114 35.4414 101.272C33.3815 102.131 31.3895 102.427 30.906 101.944C30.4225 101.461 30.5443 96.9551 31.1827 91.6879C31.8091 86.5215 33.4474 78.6996 34.8241 74.3069C36.2007 69.9142 38.895 63.1754 40.8131 59.3318C42.7302 55.4882 46.5183 49.3495 49.2306 45.6896C51.9429 42.0307 57.1557 36.2383 60.813 32.819C64.4704 29.3997 70.5583 24.6007 74.3416 22.1558C78.1248 19.7099 84.0918 16.4074 87.6013 14.817C91.1117 13.2267 97.2596 11.0313 101.264 9.93716C105.269 8.84398 111.692 7.54914 115.538 7.06095C119.384 6.57277 124.105 6.11753 126.028 6.04964C127.951 5.98175 133.57 6.42201 138.515 7.028ZM96.7116 51.8381C96.3709 53.8977 96.0988 57.9092 96.1208 59.831C96.1627 63.3252 96.1627 63.3252 97.858 60.8293C98.7911 59.4566 100.545 57.3232 101.757 56.0872C103.809 53.9937 104.813 53.841 116.492 53.841C129.025 53.841 129.025 53.841 129.025 75.1674C129.025 89.5434 128.58 96.4099 128.58 98.0593C130.353 100.085 130.824 100.843 132.111 102.46C133.934 104.751 134.666 106.123 136.315 107.579C136.486 104.611 136.605 97.042 136.783 79.2856C137.05 52.8426 137.05 52.8427 147.554 52.8427C154.475 52.8427 159.244 53.3368 161.529 54.2912C163.6 55.1558 165.898 57.2633 167.231 59.5195C168.994 62.5075 169.537 62.9089 169.821 61.4333C170.019 60.407 169.821 55.8033 169.821 52.2108C169.821 47.9448 168.841 48.8493 133.08 48.8493C96.6992 48.9305 97.3309 48.0943 96.7116 51.8381ZM77.907 72.3402C76.3875 73.1648 74.7451 75.2872 74.0888 77.2759C73.4544 79.1947 73.2436 81.7824 73.6193 83.0263C73.9949 84.2703 74.9549 86.7022 75.7542 88.4293C76.6503 90.3681 78.1368 91.7478 79.6383 92.0343C80.9769 92.2899 82.0718 92.3069 82.0718 92.0723C82.0718 91.8367 80.95 90.1744 79.5783 88.3774C78.2067 86.5814 76.5873 83.6832 75.9779 81.9382C75.0778 79.3575 75.1747 78.3022 76.4964 76.2866C77.7162 74.4267 78.9969 73.8077 81.6273 73.8077C83.5553 73.8077 86.6872 74.4566 88.5883 75.2503C90.4884 76.044 93.1707 77.82 94.5493 79.1987C97.0568 81.7035 97.0568 81.7035 97.0568 117.579C97.0568 150.575 96.913 153.631 95.2666 155.662C94.2826 156.877 91.2706 158.431 88.5743 159.115C85.878 159.799 83.4994 160.877 83.2876 161.51C83.0088 162.347 87.5344 162.66 99.9709 162.66C109.358 162.66 117.037 162.258 117.037 161.768C117.037 161.278 116.326 160.604 115.456 160.271C114.587 159.937 112.97 159.665 111.861 159.665C110.753 159.665 108.379 158.969 106.587 158.119C104.794 157.269 102.706 155.36 101.946 153.876C100.872 151.78 100.494 143.78 100.248 117.984C100.046 96.7954 100.285 84.7894 100.909 84.7894C101.446 84.7894 115.487 102.31 132.111 123.725C148.735 145.139 162.933 162.66 163.662 162.66C164.743 162.66 164.989 155.261 164.989 122.773C164.989 94.7638 165.333 82.1338 166.142 80.3588C166.775 78.9681 169.165 76.9255 171.452 75.8194C173.739 74.7132 176.366 73.8077 177.293 73.8077C178.218 73.8077 178.975 73.1338 178.975 72.3102C178.975 71.0413 176.533 70.8127 162.991 70.8127C149.448 70.8127 147.007 71.0413 147.007 72.3102C147.007 73.3125 148.01 73.8077 150.036 73.8077C151.702 73.8077 154.588 74.4436 156.449 75.2204C158.311 75.9981 160.319 77.5405 160.913 78.6496C161.618 79.9674 161.992 91.2467 161.992 111.238C161.992 130.249 161.633 141.591 161.045 141.227C160.524 140.906 147.91 124.931 133.014 105.728C105.931 70.8127 105.931 70.8127 93.2516 70.8526C84.1347 70.8816 79.8241 71.2989 77.907 72.3402ZM235.141 102.981C233.951 104.171 232.633 104.802 232.215 104.383C231.795 103.963 232.562 102.784 233.92 101.761C235.278 100.738 236.594 100.108 236.847 100.359C237.099 100.612 236.332 101.792 235.141 102.981ZM26.1497 109.514C26.1617 111.016 27.0289 116.12 28.0778 120.859C29.1258 125.597 31.1917 133.01 32.6662 137.332C34.1417 141.653 37.1957 148.767 39.4525 153.139C41.7092 157.511 46.0738 164.475 49.1527 168.614C52.2316 172.752 57.6383 178.802 61.1677 182.058C64.6982 185.314 70.6542 189.962 74.4034 192.387C78.1527 194.811 84.2167 198.152 87.878 199.812C91.5404 201.471 98.8121 203.966 104.039 205.354C112.06 207.486 115.797 207.887 128.026 207.926C139.984 207.965 144.059 207.574 151.381 205.686C156.259 204.428 163.032 202.207 166.431 200.749C169.832 199.293 175.731 196.306 179.541 194.112C184.003 191.543 190.2 186.393 196.957 179.636C204.571 172.024 208.883 166.707 212.685 160.242C215.566 155.342 219.332 147.705 221.052 143.27C222.772 138.834 225.238 130.713 226.531 125.222C227.825 119.731 229.145 113.105 229.464 110.497C229.785 107.888 230.371 105.754 230.767 105.754C231.163 105.754 231.169 109.686 230.779 114.49C230.39 119.295 228.892 126.937 227.452 131.475C226.012 136.011 223.478 142.75 221.821 146.45C220.164 150.148 217.401 155.422 215.684 158.167C213.966 160.913 210.473 165.854 207.923 169.149C205.371 172.443 200.175 178.198 196.374 181.936C192.574 185.674 186.542 190.676 182.971 193.051C179.399 195.425 173.78 198.716 170.483 200.363C167.187 202.009 160.72 204.545 156.113 205.996C151.505 207.448 143.302 209.156 137.881 209.791C130.417 210.667 125.634 210.667 118.171 209.791C112.75 209.156 104.546 207.448 99.939 205.996C95.3316 204.545 88.865 202.006 85.5683 200.356C82.2716 198.705 76.4345 195.276 72.5963 192.736C68.7592 190.196 61.9419 184.426 57.4484 179.915C52.9539 175.404 46.7641 167.939 43.6932 163.327C40.6223 158.713 36.5843 151.622 34.7202 147.568C32.857 143.515 30.1787 136.523 28.7691 132.033C27.3595 127.542 25.6442 119.905 24.9569 115.061C24.0668 108.781 23.1957 105.879 21.9209 104.949C20.9379 104.232 20.1467 102.884 20.1627 101.954C20.1847 100.706 20.9679 101.116 23.1597 103.524C24.907 105.444 26.1367 107.907 26.1497 109.514ZM36.1178 104.305C36.1178 104.605 34.9879 105.841 33.6073 107.05C31.0968 109.249 31.0968 109.249 32.5383 118.017C33.3305 122.84 34.935 129.656 36.1028 133.164C37.2706 136.672 40.1378 143.284 42.4734 147.856C44.8081 152.429 49.0708 159.401 51.9449 163.349C54.8191 167.298 60.3895 173.507 64.3246 177.146C68.2586 180.786 75.0449 185.959 79.4045 188.64C83.7642 191.321 91.1377 194.891 95.7911 196.574C100.443 198.256 108.363 200.352 113.39 201.23C119.9 202.368 125.551 202.659 133.021 202.242C138.79 201.919 147.107 200.739 151.502 199.618C155.898 198.498 163.284 195.77 167.914 193.558C172.545 191.346 179.064 187.582 182.399 185.194C185.736 182.806 191.439 177.763 195.075 173.988C198.71 170.212 203.943 163.667 206.703 159.441C209.463 155.216 213.166 148.292 214.931 144.055C216.696 139.818 219.168 132.274 220.423 127.293C221.679 122.31 223.019 115.91 223.401 113.068C224.068 108.118 223.979 107.838 221.266 106.369C219.709 105.526 218.93 104.818 219.535 104.796C220.14 104.774 222.088 105.262 223.864 105.881C227.094 107.006 227.094 107.006 226.389 113.119C226.003 116.482 224.84 122.469 223.807 126.424C222.774 130.379 220.135 137.748 217.943 142.798C215.751 147.848 211.869 155.33 209.316 159.423C206.763 163.517 201.027 170.568 196.569 175.093C192.113 179.617 185.596 185.242 182.091 187.591C178.584 189.941 171.969 193.618 167.389 195.763C162.809 197.908 155.563 200.623 151.287 201.798C145.036 203.515 140.57 203.949 128.525 204.012C115.822 204.079 112.258 203.74 105.116 201.79C100.482 200.525 93.4424 197.99 89.4714 196.156C85.5004 194.323 79.0459 190.751 75.1278 188.218C71.2107 185.685 64.9519 180.562 61.2206 176.833C57.4894 173.104 52.0718 166.706 49.1817 162.613C46.2906 158.521 42.1407 151.644 39.9579 147.331C37.7761 143.018 34.7322 135.606 33.1937 130.859C31.6552 126.112 29.82 119.115 29.1147 115.313C27.833 108.399 27.833 108.399 30.5323 106.078C32.0179 104.802 33.881 103.758 34.6752 103.758C35.4684 103.758 36.1178 104.004 36.1178 104.305ZM128.656 143.179C128.656 152.743 128.788 161.791 128.454 162.66C127.945 163.984 127.025 163.658 133.448 163.658C138.712 163.658 137.05 164.463 136.084 162.66C135.515 161.597 136.084 153.903 136.084 146.921C136.084 139.264 136.315 132.969 136.315 130.532C135.731 130.019 134.592 128.762 134.272 128.44C131.777 125.924 131.117 125.119 128.58 122.129C128.58 135.021 128.656 133.615 128.656 143.179Z" fill="black" style="fill:black;fill-opacity:1;"/>
<path fill-rule="evenodd" clip-rule="evenodd" d="M0 248.499C0 251.245 0.433611 253.491 0.964081 253.491C1.49355 253.491 2.44958 252.481 3.08694 251.245C3.72431 250.009 5.16685 247.988 6.29272 246.752C7.4186 245.516 8.72629 244.506 9.19882 244.506C9.67135 244.506 9.93008 249.316 9.77423 255.195L9.49051 265.885L6.99301 266.576C5.56444 266.973 8.34166 267.284 13.4865 267.305C19.8072 267.33 21.8102 267.074 20.2298 266.439L17.982 265.535V255.021C17.982 249.238 18.3317 244.506 18.7582 244.506C19.1858 244.506 20.4726 245.162 21.6184 245.964C22.7633 246.765 24.2668 248.787 24.9591 250.456C25.6504 252.125 26.6114 253.491 27.0939 253.491C27.5774 253.491 27.972 251.245 27.972 248.499V243.508H13.986H0V248.499ZM35.4246 253.605C32.6993 259.158 29.3976 264.549 28.0869 265.585L25.7043 267.468L32.0829 267.389C35.5914 267.346 37.7872 267.07 36.963 266.775C36.1389 266.481 34.9031 265.532 34.2158 264.667C33.5295 263.801 32.967 262.73 32.967 262.286C32.967 261.841 34.9421 261.478 37.3557 261.478C40.4356 261.478 41.9251 261.949 42.3507 263.057C42.6843 263.926 42.9571 265.016 42.9571 265.479C42.9571 265.943 42.1698 266.528 41.2088 266.78C40.2478 267.031 43.2817 267.236 47.9521 267.236C52.6224 267.236 55.6214 267.024 54.6164 266.764C53.4466 266.463 50.8602 262.192 47.4316 254.9C44.4855 248.634 41.6943 243.508 41.2278 243.508C40.7612 243.508 38.1499 248.051 35.4246 253.605ZM55.004 249.248C55.053 254.081 55.2508 254.693 56.2528 253.121C56.9071 252.094 58.3576 249.851 59.4755 248.136C60.5944 246.422 62.2797 244.871 63.2218 244.69C64.7472 244.396 64.9331 245.437 64.9201 254.167C64.9111 259.561 64.5744 264.483 64.1708 265.106C63.7672 265.729 62.5375 266.463 61.4386 266.737C60.3397 267.012 63.4865 267.227 68.4316 267.216C73.3766 267.205 76.4566 267.008 75.2767 266.777C74.0969 266.546 72.8662 265.371 72.5435 264.167C72.2198 262.962 71.949 258.047 71.942 253.242C71.9311 246.38 72.2308 244.506 73.3377 244.506C74.1129 244.506 75.8801 245.852 77.2647 247.496C78.6494 249.14 80.0699 251.393 80.4226 252.502C80.7742 253.611 81.4806 254.261 81.9901 253.946C82.4995 253.631 82.9171 251.154 82.9171 248.441V243.508H68.9311H54.9451L55.004 249.248ZM90.3117 253.593C87.6493 259.14 84.3866 264.531 83.0609 265.573L80.6494 267.468H86.5015H92.3527L90.1329 265.913C88.9111 265.059 87.9121 263.711 87.9121 262.918C87.9121 261.882 89.1419 261.478 92.3007 261.478C95.3806 261.478 96.8701 261.949 97.2957 263.057C97.6294 263.926 97.9021 265.017 97.9021 265.483C97.9021 265.949 96.8901 266.525 95.6544 266.763C94.4186 267.002 97.4526 267.228 102.398 267.268C108.05 267.314 110.631 267.035 109.349 266.515C108.059 265.993 105.373 261.615 102.039 254.598C99.1409 248.499 96.4056 243.508 95.9601 243.508C95.5155 243.508 92.974 248.046 90.3117 253.593ZM131.645 245.062C133.642 246.459 133.866 247.466 133.866 255.046C133.866 262.144 133.55 263.79 131.868 265.471L129.87 267.468H134.976H140.082L137.923 265.721C136.013 264.173 135.8 263.148 136.065 256.759L136.364 249.545L144.272 258.506C148.621 263.435 152.554 267.468 153.013 267.468C153.472 267.468 153.846 262.777 153.846 257.042V246.616L156.067 245.062L158.287 243.508H153.115H147.943L150.395 245.959C151.925 247.487 152.847 249.552 152.847 251.45C152.847 253.122 152.483 254.49 152.039 254.49C151.594 254.49 149.096 252.019 146.487 248.999L141.743 243.508H135.584H129.426L131.645 245.062ZM165.684 254.013C162.895 259.791 159.664 265.182 158.505 265.993L156.399 267.468H162.338H168.277L166.057 265.913C164.835 265.059 163.836 263.711 163.836 262.918C163.836 261.876 165.08 261.478 168.332 261.478C170.804 261.478 172.827 261.89 172.827 262.394C172.827 262.898 173.086 263.986 173.403 264.811C173.792 265.826 173.227 266.454 171.654 266.753C170.377 266.997 173.377 267.228 178.322 267.268C184.062 267.315 186.565 267.04 185.247 266.505C183.936 265.975 181.222 261.618 177.825 254.588C174.88 248.494 172.085 243.508 171.613 243.508C171.142 243.508 168.474 248.235 165.684 254.013ZM191.558 244.537L193.806 245.441V255.488V265.535L191.558 266.439C189.924 267.095 191.475 267.359 197.244 267.405C203.97 267.458 204.908 267.271 203.409 266.176C202.177 265.276 201.74 263.862 201.969 261.511C202.15 259.656 202.79 257.976 203.393 257.779C203.995 257.582 205.725 259.29 207.239 261.575C209.43 264.883 209.715 265.903 208.641 266.583C207.828 267.098 210.271 267.416 214.785 267.382C218.906 267.352 221.509 267.023 220.568 266.649C219.627 266.276 216.817 263.075 214.324 259.536C211.83 255.997 209.79 252.693 209.79 252.192C209.79 251.692 210.973 250.319 212.42 249.142C213.865 247.965 216.444 246.215 218.148 245.255L221.248 243.508H214.828H208.41L210.349 244.93L212.288 246.353L207.293 251.153L202.298 255.953L201.974 252.588C201.796 250.736 201.909 248.193 202.225 246.937C202.54 245.68 203.585 244.447 204.546 244.196C205.507 243.945 202.473 243.715 197.802 243.686C191.792 243.65 189.967 243.898 191.558 244.537ZM233.802 254.416C230.665 260.77 227.552 265.744 226.347 266.329C224.732 267.111 225.706 267.334 230.769 267.337C235.331 267.34 236.635 267.087 235.154 266.489C233.994 266.021 232.789 264.971 232.476 264.154C232.162 263.339 232.175 262.403 232.504 262.075C232.831 261.746 234.751 261.478 236.769 261.478C239.688 261.478 240.665 261.975 241.547 263.911C242.526 266.056 242.397 266.395 240.46 266.77C239.251 267.005 242.02 267.257 246.614 267.332L254.967 267.468L252.87 265.721C251.717 264.76 248.535 259.368 245.797 253.741C243.06 248.113 240.454 243.508 240.005 243.508C239.555 243.508 236.764 248.417 233.802 254.416ZM39.8102 257.482L40.8552 260.48H37.9101C35.9031 260.48 34.9651 259.981 34.9651 258.916C34.9651 258.057 35.4376 256.471 36.014 255.394C36.5914 254.317 37.4456 253.672 37.9141 253.96C38.3817 254.25 39.2348 255.834 39.8102 257.482ZM94.8702 259.232C94.8892 259.918 93.8562 260.48 92.5744 260.48C91.2917 260.48 89.961 260.198 89.6174 259.854C89.2727 259.509 89.7003 257.857 90.5685 256.18L92.1449 253.133L93.4895 255.558C94.2288 256.892 94.8502 258.546 94.8702 259.232ZM169.669 256.034C170.308 257.433 170.829 259.005 170.829 259.528C170.829 260.051 169.433 260.48 167.725 260.48C165.161 260.48 164.746 260.176 165.341 258.732C165.737 257.772 166.287 256.199 166.563 255.238C166.84 254.278 167.392 253.491 167.788 253.491C168.186 253.491 169.032 254.635 169.669 256.034ZM238.236 256.436C239.074 258.057 239.76 259.629 239.76 259.93C239.76 260.233 238.412 260.48 236.763 260.48C234.709 260.48 233.766 259.987 233.766 258.916C233.766 258.057 234.232 256.484 234.8 255.422C235.37 254.36 236.032 253.491 236.274 253.491C236.515 253.491 237.398 254.817 238.236 256.436Z" fill="black" style="fill:black;fill-opacity:1;"/>
</svg>
