<svg width="320" height="120" viewBox="0 0 256 268" fill="none" xmlns="http://www.w3.org/2000/svg">
<path fill-rule="evenodd" clip-rule="evenodd" d="M106.806 2.0553C101.586 3.14549 93.5729 5.55845 89.0005 7.41735C84.427 9.27626 77.2342 12.9451 73.0164 15.5698C68.7977 18.1954 61.5829 23.9488 56.9825 28.3565C52.3811 32.7641 46.7017 39.0656 44.3611 42.3601C42.0194 45.6546 38.2562 52.042 35.9974 56.5545C33.7387 61.0669 30.7437 68.7042 29.3421 73.5262C27.9355 78.3681 26.6139 85.8696 26.3901 90.2803C25.9855 98.2669 25.9854 98.2669 26.8945 90.458C27.394 86.1631 28.7347 79.1997 29.8726 74.9837C31.0114 70.7678 34.1693 62.806 36.8896 57.2912C39.7087 51.5788 44.7457 43.654 48.5968 38.8729C52.3151 34.2566 59.1513 27.421 63.7896 23.6823C68.5719 19.8267 76.5718 14.7272 82.2711 11.9009C88.0044 9.05863 96.6108 5.81903 102.31 4.35946C108.503 2.77311 116.507 1.58209 123.367 1.22469C130.072 0.876268 137.742 1.13283 142.825 1.8756C147.439 2.54947 154.821 4.23167 159.229 5.61236C163.638 6.99406 171.157 10.1338 175.939 12.5897C180.719 15.0456 187.462 19.1987 190.924 21.8194C194.384 24.44 200.004 29.5675 203.414 33.2124C206.823 36.8583 211.368 42.429 213.515 45.5927C215.662 48.7565 218.549 53.5914 219.93 56.3368C221.312 59.0823 223.638 64.657 225.099 68.7252C226.561 72.7924 228.374 79.5312 229.129 83.7002C229.885 87.8683 230.543 89.9039 230.592 88.2237C230.642 86.5445 229.739 81.3781 228.587 76.7428C227.434 72.1085 224.568 64.2187 222.216 59.209C219.866 54.2004 216.13 47.4616 213.915 44.234C211.701 41.0074 207.581 35.8031 204.76 32.6693C201.938 29.5365 195.991 24.2323 191.545 20.8839C187.097 17.5345 180.26 13.1837 176.351 11.215C172.442 9.24531 166.096 6.56079 162.25 5.24798C158.404 3.93517 151.49 2.20206 146.885 1.3964C142.279 0.589743 133.513 -0.0372153 127.404 0.00171976C120.438 0.0466449 112.758 0.811377 106.806 2.0553ZM107.805 4.81669C103.134 5.85097 96.3611 7.81869 92.7527 9.1904C89.1443 10.5611 84.1992 12.6966 81.7637 13.9345C79.3281 15.1724 74.7787 17.9169 71.6538 20.0323C68.5289 22.1488 63.1683 26.4656 59.7407 29.6263C56.3141 32.7861 50.9935 38.7541 47.9185 42.8872C44.8436 47.0204 40.6758 53.7591 38.6558 57.8623C36.6368 61.9654 33.7996 69.3651 32.3521 74.3069C30.6358 80.1631 29.524 86.855 29.1583 93.5248C28.8496 99.1525 28.1972 103.758 27.7087 103.758C27.2202 103.758 26.476 102.826 26.0544 101.687C25.6328 100.548 24.9685 99.6586 24.5779 99.7105C24.1872 99.7625 22.5239 99.1105 20.8815 98.2619C17.9575 96.7505 17.8945 96.7694 17.8945 99.1634C17.8945 100.508 18.9325 102.878 20.2002 104.43C21.9774 106.605 22.7736 109.448 23.6737 116.827C24.3171 122.093 26.1723 130.469 27.7986 135.442C29.424 140.414 32.5399 148.01 34.7217 152.323C36.9046 156.636 40.9225 163.309 43.6508 167.152C46.3801 170.996 51.448 177.219 54.9146 180.982C58.3811 184.745 65.8476 191.101 71.5079 195.109C77.1683 199.115 85.2113 203.813 89.3821 205.548C93.5519 207.283 100.415 209.617 104.633 210.737C110.622 212.324 115.471 212.777 126.786 212.803C136.83 212.827 143.722 212.311 149.263 211.121C153.659 210.177 160.631 208.106 164.757 206.519C168.883 204.931 176.072 201.286 180.734 198.419C185.396 195.552 193.164 189.397 197.996 184.742C202.829 180.087 208.971 173.326 211.647 169.718C214.323 166.111 218.325 159.789 220.543 155.671C222.76 151.553 225.91 144.14 227.542 139.199C229.175 134.257 231.223 125.979 232.094 120.803C232.965 115.627 233.679 110.521 233.679 109.454C233.679 108.388 235.027 105.98 236.676 104.104C238.324 102.228 239.673 99.5698 239.673 98.1971C239.673 96.0866 239.39 95.852 237.843 96.6796C236.836 97.2187 235.432 98.3568 234.723 99.2104C234.014 100.064 233.064 100.763 232.612 100.763C232.16 100.763 231.622 98.6293 231.416 96.0207C231.077 91.7298 231.024 91.8726 230.862 97.5182C230.763 100.95 230.294 103.758 229.821 103.758C229.346 103.758 228.646 99.8273 228.263 95.0224C227.88 90.2184 226.871 83.1422 226.019 79.2986C225.168 75.455 223.091 68.9408 221.404 64.8227C219.717 60.7045 216.581 54.3911 214.436 50.7921C212.291 47.1941 208.142 41.4237 205.217 37.9704C202.292 34.5172 197.047 29.2759 193.562 26.3229C190.076 23.3708 184.333 19.2566 180.799 17.1821C177.263 15.1065 171.454 12.1585 167.889 10.632C164.323 9.10454 157.999 6.92718 153.836 5.79407C148.264 4.2766 142.31 3.62768 131.281 3.33517C119.195 3.0147 114.654 3.30122 107.805 4.81669ZM139.273 7.028C144.218 7.633 151.993 9.20838 156.553 10.5282C161.111 11.848 167.63 14.3328 171.038 16.05C174.446 17.7671 179.708 20.85 182.73 22.8996C185.752 24.9491 190.558 28.7239 193.411 31.2886C196.263 33.8533 201.128 39.3112 204.221 43.4184C207.313 47.5245 211.584 54.3581 213.71 58.6021C215.837 62.847 218.488 69.1595 219.602 72.6297C220.717 76.0989 222.064 81.4899 222.598 84.6097C223.132 87.7285 223.708 92.9758 223.879 96.2703C224.188 102.26 224.188 102.26 219.879 101.936C215.568 101.612 215.568 101.612 217.156 104.681C218.03 106.369 219.381 107.751 220.159 107.751C220.936 107.751 221.852 108.201 222.191 108.751C222.532 109.302 222.097 113.551 221.226 118.196C220.356 122.84 218.48 130.139 217.058 134.417C215.637 138.694 212.732 145.567 210.604 149.69C208.475 153.813 203.825 160.864 200.269 165.357C196.714 169.851 190.903 175.912 187.359 178.826C183.814 181.74 178.413 185.631 175.357 187.473C172.3 189.315 167.174 191.882 163.965 193.177C160.757 194.473 155.462 196.28 152.199 197.192C148.624 198.193 140.847 199.045 132.63 199.337C122.293 199.702 116.973 199.415 110.652 198.149C106.063 197.231 98.7957 194.972 94.499 193.128C90.2033 191.284 84.1763 188.279 81.1044 186.451C78.0334 184.622 71.6068 179.426 66.8226 174.904C62.0394 170.383 55.7827 163.297 52.9195 159.158C50.0564 155.019 45.9355 147.839 43.7607 143.203C41.5869 138.567 38.9355 131.366 37.8696 127.2C36.8036 123.035 35.6388 117.422 35.2812 114.728C34.7047 110.388 34.9296 109.475 37.2522 106.717C38.6928 105.006 39.8726 102.735 39.8726 101.671C39.8726 99.8313 39.6948 99.8114 36.1992 101.272C34.1393 102.131 32.1473 102.427 31.6638 101.944C31.1803 101.461 31.3022 96.9551 31.9405 91.6879C32.5669 86.5215 34.2053 78.6996 35.5819 74.3069C36.9585 69.9142 39.6528 63.1754 41.5709 59.3318C43.488 55.4882 47.2761 49.3495 49.9884 45.6896C52.7007 42.0307 57.9135 36.2383 61.5709 32.819C65.2282 29.3997 71.3161 24.6007 75.0994 22.1558C78.8826 19.7099 84.8496 16.4074 88.3591 14.817C91.8696 13.2267 98.0174 11.0313 102.021 9.93716C106.026 8.84398 112.45 7.54914 116.296 7.06095C120.142 6.57277 124.863 6.11753 126.786 6.04964C128.709 5.98175 134.328 6.42201 139.273 7.028ZM97.4694 51.8381C97.1287 53.8977 96.8566 57.9092 96.8786 59.831C96.9205 63.3252 96.9205 63.3252 98.6158 60.8293C99.5489 59.4566 101.303 57.3232 102.515 56.0872C104.567 53.9937 105.571 53.841 117.25 53.841C129.783 53.841 129.783 53.841 129.783 75.1674C129.783 89.5434 129.338 96.4099 129.338 98.0593C131.111 100.085 131.582 100.843 132.869 102.46C134.692 104.751 135.424 106.123 137.073 107.579C137.243 104.611 137.362 97.042 137.541 79.2856C137.808 52.8426 137.808 52.8427 148.312 52.8427C155.233 52.8427 160.001 53.3368 162.287 54.2912C164.358 55.1558 166.656 57.2633 167.988 59.5195C169.752 62.5075 170.295 62.9089 170.579 61.4333C170.777 60.407 170.579 55.8033 170.579 52.2108C170.579 47.9448 169.599 48.8493 133.838 48.8493C97.457 48.9305 98.0888 48.0943 97.4694 51.8381ZM78.6648 72.3402C77.1453 73.1648 75.5029 75.2872 74.8466 77.2759C74.2122 79.1947 74.0015 81.7824 74.3771 83.0263C74.7527 84.2703 75.7128 86.7022 76.512 88.4293C77.4081 90.3681 78.8946 91.7478 80.3961 92.0343C81.7347 92.2899 82.8296 92.3069 82.8296 92.0723C82.8296 91.8367 81.7078 90.1744 80.3362 88.3774C78.9645 86.5814 77.3451 83.6832 76.7357 81.9382C75.8356 79.3575 75.9325 78.3022 77.2542 76.2866C78.474 74.4267 79.7547 73.8077 82.3851 73.8077C84.3131 73.8077 87.445 74.4566 89.3461 75.2503C91.2462 76.044 93.9285 77.82 95.3071 79.1987C97.8146 81.7035 97.8146 81.7035 97.8146 117.579C97.8146 150.575 97.6708 153.631 96.0244 155.662C95.0404 156.877 92.0284 158.431 89.3321 159.115C86.6358 159.799 84.2572 160.877 84.0454 161.51C83.7667 162.347 88.2922 162.66 100.729 162.66C110.115 162.66 117.795 162.258 117.795 161.768C117.795 161.278 117.083 160.604 116.214 160.271C115.345 159.937 113.728 159.665 112.619 159.665C111.511 159.665 109.137 158.969 107.345 158.119C105.552 157.269 103.464 155.36 102.704 153.876C101.63 151.78 101.252 143.78 101.005 117.984C100.804 96.7954 101.042 84.7894 101.667 84.7894C102.204 84.7894 116.245 102.31 132.869 123.725C149.493 145.139 163.691 162.66 164.42 162.66C165.501 162.66 165.747 155.261 165.747 122.773C165.747 94.7638 166.09 82.1338 166.9 80.3588C167.533 78.9681 169.923 76.9255 172.21 75.8194C174.497 74.7132 177.124 73.8077 178.05 73.8077C178.975 73.8077 179.733 73.1338 179.733 72.3102C179.733 71.0413 177.291 70.8127 163.749 70.8127C150.206 70.8127 147.765 71.0413 147.765 72.3102C147.765 73.3125 148.768 73.8077 150.794 73.8077C152.46 73.8077 155.346 74.4436 157.207 75.2204C159.068 75.9981 161.076 77.5405 161.671 78.6496C162.376 79.9674 162.75 91.2467 162.75 111.238C162.75 130.249 162.391 141.591 161.803 141.227C161.282 140.906 148.668 124.931 133.772 105.728C106.689 70.8127 106.689 70.8127 94.0094 70.8526C84.8925 70.8816 80.5819 71.2989 78.6648 72.3402ZM235.899 102.981C234.709 104.171 233.391 104.802 232.972 104.383C232.553 103.963 233.32 102.784 234.678 101.761C236.035 100.738 237.352 100.108 237.605 100.359C237.857 100.612 237.089 101.792 235.899 102.981ZM26.9075 109.514C26.9195 111.016 27.7867 116.12 28.8356 120.859C29.8836 125.597 31.9495 133.01 33.424 137.332C34.8995 141.653 37.9535 148.767 40.2103 153.139C42.467 157.511 46.8316 164.475 49.9105 168.614C52.9894 172.752 58.3961 178.802 61.9255 182.058C65.456 185.314 71.412 189.962 75.1613 192.387C78.9105 194.811 84.9745 198.152 88.6358 199.812C92.2982 201.471 99.5699 203.966 104.797 205.354C112.818 207.486 116.555 207.887 128.784 207.926C140.742 207.965 144.817 207.574 152.138 205.686C157.016 204.428 163.79 202.207 167.189 200.749C170.59 199.293 176.489 196.306 180.299 194.112C184.761 191.543 190.957 186.393 197.715 179.636C205.329 172.024 209.641 166.707 213.443 160.242C216.324 155.342 220.089 147.705 221.81 143.27C223.53 138.834 225.995 130.713 227.289 125.222C228.583 119.731 229.903 113.105 230.222 110.497C230.543 107.888 231.128 105.754 231.525 105.754C231.921 105.754 231.927 109.686 231.537 114.49C231.147 119.295 229.65 126.937 228.21 131.475C226.77 136.011 224.236 142.75 222.579 146.45C220.921 150.148 218.159 155.422 216.442 158.167C214.724 160.913 211.231 165.854 208.681 169.149C206.129 172.443 200.932 178.198 197.132 181.936C193.332 185.674 187.3 190.676 183.729 193.051C180.157 195.425 174.538 198.716 171.241 200.363C167.944 202.009 161.478 204.545 156.871 205.996C152.263 207.448 144.059 209.156 138.639 209.791C131.175 210.667 126.392 210.667 118.929 209.791C113.508 209.156 105.304 207.448 100.697 205.996C96.0894 204.545 89.6228 202.006 86.3261 200.356C83.0294 198.705 77.1923 195.276 73.3541 192.736C69.517 190.196 62.6997 184.426 58.2062 179.915C53.7117 175.404 47.5219 167.939 44.451 163.327C41.3801 158.713 37.3421 151.622 35.478 147.568C33.6149 143.515 30.9365 136.523 29.5269 132.033C28.1173 127.542 26.402 119.905 25.7147 115.061C24.8246 108.781 23.9535 105.879 22.6787 104.949C21.6957 104.232 20.9045 102.884 20.9205 101.954C20.9425 100.706 21.7257 101.116 23.9175 103.524C25.6648 105.444 26.8945 107.907 26.9075 109.514ZM36.8756 104.305C36.8756 104.605 35.7457 105.841 34.3651 107.05C31.8546 109.249 31.8546 109.249 33.2961 118.017C34.0884 122.84 35.6928 129.656 36.8606 133.164C38.0284 136.672 40.8956 143.284 43.2312 147.856C45.5659 152.429 49.8286 159.401 52.7028 163.349C55.5769 167.298 61.1473 173.507 65.0824 177.146C69.0164 180.786 75.8027 185.959 80.1623 188.64C84.522 191.321 91.8955 194.891 96.5489 196.574C101.201 198.256 109.121 200.352 114.148 201.23C120.658 202.368 126.309 202.659 133.779 202.242C139.548 201.919 147.865 200.739 152.26 199.618C156.656 198.498 164.041 195.77 168.672 193.558C173.303 191.346 179.822 187.582 183.157 185.194C186.494 182.806 192.197 177.763 195.833 173.988C199.468 170.212 204.701 163.667 207.461 159.441C210.221 155.216 213.924 148.292 215.689 144.055C217.454 139.818 219.925 132.274 221.181 127.293C222.437 122.31 223.777 115.91 224.159 113.068C224.826 108.118 224.737 107.838 222.023 106.369C220.467 105.526 219.688 104.818 220.293 104.796C220.898 104.774 222.846 105.262 224.622 105.881C227.852 107.006 227.852 107.006 227.147 113.119C226.761 116.482 225.598 122.469 224.565 126.424C223.532 130.379 220.893 137.748 218.701 142.798C216.509 147.848 212.627 155.33 210.073 159.423C207.521 163.517 201.785 170.568 197.327 175.093C192.871 179.617 186.354 185.242 182.849 187.591C179.342 189.941 172.727 193.618 168.147 195.763C163.567 197.908 156.321 200.623 152.044 201.798C145.794 203.515 141.328 203.949 129.283 204.012C116.58 204.079 113.015 203.74 105.874 201.79C101.24 200.525 94.2002 197.99 90.2292 196.156C86.2582 194.323 79.8037 190.751 75.8856 188.218C71.9685 185.685 65.7097 180.562 61.9785 176.833C58.2472 173.104 52.8297 166.706 49.9395 162.613C47.0484 158.521 42.8985 151.644 40.7157 147.331C38.5339 143.018 35.49 135.606 33.9515 130.859C32.413 126.112 30.5779 119.115 29.8726 115.313C28.5908 108.399 28.5909 108.399 31.2902 106.078C32.7757 104.802 34.6388 103.758 35.433 103.758C36.2263 103.758 36.8756 104.004 36.8756 104.305ZM129.414 143.179C129.414 152.743 129.545 161.791 129.212 162.66C128.703 163.984 127.783 163.658 134.206 163.658C139.47 163.658 137.807 164.463 136.841 162.66C136.273 161.597 136.841 153.903 136.841 146.921C136.841 139.264 137.073 132.969 137.073 130.532C136.489 130.019 135.349 128.762 135.03 128.44C132.535 125.924 131.875 125.119 129.338 122.129C129.338 135.021 129.414 133.615 129.414 143.179Z" fill="white" style="fill:white;fill-opacity:1;"/>
<path fill-rule="evenodd" clip-rule="evenodd" d="M0.757812 248.499C0.757812 251.245 1.19142 253.491 1.72189 253.491C2.25136 253.491 3.20739 252.481 3.84476 251.245C4.48212 250.009 5.92466 247.988 7.05054 246.752C8.17641 245.516 9.48411 244.506 9.95663 244.506C10.4292 244.506 10.6879 249.316 10.532 255.195L10.2483 265.885L7.75082 266.576C6.32225 266.973 9.09947 267.284 14.2443 267.305C20.565 267.33 22.568 267.074 20.9876 266.439L18.7398 265.535V255.021C18.7398 249.238 19.0895 244.506 19.5161 244.506C19.9436 244.506 21.2304 245.162 22.3762 245.964C23.5211 246.765 25.0246 248.787 25.7169 250.456C26.4082 252.125 27.3692 253.491 27.8517 253.491C28.3352 253.491 28.7299 251.245 28.7299 248.499V243.508H14.7438H0.757812V248.499ZM36.1824 253.605C33.4572 259.158 30.1554 264.549 28.8447 265.585L26.4621 267.468L32.8407 267.389C36.3492 267.346 38.545 267.07 37.7209 266.775C36.8967 266.481 35.6609 265.532 34.9736 264.667C34.2873 263.801 33.7249 262.73 33.7249 262.286C33.7249 261.841 35.6999 261.478 38.1135 261.478C41.1934 261.478 42.6829 261.949 43.1085 263.057C43.4422 263.926 43.7149 265.016 43.7149 265.479C43.7149 265.943 42.9277 266.528 41.9666 266.78C41.0056 267.031 44.0395 267.236 48.7099 267.236C53.3802 267.236 56.3792 267.024 55.3742 266.764C54.2044 266.463 51.618 262.192 48.1894 254.9C45.2433 248.634 42.4521 243.508 41.9856 243.508C41.519 243.508 38.9077 248.051 36.1824 253.605ZM55.7618 249.248C55.8108 254.081 56.0086 254.693 57.0106 253.121C57.6649 252.094 59.1155 249.851 60.2333 248.136C61.3522 246.422 63.0375 244.871 63.9796 244.69C65.5051 244.396 65.6909 245.437 65.6779 254.167C65.6689 259.561 65.3322 264.483 64.9286 265.106C64.5251 265.729 63.2953 266.463 62.1964 266.737C61.0975 267.012 64.2443 267.227 69.1894 267.216C74.1344 267.205 77.2144 267.008 76.0345 266.777C74.8547 266.546 73.624 265.371 73.3013 264.167C72.9776 262.962 72.7069 258.047 72.6999 253.242C72.6889 246.38 72.9886 244.506 74.0955 244.506C74.8707 244.506 76.6379 245.852 78.0226 247.496C79.4072 249.14 80.8277 251.393 81.1804 252.502C81.532 253.611 82.2384 254.261 82.7479 253.946C83.2574 253.631 83.6749 251.154 83.6749 248.441V243.508H69.6889H55.7029L55.7618 249.248ZM91.0695 253.593C88.4072 259.14 85.1444 264.531 83.8188 265.573L81.4072 267.468H87.2593H93.1105L90.8907 265.913C89.6689 265.059 88.6699 263.711 88.6699 262.918C88.6699 261.882 89.8997 261.478 93.0585 261.478C96.1385 261.478 97.628 261.949 98.0535 263.057C98.3872 263.926 98.6599 265.017 98.6599 265.483C98.6599 265.949 97.6479 266.525 96.4122 266.763C95.1764 267.002 98.2104 267.228 103.155 267.268C108.808 267.314 111.389 267.035 110.106 266.515C108.817 265.993 106.13 261.615 102.797 254.598C99.8987 248.499 97.1634 243.508 96.7179 243.508C96.2733 243.508 93.7318 248.046 91.0695 253.593ZM132.403 245.062C134.4 246.459 134.624 247.466 134.624 255.046C134.624 262.144 134.308 263.79 132.626 265.471L130.628 267.468H135.734H140.84L138.681 265.721C136.771 264.173 136.558 263.148 136.823 256.759L137.121 249.545L145.03 258.506C149.379 263.435 153.312 267.468 153.771 267.468C154.229 267.468 154.604 262.777 154.604 257.042V246.616L156.825 245.062L159.045 243.508H153.873H148.701L151.152 245.959C152.683 247.487 153.605 249.552 153.605 251.45C153.605 253.122 153.241 254.49 152.797 254.49C152.352 254.49 149.854 252.019 147.244 248.999L142.501 243.508H136.342H130.183L132.403 245.062ZM166.442 254.013C163.653 259.791 160.422 265.182 159.263 265.993L157.156 267.468H163.096H169.035L166.815 265.913C165.593 265.059 164.594 263.711 164.594 262.918C164.594 261.876 165.838 261.478 169.089 261.478C171.562 261.478 173.585 261.89 173.585 262.394C173.585 262.898 173.844 263.986 174.16 264.811C174.55 265.826 173.985 266.454 172.412 266.753C171.134 266.997 174.134 267.228 179.08 267.268C184.82 267.315 187.323 267.04 186.005 266.505C184.694 265.975 181.98 261.618 178.583 254.588C175.638 248.494 172.843 243.508 172.371 243.508C171.9 243.508 169.231 248.235 166.442 254.013ZM192.316 244.537L194.564 245.441V255.488V265.535L192.316 266.439C190.682 267.095 192.232 267.359 198.002 267.405C204.728 267.458 205.666 267.271 204.166 266.176C202.935 265.276 202.498 263.862 202.727 261.511C202.908 259.656 203.548 257.976 204.15 257.779C204.753 257.582 206.483 259.29 207.997 261.575C210.187 264.883 210.473 265.903 209.399 266.583C208.586 267.098 211.029 267.416 215.543 267.382C219.664 267.352 222.266 267.023 221.325 266.649C220.385 266.276 217.575 263.075 215.082 259.536C212.588 255.997 210.548 252.693 210.548 252.192C210.548 251.692 211.731 250.319 213.177 249.142C214.623 247.965 217.201 246.215 218.906 245.255L222.006 243.508H215.586H209.167L211.107 244.93L213.046 246.353L208.051 251.153L203.056 255.953L202.732 252.588C202.554 250.736 202.667 248.193 202.983 246.937C203.298 245.68 204.343 244.447 205.304 244.196C206.265 243.945 203.23 243.715 198.56 243.686C192.55 243.65 190.725 243.898 192.316 244.537ZM234.56 254.416C231.423 260.77 228.31 265.744 227.104 266.329C225.49 267.111 226.464 267.334 231.527 267.337C236.088 267.34 237.393 267.087 235.912 266.489C234.752 266.021 233.547 264.971 233.233 264.154C232.92 263.339 232.933 262.403 233.261 262.075C233.589 261.746 235.509 261.478 237.527 261.478C240.446 261.478 241.423 261.975 242.305 263.911C243.283 266.056 243.154 266.395 241.217 266.77C240.009 267.005 242.778 267.257 247.372 267.332L255.725 267.468L253.628 265.721C252.475 264.76 249.292 259.368 246.555 253.741C243.818 248.113 241.211 243.508 240.763 243.508C240.313 243.508 237.522 248.417 234.56 254.416ZM40.568 257.482L41.613 260.48H38.6679C36.6609 260.48 35.7229 259.981 35.7229 258.916C35.7229 258.057 36.1954 256.471 36.7718 255.394C37.3492 254.317 38.2034 253.672 38.6719 253.96C39.1395 254.25 39.9926 255.834 40.568 257.482ZM95.628 259.232C95.647 259.918 94.614 260.48 93.3322 260.48C92.0495 260.48 90.7188 260.198 90.3752 259.854C90.0305 259.509 90.4581 257.857 91.3263 256.18L92.9027 253.133L94.2473 255.558C94.9866 256.892 95.608 258.546 95.628 259.232ZM170.427 256.034C171.065 257.433 171.587 259.005 171.587 259.528C171.587 260.051 170.19 260.48 168.483 260.48C165.919 260.48 165.504 260.176 166.098 258.732C166.495 257.772 167.045 256.199 167.321 255.238C167.598 254.278 168.149 253.491 168.546 253.491C168.944 253.491 169.79 254.635 170.427 256.034ZM238.994 256.436C239.832 258.057 240.518 259.629 240.518 259.93C240.518 260.233 239.169 260.48 237.521 260.48C235.467 260.48 234.524 259.987 234.524 258.916C234.524 258.057 234.99 256.484 235.558 255.422C236.127 254.36 236.79 253.491 237.032 253.491C237.272 253.491 238.155 254.817 238.994 256.436Z" fill="white" style="fill:white;fill-opacity:1;"/>
</svg>
