<svg width="256" height="24" viewBox="0 0 256 24" fill="none" xmlns="http://www.w3.org/2000/svg">
<path fill-rule="evenodd" clip-rule="evenodd" d="M0.594727 5.0034C0.594727 7.74883 1.02834 9.99507 1.55881 9.99507C2.08828 9.99507 3.04431 8.98477 3.68167 7.74883C4.31903 6.51288 5.76158 4.49224 6.88745 3.2563C8.01333 2.02036 9.32102 1.01006 9.79355 1.01006C10.2661 1.01006 10.5248 5.82003 10.369 11.6992L10.0852 22.3884L7.58774 23.0803C6.15917 23.4766 8.93638 23.7881 14.0812 23.8091C20.4019 23.834 22.4049 23.5774 20.8245 22.9425L18.5768 22.039V11.5246C18.5768 5.74219 18.9264 1.01006 19.353 1.01006C19.7805 1.01006 21.0673 1.66596 22.2131 2.46762C23.358 3.26928 24.8615 5.29091 25.5538 6.96013C26.2451 8.62935 27.2061 9.99507 27.6886 9.99507C28.1721 9.99507 28.5668 7.74883 28.5668 5.0034V0.0117188H14.5807H0.594727V5.0034ZM36.0193 10.1089C33.2941 15.6616 29.9923 21.0527 28.6816 22.0889L26.299 23.9718L32.6776 23.8929C36.1861 23.85 38.3819 23.5735 37.5578 23.2789C36.7336 22.9844 35.4978 22.036 34.8105 21.1705C34.1242 20.3049 33.5618 19.2337 33.5618 18.7894C33.5618 18.3452 35.5368 17.9818 37.9504 17.9818C41.0303 17.9818 42.5198 18.453 42.9454 19.5611C43.2791 20.4297 43.5518 21.5199 43.5518 21.9831C43.5518 22.4473 42.7646 23.0323 41.8035 23.2839C40.8425 23.5345 43.8765 23.7402 48.5468 23.7402C53.2171 23.7402 56.2161 23.5275 55.2112 23.268C54.0413 22.9665 51.4549 18.6956 48.0263 11.4037C45.0803 5.13817 42.289 0.0117188 41.8225 0.0117188C41.3559 0.0117188 38.7446 4.55516 36.0193 10.1089ZM55.5988 5.75215C55.6477 10.5851 55.8455 11.1971 56.8475 9.62468C57.5018 8.59839 58.9524 6.35513 60.0703 4.63998C61.1891 2.92584 62.8744 1.37444 63.8165 1.19374C65.342 0.90023 65.5278 1.94049 65.5148 10.6709C65.5058 16.065 65.1692 20.9868 64.7656 21.6097C64.362 22.2327 63.1322 22.9665 62.0333 23.241C60.9344 23.5156 64.0813 23.7312 69.0263 23.7202C73.9714 23.7092 77.0513 23.5116 75.8715 23.281C74.6916 23.0503 73.4609 21.8753 73.1382 20.6713C72.8145 19.4663 72.5438 14.5505 72.5368 9.7455C72.5258 2.88393 72.8255 1.01006 73.9324 1.01006C74.7076 1.01006 76.4749 2.3558 77.8595 4.00006C79.2441 5.64432 80.6647 7.89657 81.0173 9.00572C81.369 10.1149 82.0753 10.7648 82.5848 10.4503C83.0943 10.1348 83.5118 7.65798 83.5118 4.9445V0.0117188H69.5258H55.5398L55.5988 5.75215ZM90.9064 10.0969C88.2441 15.6437 84.9813 21.0347 83.6557 22.0769L81.2441 23.9718H87.0963H92.9474L90.7276 22.4174C89.5059 21.5628 88.5068 20.215 88.5068 19.4223C88.5068 18.3861 89.7366 17.9818 92.8954 17.9818C95.9754 17.9818 97.4649 18.453 97.8904 19.5611C98.2241 20.4297 98.4968 21.5209 98.4968 21.9871C98.4968 22.4533 97.4848 23.0293 96.2491 23.267C95.0133 23.5056 98.0473 23.7322 102.992 23.7721C108.645 23.818 111.226 23.5385 109.943 23.0194C108.654 22.4972 105.967 18.1186 102.634 11.1022C99.7356 5.00242 97.0004 0.0117188 96.5548 0.0117188C96.1103 0.0117188 93.5687 4.55015 90.9064 10.0969ZM132.24 1.56613C134.237 2.9628 134.461 3.97012 134.461 11.5495C134.461 18.6477 134.145 20.2939 132.463 21.9751L130.465 23.9718H135.571H140.677L138.518 22.2247C136.608 20.6773 136.395 19.652 136.66 13.2626L136.958 6.04865L144.866 15.0097C149.216 19.9385 153.149 23.9718 153.608 23.9718C154.066 23.9718 154.441 19.2806 154.441 13.5462V3.11954L156.662 1.56613L158.881 0.0117188H153.71H148.538L150.989 2.46262C152.52 3.99107 153.442 6.05562 153.442 7.95346C153.442 9.62567 153.078 10.9934 152.634 10.9934C152.189 10.9934 149.691 8.52253 147.081 5.50256L142.338 0.0117188H136.179H130.02L132.24 1.56613ZM166.279 10.5172C163.49 16.2946 160.259 21.6856 159.1 22.4972L156.993 23.9718H162.932H168.871L166.652 22.4174C165.43 21.5628 164.431 20.215 164.431 19.4223C164.431 18.3801 165.675 17.9818 168.926 17.9818C171.399 17.9818 173.422 18.3941 173.422 18.8982C173.422 19.4024 173.681 20.4896 173.997 21.3152C174.387 22.3295 173.822 22.9575 172.249 23.257C170.971 23.5006 173.971 23.7322 178.916 23.7721C184.657 23.819 187.16 23.5435 185.841 23.0094C184.531 22.4793 181.817 18.1215 178.42 11.0922C175.475 4.9984 172.68 0.0117188 172.208 0.0117188C171.737 0.0117188 169.068 4.73886 166.279 10.5172ZM192.153 1.041L194.401 1.9445V11.9917V22.039L192.153 22.9425C190.519 23.5994 192.069 23.863 197.839 23.9089C204.565 23.9618 205.503 23.7751 204.003 22.6799C202.772 21.7794 202.335 20.3658 202.564 18.0147C202.745 16.1598 203.385 14.4796 203.987 14.2829C204.59 14.0863 206.32 15.7944 207.833 18.0786C210.024 21.3871 210.31 22.4074 209.236 23.0873C208.423 23.6014 210.865 23.9199 215.38 23.8859C219.501 23.856 222.103 23.5265 221.162 23.1532C220.222 22.7798 217.412 19.5791 214.918 16.04C212.425 12.5009 210.385 9.19641 210.385 8.69624C210.385 8.19608 211.568 6.82337 213.014 5.64633C214.46 4.46929 217.038 2.7192 218.743 1.7588L221.842 0.0117188H215.423H209.004L210.943 1.43433L212.882 2.85698L207.887 7.65697L202.892 12.457L202.569 9.09158C202.391 7.23967 202.504 4.6969 202.82 3.44099C203.135 2.18409 204.18 0.95115 205.141 0.69957C206.102 0.448987 203.067 0.219351 198.397 0.190399C192.387 0.153461 190.562 0.402065 192.153 1.041ZM234.397 10.9195C231.26 17.2739 228.147 22.2477 226.941 22.8327C225.327 23.6154 226.301 23.838 231.364 23.841C235.925 23.844 237.23 23.5914 235.749 22.9934C234.589 22.5252 233.384 21.4749 233.07 20.6583C232.757 19.8427 232.77 18.9072 233.098 18.5788C233.426 18.2503 235.346 17.9818 237.364 17.9818C240.283 17.9818 241.26 18.4789 242.142 20.4147C243.12 22.5601 242.991 22.8986 241.054 23.2739C239.846 23.5086 242.615 23.7611 247.209 23.836L255.562 23.9718L253.465 22.2247C252.312 21.2643 249.129 15.8723 246.392 10.2447C243.655 4.61705 241.048 0.0117188 240.6 0.0117188C240.15 0.0117188 237.359 4.92054 234.397 10.9195ZM40.4049 13.9864L41.4499 16.9834H38.5048C36.4978 16.9834 35.5598 16.4853 35.5598 15.42C35.5598 14.5605 36.0323 12.9751 36.6087 11.8979C37.1861 10.8207 38.0403 10.1758 38.5089 10.4643C38.9764 10.7538 39.8295 12.3382 40.4049 13.9864ZM95.4649 15.7355C95.4839 16.4224 94.4509 16.9834 93.1692 16.9834C91.8864 16.9834 90.5558 16.7019 90.2121 16.3575C89.8674 16.013 90.295 14.3608 91.1632 12.6836L92.7396 9.63667L94.0843 12.0616C94.8235 13.3964 95.4449 15.0497 95.4649 15.7355ZM170.264 12.5378C170.902 13.9365 171.424 15.5089 171.424 16.032C171.424 16.5552 170.027 16.9834 168.32 16.9834C165.756 16.9834 165.341 16.6799 165.935 15.2363C166.332 14.2759 166.881 12.7026 167.158 11.7422C167.435 10.7818 167.986 9.99507 168.383 9.99507C168.781 9.99507 169.627 11.1392 170.264 12.5378ZM238.831 12.9402C239.669 14.5605 240.355 16.1329 240.355 16.4344C240.355 16.7369 239.006 16.9834 237.358 16.9834C235.304 16.9834 234.361 16.4912 234.361 15.42C234.361 14.5605 234.826 12.9881 235.395 11.9259C235.964 10.8636 236.627 9.99507 236.868 9.99507C237.109 9.99507 237.992 11.3209 238.831 12.9402Z" fill="white" style="fill:white;fill-opacity:1;"/>
</svg>
