<svg width="1086" height="189" viewBox="0 0 1086 189" fill="none" xmlns="http://www.w3.org/2000/svg">
<path fill-rule="evenodd" clip-rule="evenodd" d="M81.6075 2.39084C70.9755 5.45746 65.5765 11.3889 65.6425 19.9302C65.7355 31.9099 71.6895 36.879 95.7445 45.0526C121.562 53.8258 124.614 70.9445 100.999 74.5177C89.1995 76.3023 64.7965 63.839 64.7965 56.0271C64.7965 55.4305 64.3465 54.9419 63.7965 54.9419C62.3915 54.9419 62.5545 60.047 64.2715 69.7964C66.2335 80.9337 68.5705 83.8744 70.6725 77.8491C71.2625 76.1594 72.0935 74.9603 72.5205 75.1852C99.3775 89.3441 127.319 80.1343 124.248 58.1354C122.805 47.7955 117.963 43.7296 98.5635 36.5652C81.0095 30.0823 77.1735 28.2827 74.2915 25.1761C64.1735 14.2726 86.1905 1.81628 102.297 9.33243C110.717 13.2614 117.341 20.176 116.076 23.7172C115.791 24.5156 116.202 24.7474 117.213 24.3597C119.187 23.6023 119.198 21.3971 117.271 12.1703C116.433 8.15539 116.053 4.37629 116.427 3.77176C116.835 3.11128 116.646 2.95745 115.952 3.38712C115.317 3.77882 114.797 3.6229 114.797 3.04136C114.797 1.12984 113.14 1.93521 112.02 4.39029C110.923 6.79742 110.923 6.7974 104.867 4.35331C97.4545 1.36164 87.9545 0.560268 81.6075 2.39084ZM171.758 4.23142C160.039 35.0504 145.325 68.0117 141.576 71.8428C138.908 74.5706 133.574 76.9038 129.974 76.9188C129.246 76.9218 128.796 77.6403 128.974 78.5136C129.422 80.7149 161.297 81.1425 161.297 78.9472C161.297 78.2018 159.405 76.9608 157.093 76.1904C151.649 74.3778 151.148 72.4413 154.128 64.7343C155.466 61.272 156.843 57.6058 157.188 56.5866C157.552 55.5085 158.408 54.9629 159.237 55.2807C162.571 56.5587 177.78 57.0403 183.738 56.0561C191.401 54.7901 190.156 53.7998 193.749 64.0149C197.118 73.5904 196.56 75.1292 189.226 76.5041C178.601 78.4966 185.513 80.4221 203.284 80.4221C223.195 80.4221 228.646 78.0549 214.576 75.5179C209.979 74.6885 205.479 71.0254 203.748 66.7028C203.029 64.9062 199.597 57.2072 196.122 49.5941C192.648 41.982 190.031 35.3882 190.307 34.9415C190.583 34.4948 190.436 33.9783 189.98 33.7934C189.524 33.6096 186.034 26.1553 182.224 17.2293C175.01 0.32744 173.809 -1.16338 171.758 4.23142ZM764.223 8.41019C762.663 12.495 761.103 15.6625 760.757 15.4487C760.412 15.2359 760.129 15.6225 760.129 16.309C760.129 18.3464 754.858 31.8019 750.278 41.4524C747.931 46.3986 745.288 52.5948 744.405 55.2217C739.999 68.3295 734.216 75.4409 727.096 76.5071C723.93 76.9817 722.78 77.5873 722.996 78.6654C723.407 80.7178 754.485 81.1755 755.266 79.1411C755.709 77.987 752.16 75.9256 749.731 75.9256C749.217 75.9256 748.796 75.4759 748.796 74.9264C748.796 74.3768 748.234 74.039 747.546 74.1769C745.463 74.5936 746.356 68.4394 749.388 61.4868C752.18 55.0818 752.18 55.0818 757.238 55.7613C763.517 56.6046 774.933 56.6396 780.458 55.8322C785.178 55.1427 786.364 56.7465 789.245 67.713C790.811 73.6753 789.879 74.9833 783.046 76.4062C772.605 78.5815 779.544 80.4251 797.546 80.2582C816.692 80.0814 820.309 78.8983 810.296 76.0885C804.535 74.4707 799.796 71.4361 799.796 69.3627C799.796 68.5753 799.429 67.9318 798.98 67.9318C798.531 67.9318 797.104 65.3468 795.809 62.1863C794.514 59.0257 792.205 53.7428 790.677 50.4454C784.235 36.5422 778.796 23.4025 778.796 21.7458C778.796 20.7685 778.422 19.9692 777.965 19.9692C777.508 19.9692 775.442 15.6975 773.374 10.4765C768.844 -0.959559 767.886 -1.17535 764.223 8.41019ZM1041.99 2.54368C1021.3 8.10634 1020.55 30.3001 1040.75 39.2641C1043.25 40.3753 1050.92 43.218 1057.8 45.5802C1072.83 50.7481 1076.8 54.0066 1076.8 61.2C1076.8 79.0931 1046.77 79.4418 1030.39 61.7386C1023.06 53.8218 1022.51 53.9747 1023.99 63.4973C1026.57 80.0104 1028.66 84.2021 1031.3 78.1109C1032.42 75.5169 1032.91 75.5559 1042.3 79.0012C1053.1 82.9641 1070.95 82.3086 1076.5 77.7431C1077.17 77.1986 1078.25 77.0857 1078.91 77.4923C1079.62 77.932 1079.84 77.8101 1079.46 77.1926C1079.11 76.62 1079.51 75.5749 1080.37 74.8694C1085.96 70.23 1086.67 57.1102 1081.73 49.657C1077.82 43.7576 1074.91 42.017 1060.8 37.1498C1038.26 29.3738 1032.8 25.9605 1032.8 19.6494C1032.8 6.47464 1056.56 2.4378 1069.55 13.4073C1071.34 14.9181 1072.51 16.6327 1072.14 17.2173C1071.78 17.8128 1071.96 17.9897 1072.56 17.619C1073.15 17.2553 1074.62 18.5623 1075.84 20.5357C1079.26 26.0604 1079.96 23.3935 1077.93 12.6658C1075.82 1.4945 1075.47 0.88504 1072.85 3.69785C1071.79 4.83596 1071.19 6.04001 1071.52 6.37375C1071.86 6.70649 1071.6 6.97928 1070.96 6.97928C1070.32 6.97928 1069.8 6.52965 1069.8 5.98008C1069.8 5.4305 1069.46 5.05175 1069.05 5.13968C1068.63 5.22662 1067.62 5.01181 1066.8 4.66208C1058.61 1.18679 1049.82 0.436316 1041.99 2.54368ZM2.10747 3.61393C1.27447 5.78324 2.77246 6.97928 6.32046 6.97928C11.6595 6.97928 11.7965 7.83556 11.7965 41.1956C11.7965 74.9653 11.9695 74.084 4.98346 75.9085C1.78446 76.7449 0.755458 77.4723 0.996458 78.7284C1.35646 80.6079 28.2225 81.895 29.9995 80.1194C31.6525 78.4676 29.6315 76.1174 25.9775 75.4399C18.6345 74.078 18.8805 75.2651 18.8265 40.9638C18.7715 6.44366 18.3995 8.11543 26.3485 7.22013C30.2715 6.77847 30.8585 6.41871 30.5985 4.61112C30.2285 2.04412 3.07547 1.09389 2.10747 3.61393ZM360.046 2.74558C325.626 3.00138 324.796 3.05432 324.796 4.99381C324.796 6.58957 325.47 6.97928 328.231 6.97928C339.396 6.97928 340.012 8.88974 339.617 42.2887C339.241 74.082 338.844 75.2821 328.435 76.1434C325.315 76.4012 323.081 78.3637 324.74 79.3879C329.543 82.3546 398.319 79.9704 398.939 76.8159C399.306 74.9523 400.089 71.0774 400.678 68.2036C402.302 60.2917 399.816 56.7595 397.365 63.4953C395.075 69.7894 394.134 70.7057 392.299 68.4314C390.717 66.472 390.707 66.4759 391.758 68.6473C393.897 73.0648 358.804 76.9348 349.378 73.3206C339.758 69.6325 348.751 44.9497 359.714 44.9497C373.442 44.9497 374.344 45.1745 376.376 49.1004C378.82 53.8238 379.796 51.4596 379.796 40.8109C379.796 30.1202 378.94 28.7872 375.759 34.5268C369.145 46.4645 347.796 38.0421 347.796 23.4954C347.796 8.9777 347.796 8.9777 359.224 8.9777C381.9 8.9777 390.196 11.1081 393.27 17.7209C396.491 24.6485 397.902 23.3036 397.708 13.4912C397.472 1.50858 400.743 2.44182 360.046 2.74558ZM427.215 3.11228C426.472 4.31534 429.819 6.97723 432.117 7.0112C438.338 7.10213 438.33 7.05423 437.952 40.749C437.57 74.9334 437.934 73.3086 430.227 75.2091C414.887 78.9922 422.342 80.4221 457.399 80.4221C490.102 80.4221 497.417 78.2098 492.265 69.8803C492.075 69.5725 492.306 67.6041 492.779 65.5067C494.638 57.2731 491.822 57.371 488.15 65.6665C484.204 74.5836 484.903 74.3188 465.936 74.073C456.784 73.9541 448.508 73.6184 447.546 73.3256C442.444 71.7738 445.56 8.53909 450.796 7.35801C456.144 6.15095 456.899 5.76123 456.603 4.36033C456.275 2.81053 428.141 1.61644 427.215 3.11228ZM546.811 4.94486C546.015 6.86536 545.68 12.0463 545.858 19.6834C546.115 30.6528 545.953 31.8389 543.493 36.9849C542.04 40.0245 540.393 45.87 539.832 49.9748C539.107 55.2846 537.631 59.7951 534.723 65.5956C527.977 79.0491 531.415 82.8512 550.296 82.8222C569.544 82.7932 573.252 79.2281 567.058 66.7078C564.524 61.5838 562.337 55.2087 561.309 49.9458C560.396 45.2745 558.724 39.429 557.593 36.9559C555.813 33.0649 555.564 30.7348 555.743 19.6624C556.009 3.29113 550.951 -5.04236 546.811 4.94486ZM617.332 2.92447C616.232 4.70309 617.615 5.77424 621.962 6.50766C631.395 8.10042 631.663 9.3035 628.368 35.2923C627.033 45.8251 625.629 58.3842 625.249 63.2025C624.537 72.2125 622.302 75.9256 617.592 75.9256C615.837 75.9256 613.796 77.914 613.796 79.6227C613.796 81.6162 642.363 81.4933 643.13 79.4958C643.86 77.5943 642.09 76.3292 637.558 75.5129C631.131 74.3558 630.615 70.4438 633.363 43.7096C636.207 16.0432 635.731 17.2073 640.411 26.4881C642.635 30.8986 645.256 35.7289 646.235 37.2228C647.255 38.7785 647.733 40.675 647.353 41.6642C646.989 42.6135 647.016 43.0651 647.413 42.6675C648.19 41.8911 656.428 56.6256 657.416 60.5595C657.744 61.8665 658.359 62.9357 658.783 62.9357C659.207 62.9357 660.113 64.2847 660.796 65.9334C662.753 70.6537 663.95 69.5715 669.416 58.1484C672.231 52.263 677.598 41.0437 681.341 33.2168C685.084 25.3909 688.294 19.1348 688.475 19.3156C689.359 20.199 693.796 60.1978 693.796 67.2873C693.796 74.036 693.035 75.0563 687.013 76.3772C677.251 78.5196 683.215 80.9217 698.296 80.9217C714.669 80.9217 717.955 79.1651 708.399 75.5189C702.02 73.0838 701.418 70.9155 698.282 39.0603C695.475 10.5425 695.758 8.77192 703.436 6.84043C707.706 5.76526 709.163 3.71983 706.41 2.66465C704.99 2.12007 688.023 3.39506 687.383 4.09452C687.188 4.30735 685.675 7.40395 684.02 10.9762C674.822 30.8327 666.387 48.8107 665.049 51.4077C663.525 54.3674 663.525 54.3674 661.352 49.9088C660.157 47.4558 657.96 43.283 656.47 40.636C654.98 37.9891 654.063 35.3342 654.433 34.7357C654.803 34.1382 654.658 33.9253 654.112 34.263C653.561 34.6028 649.663 27.766 645.369 18.9289C638.285 4.35228 637.391 2.97743 634.958 2.92447C633.494 2.8925 629.076 2.64064 625.141 2.36686C620.655 2.0531 617.742 2.26099 617.332 2.92447ZM828.849 3.32908C827.491 4.68602 829.451 6.97928 831.968 6.97928C840.268 6.97928 840.51 8.02346 840.385 43.336C840.272 75.0513 840.549 73.7703 833.31 76.1264C823.728 79.246 827.393 80.9217 843.796 80.9217C860.389 80.9217 864.091 79.179 853.79 76.2163C846.693 74.1749 846.792 74.6066 846.825 46.0079C846.855 20.4688 846.855 20.4688 849.974 23.966C851.689 25.8895 855.263 29.8235 857.916 32.7093C860.569 35.595 862.543 37.9552 862.302 37.9552C862.062 37.9552 864.662 40.8319 868.08 44.3471C876.061 52.5548 878.796 55.5934 878.796 56.2549C878.796 56.5477 880.033 58.0705 881.546 59.6393C884.531 62.7348 889.768 69.2968 891.171 71.6989C892.025 73.1608 893.031 74.4577 897.461 79.8066C901.041 84.1292 901.284 82.1368 901.612 45.7291C901.96 7.09518 901.694 8.59098 908.476 7.18308C918.693 5.06173 913.246 2.69764 898.296 2.76358C882.856 2.83153 879.327 4.56013 888.294 7.66172C890.492 8.42212 892.849 9.60226 893.532 10.2837C895.009 11.7596 895.921 39.6798 894.935 53.2043C894.209 63.1475 895.873 64.1877 877.731 42.4516C873.143 36.9559 869.14 32.2346 868.834 31.9598C868.529 31.685 865.132 27.873 861.287 23.4874C857.442 19.1028 853.396 14.7342 852.296 13.779C851.196 12.8237 850.58 12.0274 850.926 12.0084C851.273 11.9904 849.555 9.88796 847.109 7.33695C842.534 2.56666 831.939 0.24148 828.849 3.32908ZM927.08 3.68387C926.315 5.67732 927.753 6.97928 930.72 6.97928C938.585 6.97928 938.796 7.88354 938.796 41.5343C938.796 75.4639 939.114 73.9251 931.601 76.3612C922.61 79.275 926.874 80.9906 942.385 80.6988C958.158 80.4031 961.789 79.1451 953.61 76.8119C945.433 74.4787 945.794 75.8786 945.811 46.5434C945.826 20.4687 945.826 20.4688 949.277 24.4657C951.175 26.664 952.523 29.0481 952.273 29.7635C952.023 30.479 952.277 30.7817 952.836 30.436C953.751 29.8714 955.809 31.8968 966.463 43.8525C968.205 45.808 969.373 47.8224 969.059 48.331C968.744 48.8396 968.947 48.9715 969.509 48.6238C970.626 47.9344 975.467 53.6859 975.021 55.1728C974.87 55.6774 975.136 55.8492 975.613 55.5544C976.861 54.784 981.439 59.97 989.846 71.6789C1000.04 85.8788 999.407 87.4106 1000.04 47.078C1000.65 8.3332 1000.61 8.52705 1007.05 7.25504C1010.21 6.63053 1011.3 5.9451 1011.3 4.56717C1011.3 2.37488 983.232 1.4086 982.4 3.57291C981.705 5.3795 983.077 6.51361 987.53 7.8126C993.715 9.61719 993.8 10.0309 993.764 38.139C993.736 60.8913 993.581 63.2345 992.226 61.4369C989.814 58.2354 984.433 51.7894 982.719 50.0487C981.852 49.1674 979.827 46.6754 978.219 44.5091C976.611 42.3438 974.396 39.6238 973.296 38.4657C967.48 32.3415 964.809 28.8702 965.039 27.7331C965.181 27.0347 964.796 26.5561 964.186 26.667C963.105 26.8648 949.702 12.7668 948.888 10.5755C948.664 9.97194 947.644 8.88481 946.621 8.16037C945.599 7.43494 945.067 6.31082 945.44 5.66233C945.812 5.01283 945.744 4.81896 945.287 5.23264C944.831 5.64632 943.597 5.20569 942.545 4.25443C940.23 2.16106 927.841 1.70341 927.08 3.68387ZM235.797 4.3743C235.797 5.95607 237.916 6.97928 241.19 6.97928C247.622 6.97928 247.797 7.91652 247.797 42.3927C247.797 76.695 247.993 75.9256 239.255 75.9256C237.001 75.9256 235.303 78.3157 236.353 80.0124C237.098 81.2175 275.255 81.1245 284.733 79.8955C309.158 76.728 315.113 54.5572 294.427 43.8016C290.557 41.7892 290.557 41.7892 293.427 40.3053C295.006 39.489 297.23 37.9481 298.371 36.88C299.512 35.8128 300.822 35.2802 301.282 35.6979C301.741 36.1146 301.802 35.9077 301.416 35.2362C301.031 34.5658 301.409 32.6772 302.256 31.0395C307.624 20.6666 300.467 7.67477 287.538 4.32438C279.959 2.35991 235.797 2.40284 235.797 4.3743ZM286.745 11.2669C298.716 17.2073 299.05 31.1274 287.349 36.4753C277.862 40.8119 257.271 41.0737 256.43 36.869C254.21 25.7816 255.756 9.11065 259.047 8.63901C266.692 7.54387 282.209 9.01669 286.745 11.2669ZM550.512 17.7209C550.283 19.2327 550.096 17.9957 550.096 14.9731C550.096 11.9504 550.283 10.7134 550.512 12.2252C550.741 13.737 550.741 16.2091 550.512 17.7209ZM1034.8 14.9731C1034.8 15.7055 1035.1 16.0052 1035.46 15.6395C1035.83 15.2728 1035.83 14.6733 1035.46 14.3066C1035.1 13.9408 1034.8 14.2406 1034.8 14.9731ZM177.194 24.3088C189.062 50.3315 189.195 49.3532 173.797 49.3532C159.512 49.3532 160.075 49.7669 163.573 41.8461C165.125 38.3318 167.928 31.2973 169.804 26.2143C173.879 15.1669 173.114 15.3638 177.194 24.3088ZM771.362 24.7155C782.875 48.9836 782.804 49.3903 767.096 49.4242C754.408 49.4512 754.083 49.1574 757.713 40.9328C759.284 37.3716 761.258 32.6593 762.1 30.461C768.256 14.3755 766.866 15.2379 771.362 24.7155ZM554.899 39.454C555.994 41.927 557.507 47.4347 558.262 51.6944C559.016 55.9531 560.129 60.7264 560.734 62.3002C561.722 64.8732 561.654 65.08 560.065 64.3446C556.968 62.9137 543.836 62.6579 542.222 63.9969C539.952 65.8794 539.57 64.5674 541.149 60.3127C541.939 58.1834 543.278 52.6987 544.124 48.1242C546.674 34.334 551.067 30.7987 554.899 39.454ZM290.341 48.3271C308.925 60.1399 299.547 73.1707 272.047 73.7473C256.797 74.068 256.797 74.068 256.797 59.9021C256.797 45.912 276.076 39.2601 290.341 48.3271ZM300.797 46.9482C300.797 47.6806 301.097 47.9803 301.464 47.6146C301.83 47.2479 301.83 46.6484 301.464 46.2817C301.097 45.9159 300.797 46.2157 300.797 46.9482ZM552.781 71.3701C552.744 73.9331 551.228 74.9633 549.428 73.6473C547.949 72.5662 547.853 71.9097 548.812 69.4006C549.943 66.4399 552.831 67.8738 552.781 71.3701ZM110.797 68.931C110.797 69.6634 111.097 69.9632 111.464 69.5975C111.83 69.2308 111.83 68.6313 111.464 68.2646C111.097 67.8988 110.797 68.1986 110.797 68.931ZM545.148 70.9175C544.754 72.8889 545.126 74.7815 546.243 76.4851C547.936 79.0671 547.936 79.0671 543.116 78.3677C534.714 77.1496 533.252 75.6727 537.046 72.2394C542.586 67.2263 545.999 66.6698 545.148 70.9175ZM562.646 70.9355C567.368 74.3538 567.588 74.9503 564.774 76.7069C561.245 78.9082 552.99 79.6247 554.674 77.5823C555.432 76.663 556.1 74.116 556.157 71.9217C556.283 67.1374 557.205 66.9975 562.646 70.9355ZM62.7965 80.9217C62.7965 81.6541 63.0965 81.9539 63.4635 81.5882C63.8295 81.2215 63.8295 80.6219 63.4635 80.2552C63.0965 79.8895 62.7965 80.1892 62.7965 80.9217ZM447.285 160.876C446.906 161.49 446.753 162.075 446.946 162.176C450.565 164.07 451.185 164.817 451.096 167.182C451.041 168.65 450.951 173.042 450.896 176.941C450.808 183.143 450.546 184.094 448.796 184.551C442.465 186.206 447.161 187.838 458.251 187.838C469.705 187.838 469.705 187.838 470.35 184.406C471.234 179.695 469.906 177.788 468.117 181.201C466.856 183.606 466.2 183.842 460.764 183.842C454.347 183.842 450.8 165.259 456.851 163.341C457.981 162.982 458.733 162.164 458.522 161.524C458.015 159.984 448.187 159.419 447.285 160.876ZM482.253 161.722C469.978 169.201 474.972 188.342 489.197 188.336C491.827 188.335 494.412 187.541 496.409 186.118C498.121 184.899 499.851 184.224 500.254 184.621C500.657 185.017 500.871 184.666 500.731 183.842C500.59 183.017 500.997 181.077 501.636 179.53C506.686 167.286 493.301 154.99 482.253 161.722ZM509.796 161.324C509.796 162.129 510.633 163.235 511.656 163.782C514.111 165.095 513.811 182.603 511.302 184.451C508.636 186.416 509.685 187.629 514.37 188C519.345 188.396 522.629 186.458 519.159 185.176C516.242 184.097 515.828 182.844 515.811 175.051C515.797 168.461 526.564 173.911 526.76 180.594C526.78 181.282 527.221 181.843 527.739 181.843C528.258 181.843 529.488 183.205 530.472 184.87C533.948 190.75 535.058 188.43 534.867 175.682C534.702 164.629 534.802 163.99 536.799 163.357C540.196 162.279 538.499 160.386 533.832 160.046C528.321 159.644 526.412 161.299 529.605 163.71C531.668 165.268 531.891 166.182 531.694 172.269C531.473 179.083 531.473 179.083 527.896 174.718C517.207 161.672 509.796 156.188 509.796 161.324ZM543.796 161.309C543.796 162.107 544.584 163.199 545.546 163.736C548.83 165.572 548.713 182.196 545.401 184.364C539.307 188.354 559.105 189.775 565.606 185.814C574.745 180.246 573.234 165.555 563.078 161.23C558.525 159.292 543.796 159.352 543.796 161.309ZM581.343 162.951C569.193 173.611 579.578 193.008 594.406 187.35C599.749 185.311 602.831 180.718 602.954 174.613C603.202 162.288 590.135 155.237 581.343 162.951ZM609.796 161.292C609.796 162.08 610.696 163.009 611.796 163.358C614.865 164.331 614.84 183.213 611.768 184.856C608.627 186.535 610.413 187.838 615.855 187.838C621.025 187.838 622.187 186.654 618.796 184.841C617.058 183.912 616.799 182.761 616.818 176.063C616.84 168.131 620.274 169.877 629.296 182.41C634.941 190.25 634.715 190.394 634.878 178.845C634.96 173.075 634.947 167.57 634.849 166.612C634.747 165.602 635.759 164.375 637.26 163.691C641.258 161.872 639.686 160.36 633.796 160.36C627.94 160.36 626.329 161.87 630.27 163.663C632.649 164.747 632.796 165.255 632.796 172.423C632.796 180.034 632.796 180.034 629.317 175.873C616.892 161.013 609.796 155.712 609.796 161.292ZM495.757 166.314C500.598 171.462 499.135 180.969 493.115 183.482C489.2 185.117 484.803 184.326 484.781 181.985C484.768 180.66 484.597 180.61 483.89 181.725C482.718 183.575 479.898 179.352 479.202 174.705C478.71 171.412 482.119 163.846 483.481 165.208C483.799 165.526 484.89 165.203 485.907 164.492C488.442 162.717 493.204 163.598 495.757 166.314ZM565.046 167.819C571.453 174.959 566.645 183.842 556.373 183.842C550.796 183.842 550.796 183.842 550.796 173.709C550.796 162.488 557.701 159.633 565.046 167.819ZM594.821 164.87C597.753 166.438 600.122 172.301 599.393 176.184C597.149 188.133 581.124 186.474 580.127 174.188C579.464 166.001 587.457 160.931 594.821 164.87Z" fill="black" style="fill:black;fill-opacity:1;"/>
</svg>
