<svg width="285" height="60" viewBox="0 0 1085 189" fill="none" xmlns="http://www.w3.org/2000/svg" style="display: block;">
<path fill-rule="evenodd" clip-rule="evenodd" d="M81.3009 2.68381C70.6689 5.75042 65.2698 11.6818 65.3358 20.2232C65.4288 32.2029 71.3829 37.172 95.4379 45.3456C121.255 54.1188 124.307 71.2374 100.692 74.8106C88.8929 76.5953 64.4899 64.132 64.4899 56.32C64.4899 55.7235 64.0398 55.2349 63.4898 55.2349C62.0848 55.2349 62.2479 60.3399 63.9649 70.0893C65.9269 81.2267 68.2639 84.1674 70.3659 78.1421C70.9559 76.4524 71.7869 75.2533 72.2139 75.4781C99.0709 89.6371 127.012 80.4273 123.941 58.4284C122.498 48.0884 117.656 44.0226 98.2569 36.8582C80.7029 30.3752 76.8669 28.5757 73.9849 25.4691C63.8669 14.5656 85.8839 2.10925 101.99 9.6254C110.41 13.5543 117.034 20.4689 115.769 24.0102C115.484 24.8085 115.895 25.0404 116.906 24.6527C118.88 23.8953 118.891 21.69 116.964 12.4632C116.126 8.44836 115.746 4.66926 116.12 4.06473C116.528 3.40425 116.339 3.25042 115.645 3.68009C115.01 4.07178 114.49 3.91587 114.49 3.33432C114.49 1.42281 112.833 2.22817 111.713 4.68326C110.616 7.09039 110.616 7.09037 104.56 4.64628C97.1479 1.6546 87.6479 0.853237 81.3009 2.68381ZM171.451 4.52439C159.732 35.3434 145.018 68.3047 141.269 72.1357C138.601 74.8636 133.267 77.1968 129.667 77.2118C128.939 77.2148 128.489 77.9332 128.667 78.8066C129.115 81.0078 160.99 81.4355 160.99 79.2402C160.99 78.4948 159.098 77.2538 156.786 76.4834C151.342 74.6708 150.841 72.7343 153.821 65.0273C155.159 61.565 156.536 57.8988 156.881 56.8796C157.245 55.8015 158.101 55.2559 158.93 55.5736C162.264 56.8516 177.473 57.3333 183.431 56.349C191.094 55.083 189.849 54.0928 193.442 64.3078C196.811 73.8834 196.253 75.4222 188.919 76.7971C178.294 78.7895 185.206 80.7151 202.977 80.7151C222.888 80.7151 228.339 78.3479 214.269 75.8108C209.672 74.9815 205.172 71.3184 203.441 66.9958C202.722 65.1992 199.29 57.5001 195.815 49.8871C192.341 42.275 189.724 35.6811 190 35.2345C190.276 34.7878 190.129 34.2713 189.673 34.0864C189.217 33.9025 185.727 26.4483 181.917 17.5223C174.703 0.620409 173.502 -0.870412 171.451 4.52439ZM763.917 8.70316C762.357 12.788 760.797 15.9555 760.451 15.7417C760.106 15.5288 759.823 15.9155 759.823 16.602C759.823 18.6394 754.552 32.0949 749.972 41.7454C747.625 46.6915 744.982 52.8877 744.099 55.5147C739.693 68.6225 733.91 75.7339 726.79 76.8001C723.624 77.2747 722.474 77.8803 722.69 78.9584C723.101 81.0108 754.179 81.4685 754.96 79.4341C755.403 78.28 751.854 76.2185 749.425 76.2185C748.911 76.2185 748.49 75.7689 748.49 75.2193C748.49 74.6698 747.928 74.332 747.24 74.4699C745.157 74.8866 746.05 68.7323 749.082 61.7798C751.874 55.3747 751.874 55.3748 756.932 56.0542C763.211 56.8976 774.627 56.9325 780.152 56.1252C784.872 55.4357 786.058 57.0395 788.939 68.006C790.505 73.9683 789.573 75.2763 782.74 76.6992C772.299 78.8745 779.238 80.7181 797.24 80.5512C816.386 80.3743 820.003 79.1913 809.99 76.3814C804.229 74.7637 799.49 71.7291 799.49 69.6557C799.49 68.8683 799.123 68.2248 798.674 68.2248C798.225 68.2248 796.798 65.6398 795.503 62.4792C794.208 59.3187 791.899 54.0358 790.371 50.7384C783.929 36.8352 778.49 23.6954 778.49 22.0387C778.49 21.0615 778.116 20.2621 777.659 20.2621C777.202 20.2621 775.136 15.9904 773.068 10.7695C768.538 -0.666591 767.58 -0.882377 763.917 8.70316ZM1041.68 2.83664C1020.99 8.39931 1020.24 30.5931 1040.44 39.5571C1042.94 40.6682 1050.61 43.511 1057.49 45.8731C1072.53 51.0411 1076.49 54.2996 1076.49 61.493C1076.49 79.3861 1046.47 79.7348 1030.08 62.0316C1022.75 54.1148 1022.2 54.2677 1023.69 63.7903C1026.26 80.3034 1028.35 84.4951 1030.99 78.4038C1032.11 75.8099 1032.6 75.8488 1041.99 79.2942C1052.79 83.2571 1070.64 82.6016 1076.2 78.0361C1076.86 77.4915 1077.94 77.3786 1078.6 77.7853C1079.31 78.225 1079.54 78.1031 1079.16 77.4856C1078.8 76.913 1079.21 75.8678 1080.06 75.1624C1085.65 70.523 1086.36 57.4032 1081.42 49.95C1077.51 44.0506 1074.6 42.3099 1060.49 37.4427C1037.95 29.6668 1032.49 26.2534 1032.49 19.9424C1032.49 6.76761 1056.25 2.73077 1069.24 13.7002C1071.03 15.2111 1072.2 16.9257 1071.84 17.5102C1071.47 18.1058 1071.65 18.2827 1072.25 17.912C1072.84 17.5482 1074.31 18.8552 1075.53 20.8287C1078.95 26.3534 1079.66 23.6864 1077.62 12.9588C1075.51 1.78747 1075.16 1.17801 1072.54 3.99082C1071.48 5.12893 1070.88 6.33298 1071.22 6.66672C1071.55 6.99946 1071.3 7.27225 1070.66 7.27225C1070.01 7.27225 1069.49 6.82262 1069.49 6.27305C1069.49 5.72347 1069.15 5.34472 1068.74 5.43265C1068.33 5.51958 1067.31 5.30478 1066.49 4.95505C1058.3 1.47976 1049.51 0.729285 1041.68 2.83664ZM1.80083 3.9069C0.967825 6.07621 2.46582 7.27225 6.01382 7.27225C11.3528 7.27225 11.4898 8.12853 11.4898 41.4886C11.4898 75.2583 11.6628 74.3769 4.67682 76.2015C1.47782 77.0379 0.448817 77.7653 0.689817 79.0213C1.04982 80.9009 27.9158 82.1879 29.6928 80.4123C31.3458 78.7606 29.3248 76.4104 25.6708 75.7329C18.3278 74.3709 18.5738 75.558 18.5198 41.2567C18.4648 6.73663 18.0928 8.4084 26.0418 7.5131C29.9648 7.07144 30.5518 6.71168 30.2918 4.90409C29.9218 2.33709 2.76883 1.38686 1.80083 3.9069ZM359.74 3.03855C325.32 3.29435 324.49 3.34729 324.49 5.28678C324.49 6.88254 325.164 7.27225 327.925 7.27225C339.09 7.27225 339.706 9.1827 339.311 42.5817C338.935 74.3749 338.538 75.575 328.129 76.4364C325.009 76.6942 322.775 78.6567 324.434 79.6809C329.237 82.6476 398.013 80.2634 398.633 77.1089C399 75.2453 399.783 71.3703 400.372 68.4966C401.996 60.5847 399.51 57.0525 397.059 63.7882C394.769 70.0823 393.828 70.9986 391.993 68.7244C390.411 66.7649 390.401 66.7689 391.452 68.9402C393.591 73.3578 358.498 77.2277 349.072 73.6136C339.452 69.9254 348.445 45.2426 359.408 45.2426C373.136 45.2426 374.038 45.4675 376.07 49.3934C378.514 54.1167 379.49 51.7526 379.49 41.1039C379.49 30.4132 378.634 29.0802 375.453 34.8197C368.839 46.7574 347.49 38.335 347.49 23.7884C347.49 9.27067 347.49 9.27067 358.918 9.27067C381.594 9.27067 389.89 11.401 392.964 18.0139C396.185 24.9415 397.596 23.5966 397.402 13.7842C397.166 1.80154 400.437 2.73478 359.74 3.03855ZM426.909 3.40525C426.166 4.60831 429.513 7.2702 431.811 7.30417C438.032 7.3951 438.024 7.3472 437.646 41.042C437.264 75.2263 437.628 73.6016 429.921 75.5021C414.581 79.2852 422.036 80.7151 457.093 80.7151C489.796 80.7151 497.111 78.5028 491.959 70.1733C491.769 69.8655 492 67.897 492.473 65.7997C494.332 57.5661 491.516 57.664 487.844 65.9595C483.898 74.8766 484.597 74.6118 465.63 74.366C456.478 74.2471 448.202 73.9113 447.24 73.6186C442.138 72.0668 445.254 8.83206 450.49 7.65097C455.838 6.44391 456.593 6.0542 456.297 4.65329C455.969 3.1035 427.835 1.90941 426.909 3.40525ZM546.505 5.23783C545.709 7.15833 545.374 12.3393 545.552 19.9764C545.809 30.9458 545.647 32.1319 543.187 37.2779C541.734 40.3175 540.087 46.1629 539.526 50.2677C538.801 55.5776 537.325 60.0881 534.417 65.8886C527.671 79.3421 531.109 83.1441 549.99 83.1152C569.238 83.0862 572.946 79.521 566.752 67.0008C564.218 61.8768 562.031 55.5017 561.003 50.2388C560.09 45.5674 558.418 39.7219 557.287 37.2489C555.507 33.3579 555.258 31.0277 555.437 19.9554C555.703 3.5841 550.645 -4.7494 546.505 5.23783ZM617.026 3.21744C615.926 4.99606 617.309 6.0672 621.656 6.80063C631.089 8.39339 631.357 9.59647 628.062 35.5852C626.727 46.118 625.323 58.6772 624.943 63.4955C624.231 72.5054 621.996 76.2185 617.286 76.2185C615.531 76.2185 613.49 78.207 613.49 79.9157C613.49 81.9091 642.057 81.7862 642.824 79.7888C643.554 77.8873 641.784 76.6222 637.252 75.8058C630.825 74.6487 630.309 70.7368 633.057 44.0026C635.901 16.3361 635.425 17.5003 640.105 26.781C642.329 31.1916 644.95 36.0219 645.929 37.5157C646.949 39.0715 647.427 40.968 647.047 41.9572C646.683 42.9064 646.71 43.3581 647.107 42.9604C647.884 42.184 656.122 56.9186 657.11 60.8525C657.438 62.1595 658.053 63.2287 658.477 63.2287C658.901 63.2287 659.807 64.5776 660.49 66.2264C662.447 70.9467 663.644 69.8645 669.11 58.4414C671.925 52.556 677.292 41.3367 681.035 33.5098C684.778 25.6839 687.988 19.4278 688.169 19.6086C689.053 20.4919 693.49 60.4908 693.49 67.5802C693.49 74.329 692.729 75.3492 686.707 76.6702C676.945 78.8125 682.909 81.2146 697.99 81.2146C714.363 81.2146 717.649 79.458 708.093 75.8119C701.714 73.3768 701.112 71.2084 697.976 39.3532C695.169 10.8354 695.452 9.06489 703.13 7.1334C707.4 6.05823 708.857 4.01279 706.104 2.95762C704.684 2.41304 687.717 3.68803 687.077 4.38749C686.882 4.60032 685.369 7.69692 683.714 11.2691C674.516 31.1257 666.081 49.1037 664.743 51.7007C663.219 54.6604 663.219 54.6603 661.046 50.2018C659.851 47.7487 657.654 43.5759 656.164 40.929C654.674 38.2821 653.757 35.6272 654.127 35.0287C654.497 34.4311 654.352 34.2183 653.806 34.556C653.255 34.8957 649.357 28.059 645.063 19.2219C637.979 4.64525 637.085 3.2704 634.652 3.21744C633.188 3.18547 628.77 2.93361 624.835 2.65983C620.349 2.34607 617.436 2.55396 617.026 3.21744ZM828.543 3.62204C827.185 4.97899 829.145 7.27225 831.662 7.27225C839.962 7.27225 840.204 8.31643 840.079 43.6289C839.966 75.3442 840.243 74.0632 833.004 76.4194C823.422 79.539 827.087 81.2146 843.49 81.2146C860.083 81.2146 863.785 79.472 853.484 76.5093C846.387 74.4679 846.486 74.8996 846.519 46.3009C846.549 20.7618 846.549 20.7617 849.668 24.259C851.383 26.1825 854.957 30.1165 857.61 33.0022C860.263 35.888 862.237 38.2481 861.996 38.2481C861.756 38.2481 864.356 41.1248 867.774 44.6401C875.755 52.8477 878.49 55.8864 878.49 56.5479C878.49 56.8407 879.727 58.3634 881.24 59.9322C884.225 63.0278 889.462 69.5897 890.865 71.9919C891.719 73.4537 892.725 74.7507 897.155 80.0995C900.735 84.4222 900.978 82.4297 901.306 46.0221C901.654 7.38815 901.388 8.88395 908.17 7.47605C918.387 5.3547 912.94 2.9906 897.99 3.05655C882.55 3.1245 879.021 4.8531 887.988 7.95469C890.186 8.71509 892.543 9.89523 893.226 10.5767C894.703 12.0525 895.615 39.9728 894.629 53.4972C893.903 63.4405 895.567 64.4807 877.425 42.7446C872.837 37.2489 868.834 32.5276 868.528 32.2528C868.223 31.978 864.826 28.166 860.981 23.7804C857.136 19.3958 853.09 15.0272 851.99 14.0719C850.89 13.1167 850.274 12.3204 850.62 12.3014C850.967 12.2834 849.249 10.1809 846.803 7.62992C842.228 2.85963 831.633 0.534448 828.543 3.62204ZM926.774 3.97684C926.009 5.97029 927.447 7.27225 930.414 7.27225C938.279 7.27225 938.49 8.17651 938.49 41.8273C938.49 75.7569 938.808 74.2181 931.295 76.6542C922.304 79.5679 926.568 81.2836 942.079 80.9918C957.852 80.696 961.483 79.4381 953.304 77.1049C945.127 74.7717 945.488 76.1716 945.505 46.8364C945.52 20.7617 945.52 20.7618 948.971 24.7586C950.869 26.9569 952.217 29.341 951.967 30.0565C951.717 30.7719 951.971 31.0747 952.53 30.729C953.445 30.1644 955.503 32.1898 966.157 44.1455C967.899 46.101 969.067 48.1154 968.753 48.624C968.438 49.1326 968.641 49.2645 969.203 48.9168C970.32 48.2273 975.161 53.9789 974.715 55.4657C974.564 55.9703 974.83 56.1422 975.307 55.8474C976.555 55.077 981.133 60.263 989.54 71.9718C999.736 86.1718 999.101 87.7036 999.734 47.371C1000.34 8.62617 1000.31 8.82002 1006.74 7.54801C1009.91 6.92349 1010.99 6.23807 1010.99 4.86014C1010.99 2.66785 982.926 1.70157 982.094 3.86588C981.399 5.67247 982.771 6.80658 987.224 8.10556C993.409 9.91016 993.494 10.3239 993.458 38.432C993.43 61.1843 993.275 63.5274 991.92 61.7298C989.508 58.5283 984.127 52.0824 982.413 50.3417C981.546 49.4604 979.521 46.9683 977.913 44.802C976.305 42.6367 974.09 39.9168 972.99 38.7587C967.174 32.6345 964.503 29.1632 964.733 28.0261C964.875 27.3276 964.49 26.849 963.88 26.9599C962.799 27.1578 949.396 13.0597 948.582 10.8684C948.358 10.2649 947.338 9.17778 946.315 8.45334C945.293 7.72791 944.761 6.60379 945.134 5.9553C945.506 5.3058 945.438 5.11193 944.981 5.52561C944.525 5.93929 943.291 5.49866 942.239 4.5474C939.924 2.45403 927.535 1.99638 926.774 3.97684ZM235.49 4.66727C235.49 6.24904 237.609 7.27225 240.883 7.27225C247.315 7.27225 247.49 8.20949 247.49 42.6856C247.49 76.9879 247.686 76.2185 238.948 76.2185C236.694 76.2185 234.996 78.6087 236.046 80.3054C236.791 81.5105 274.948 81.4175 284.426 80.1885C308.851 77.0209 314.806 54.8502 294.12 44.0946C290.25 42.0821 290.25 42.0821 293.12 40.5983C294.699 39.7819 296.923 38.2411 298.064 37.1729C299.205 36.1058 300.515 35.5732 300.975 35.9909C301.434 36.4076 301.495 36.2007 301.109 35.5292C300.724 34.8587 301.102 32.9702 301.949 31.3325C307.317 20.9596 300.16 7.96774 287.231 4.61734C279.652 2.65287 235.49 2.69581 235.49 4.66727ZM286.438 11.5599C298.409 17.5003 298.743 31.4204 287.042 36.7682C277.555 41.1048 256.964 41.3667 256.123 37.162C253.903 26.0746 255.449 9.40361 258.74 8.93198C266.385 7.83683 281.902 9.30966 286.438 11.5599ZM550.206 18.0139C549.977 19.5257 549.79 18.2887 549.79 15.266C549.79 12.2434 549.977 11.0063 550.206 12.5182C550.435 14.03 550.435 16.5021 550.206 18.0139ZM1034.49 15.266C1034.49 15.9985 1034.79 16.2982 1035.16 15.9325C1035.52 15.5658 1035.52 14.9662 1035.16 14.5995C1034.79 14.2338 1034.49 14.5336 1034.49 15.266ZM176.887 24.6018C188.755 50.6245 188.888 49.6462 173.49 49.6462C159.205 49.6462 159.768 50.0599 163.266 42.1391C164.818 38.6248 167.621 31.5903 169.497 26.5072C173.572 15.4598 172.807 15.6567 176.887 24.6018ZM771.056 25.0085C782.569 49.2766 782.498 49.6832 766.79 49.7172C754.102 49.7442 753.777 49.4504 757.407 41.2258C758.978 37.6646 760.952 32.9522 761.794 30.7539C767.95 14.6685 766.56 15.5308 771.056 25.0085ZM554.593 39.7469C555.688 42.22 557.201 47.7277 557.956 51.9874C558.71 56.2461 559.823 61.0194 560.428 62.5932C561.416 65.1662 561.348 65.373 559.759 64.6375C556.662 63.2067 543.53 62.9509 541.916 64.2898C539.646 66.1724 539.264 64.8604 540.843 60.6057C541.633 58.4763 542.972 52.9916 543.818 48.4172C546.368 34.6269 550.761 31.0917 554.593 39.7469ZM290.034 48.62C308.618 60.4328 299.24 73.4637 271.74 74.0403C256.49 74.361 256.49 74.361 256.49 60.195C256.49 46.2049 275.769 39.5531 290.034 48.62ZM300.49 47.2411C300.49 47.9736 300.79 48.2733 301.157 47.9076C301.523 47.5409 301.523 46.9413 301.157 46.5746C300.79 46.2089 300.49 46.5087 300.49 47.2411ZM552.475 71.6631C552.438 74.2261 550.922 75.2563 549.122 73.9403C547.643 72.8591 547.547 72.2026 548.506 69.6936C549.637 66.7329 552.525 68.1668 552.475 71.6631ZM110.49 69.224C110.49 69.9564 110.79 70.2562 111.157 69.8905C111.523 69.5238 111.523 68.9242 111.157 68.5575C110.79 68.1918 110.49 68.4915 110.49 69.224ZM544.842 71.2104C544.448 73.1819 544.82 75.0744 545.937 76.7781C547.63 79.3601 547.63 79.3601 542.81 78.6606C534.408 77.4426 532.946 75.9657 536.74 72.5324C542.28 67.5193 545.693 66.9627 544.842 71.2104ZM562.34 71.2284C567.062 74.6468 567.282 75.2433 564.468 76.9999C560.939 79.2012 552.684 79.9177 554.368 77.8753C555.126 76.956 555.794 74.4089 555.851 72.2146C555.977 67.4304 556.899 67.2905 562.34 71.2284ZM62.4898 81.2146C62.4898 81.9471 62.7898 82.2469 63.1568 81.8811C63.5228 81.5144 63.5228 80.9149 63.1568 80.5482C62.7898 80.1825 62.4898 80.4822 62.4898 81.2146ZM446.979 161.169C446.6 161.783 446.447 162.368 446.64 162.468C450.259 164.363 450.879 165.11 450.79 167.475C450.735 168.943 450.645 173.335 450.59 177.234C450.502 183.436 450.24 184.387 448.49 184.844C442.159 186.499 446.855 188.131 457.945 188.131C469.399 188.131 469.399 188.131 470.044 184.699C470.928 179.988 469.6 178.081 467.811 181.494C466.55 183.899 465.894 184.135 460.458 184.135C454.041 184.135 450.494 165.552 456.545 163.634C457.675 163.275 458.427 162.457 458.216 161.817C457.709 160.277 447.881 159.712 446.979 161.169ZM481.947 162.015C469.672 169.494 474.666 188.635 488.891 188.629C491.521 188.628 494.106 187.834 496.103 186.411C497.815 185.192 499.545 184.517 499.948 184.914C500.351 185.31 500.565 184.959 500.425 184.135C500.284 183.31 500.691 181.37 501.33 179.823C506.38 167.579 492.995 155.283 481.947 162.015ZM509.49 161.617C509.49 162.421 510.327 163.528 511.35 164.075C513.805 165.388 513.505 182.895 510.996 184.744C508.33 186.709 509.379 187.922 514.064 188.293C519.039 188.689 522.323 186.751 518.853 185.469C515.936 184.39 515.522 183.137 515.505 175.344C515.491 168.754 526.258 174.204 526.454 180.887C526.474 181.575 526.915 182.136 527.433 182.136C527.952 182.136 529.182 183.498 530.166 185.163C533.642 191.043 534.752 188.723 534.561 175.975C534.396 164.921 534.496 164.283 536.493 163.65C539.89 162.572 538.193 160.679 533.526 160.339C528.015 159.937 526.106 161.592 529.299 164.003C531.362 165.561 531.585 166.475 531.388 172.562C531.167 179.376 531.167 179.376 527.59 175.011C516.901 161.965 509.49 156.481 509.49 161.617ZM543.49 161.602C543.49 162.4 544.278 163.492 545.24 164.029C548.524 165.865 548.407 182.489 545.095 184.657C539.001 188.647 558.799 190.068 565.3 186.107C574.439 180.539 572.928 165.848 562.772 161.523C558.219 159.585 543.49 159.645 543.49 161.602ZM581.037 163.244C568.887 173.904 579.272 193.301 594.1 187.643C599.443 185.604 602.525 181.011 602.648 174.906C602.896 162.581 589.829 155.53 581.037 163.244ZM609.49 161.585C609.49 162.373 610.39 163.302 611.49 163.65C614.559 164.624 614.534 183.506 611.462 185.149C608.321 186.828 610.107 188.131 615.549 188.131C620.719 188.131 621.881 186.947 618.49 185.134C616.752 184.204 616.493 183.054 616.512 176.356C616.534 168.424 619.968 170.17 628.99 182.703C634.635 190.543 634.409 190.687 634.572 179.138C634.654 173.368 634.641 167.863 634.543 166.905C634.441 165.895 635.453 164.668 636.954 163.984C640.952 162.165 639.38 160.653 633.49 160.653C627.634 160.653 626.023 162.163 629.964 163.956C632.343 165.039 632.49 165.548 632.49 172.716C632.49 180.327 632.49 180.327 629.011 176.166C616.586 161.306 609.49 156.005 609.49 161.585ZM495.451 166.607C500.292 171.755 498.829 181.262 492.809 183.775C488.894 185.41 484.497 184.619 484.475 182.278C484.462 180.953 484.291 180.903 483.584 182.018C482.412 183.868 479.592 179.645 478.896 174.998C478.404 171.705 481.813 164.139 483.175 165.501C483.493 165.819 484.584 165.496 485.601 164.785C488.136 163.01 492.898 163.891 495.451 166.607ZM564.74 168.112C571.147 175.252 566.339 184.135 556.067 184.135C550.49 184.135 550.49 184.135 550.49 174.002C550.49 162.781 557.395 159.926 564.74 168.112ZM594.515 165.163C597.447 166.731 599.816 172.594 599.087 176.477C596.843 188.426 580.818 186.766 579.821 174.481C579.158 166.294 587.151 161.224 594.515 165.163Z" fill="white" style="fill:white;fill-opacity:1;"/>
</svg>
