<svg width="184" height="36" viewBox="0 0 568 96" fill="none" xmlns="http://www.w3.org/2000/svg">
<path fill-rule="evenodd" clip-rule="evenodd" d="M0.663086 1.44168C0.296086 1.8071 -0.00390625 23.7971 -0.00390625 50.3079V98.5092L12.9981 98.8137L26.0001 99.1192L25.9981 79.4265L25.9961 59.7339L41.2461 59.4583L56.4961 59.1828L56.7801 48.4499L57.0641 37.7169H41.4861H25.9081L26.2021 30.4785L26.4961 23.24L42.7461 22.9654L58.9961 22.6909V11.7333V0.775757H30.1631C14.3041 0.775757 1.02909 1.07526 0.663086 1.44168ZM85.4761 1.99881C85.2151 2.6987 79.8421 24.5928 73.5371 50.6513C67.2311 76.7098 62.2301 98.1876 62.4211 98.3793C62.6131 98.571 68.7801 98.7368 76.1251 98.7487L89.4791 98.7697L90.1281 95.45C90.4851 93.6239 91.0791 89.9967 91.4481 87.3878L92.1191 82.6454H101.946H111.773L112.334 85.8902C112.643 87.6754 113.19 91.2457 113.551 93.8266L114.208 98.5171L128.103 98.8186L141.999 99.1192L141.998 98.2955C141.997 97.8422 139.009 85.2622 135.358 70.34C131.707 55.4177 126.401 33.7732 123.567 22.2416L118.414 1.27496L102.183 1.0004L85.9521 0.725861L85.4761 1.99881ZM153.237 49.7657L153.496 98.7548L165.235 98.9374L176.974 99.1192L177.485 97.7893C177.766 97.0584 178.03 84.4785 178.072 69.8338L178.148 43.2082L185.631 69.6661C189.746 84.2179 193.298 96.686 193.523 97.3719L193.933 98.62H208.474H223.015L222.756 49.9474L222.496 1.27496L210.262 0.994415L198.027 0.714844L197.762 28.902L197.496 57.0901L191.104 33.6754C187.588 20.7969 184.083 8.12706 183.315 5.51822L181.919 0.775757H167.448H152.977L153.237 49.7657ZM239.996 49.61V98.4732L241.619 98.7967C242.512 98.9744 248.362 98.9794 254.619 98.8087L265.996 98.4991V79.117V59.7339L281.246 59.4583L296.496 59.1828V48.6995V38.2162L281.246 37.9406L265.996 37.665V30.2278V22.7907L282.246 22.5161L298.496 22.2416V11.7583V1.27496L269.246 1.01038L239.996 0.745819V49.61ZM324.996 1.40076C324.996 1.74421 319.8 23.5445 313.45 49.8446C307.1 76.1458 302.106 97.991 302.352 98.3913L302.799 99.1192L316.148 98.62L329.496 98.1208L330.496 90.6327L331.496 83.1446L341.604 82.8621L351.713 82.5785L352.388 88.3114C352.759 91.4644 353.321 95.0736 353.638 96.3316L354.213 98.62H368.172H382.131L381.587 96.8727C381.288 95.9123 379.037 86.8138 376.584 76.6549C374.132 66.4961 369.173 46.2783 365.565 31.7265C361.956 17.1746 358.768 4.25822 358.481 3.02219L357.958 0.775757H341.477C332.412 0.775757 324.996 1.0573 324.996 1.40076ZM392.913 1.19107C392.684 1.41971 392.618 23.5475 392.766 50.3628L393.037 99.1192L405.766 99.0503L418.496 98.9824L418.768 79.8309L419.039 60.6804H423.826H428.614L430.542 62.0881L432.471 63.4969L433.097 78.3123C433.442 86.4613 434.058 94.3647 434.468 95.8743L435.213 98.62H448.938C456.486 98.62 462.967 98.3164 463.338 97.945C463.71 97.5736 463.052 96.2477 461.877 94.9987L459.739 92.7263L459.065 76.8846L458.392 61.0428L456.388 57.6172L454.385 54.1917L450.44 51.9612C448.271 50.7342 447.102 49.7228 447.842 49.7138C448.582 49.7049 450.504 48.7613 452.114 47.6172C453.724 46.472 456.023 43.6645 457.224 41.3771L459.406 37.2177L459.451 27.7328L459.496 18.2479L457.113 13.4156L454.731 8.58334L450.813 5.74985L446.895 2.91635L441.896 1.84604L436.898 0.775757H415.113C403.132 0.775757 393.142 0.962435 392.913 1.19107ZM476.663 1.44168C476.296 1.8071 475.996 23.7472 475.996 50.1971C475.996 76.6469 476.183 98.4742 476.412 98.7029C476.64 98.9315 490.14 98.9934 506.412 98.8406L535.996 98.562L535.997 87.8581L535.998 77.1541L519.497 77.4766L502.996 77.7991V68.7405V59.682H517.996H532.996V48.6995V37.7169H517.996H502.996V30.2289V22.7408H518.996H534.996V11.7583V0.775757H506.163C490.304 0.775757 477.029 1.07526 476.663 1.44168ZM430.971 22.7158C432.057 23.8001 433.231 25.8249 433.581 27.2147C433.93 28.6054 433.912 31.3621 433.54 33.3419L432.863 36.9412L430.475 39.3264L428.087 41.7106H423.541H418.996V31.2273V20.744H423.996H428.996L430.971 22.7158ZM344.943 42.3925C346.622 52.3447 347.996 60.7553 347.996 61.0827C347.996 61.4112 345.019 61.6788 341.379 61.6788H334.763L335.352 59.4324C335.676 58.1963 337.171 49.6789 338.675 40.5025C340.179 31.3271 341.518 23.9279 341.65 24.0587C341.781 24.1905 343.263 32.4414 344.943 42.3925ZM105.296 42.4594C106.796 51.6567 108.017 59.7448 108.009 60.4308L107.996 61.6788H101.996H95.9961L95.9611 60.4308C95.9411 59.7448 97.1701 51.6567 98.6911 42.4594C100.212 33.262 101.707 25.736 102.013 25.736C102.319 25.736 103.796 33.262 105.296 42.4594Z" fill="white" style="fill:white;fill-opacity:1;"/>
</svg>
