<svg width="220" height="36" viewBox="0 0 1000 300" fill="none" xmlns="http://www.w3.org/2000/svg">
<path fill-rule="evenodd" clip-rule="evenodd" d="M295.799 2.15199C292.921 4.41599 291.33 10.884 292.92 13.855C295.332 18.362 307.442 21.823 310.003 18.737C317.042 10.256 304.344 -4.57001 295.799 2.15199ZM720.577 43.131C693.49 47.785 661.667 71.953 655.563 92.505C653.026 101.05 653.832 113.426 656.768 110.99C657.563 110.329 655.764 113.357 652.769 117.719C639.89 136.471 626.248 160.858 618.966 178.148C617.692 181.173 614.984 186.573 612.948 190.148C599.363 214.001 607.516 255.83 628.512 269.999C646.53 282.159 660.694 278.587 684.793 255.804C704.148 237.506 703.214 237.509 753.577 255.619C755.586 256.341 769.67 262.116 775.932 264.786C793.712 272.365 836.263 205.336 821.467 193.057C816.884 189.253 810.196 197.133 803.586 214.125C796.005 233.613 791.404 237.455 792.505 223.378C793.515 210.465 791.625 208.464 782.999 213.312C777.034 216.665 775.692 220.489 775.252 235.398C775.045 242.41 774.705 248.148 774.497 248.148C774.288 248.148 772.421 247.538 770.347 246.793C768.274 246.047 763.877 244.647 760.577 243.682C757.277 242.716 752.102 241.126 749.077 240.148C746.052 239.17 740.877 237.585 737.577 236.625C734.277 235.666 729.102 234.088 726.077 233.12C723.052 232.151 718.654 230.84 716.304 230.206C712.031 229.054 712.031 229.054 717.593 222.498C746.487 188.44 763.563 138.209 768.272 73.425C770.138 47.756 753.854 37.413 720.577 43.131ZM743.278 57.279C759.533 60.749 761.282 77.23 750.626 126.517C740.945 171.295 708.7 229.254 694.882 226.715C693.399 226.443 682.149 225.744 669.882 225.162C640.538 223.77 621.785 222.246 620.698 221.165C619.179 219.654 620.713 198.174 622.933 189.864C632.581 153.75 682.901 91.207 719.766 69.511C729.088 64.025 730.381 62.475 727.577 60.148C722.918 56.281 731.369 54.737 743.278 57.279ZM687.051 76.836C679.117 84.386 671.168 93.271 660.795 106.184C658.012 109.648 658.012 109.648 659.682 106.148C665.455 94.044 678.627 78.425 688.482 71.999C697.414 66.174 697.084 67.288 687.051 76.836ZM563.303 88.188C558.507 90.114 550.985 99.067 547.104 107.469C543.567 115.125 541.941 120.796 536.018 146.148C530.723 168.809 525.534 178.048 516.361 181.147C500.967 186.347 487.353 194.185 466.077 210.098C456.807 217.032 455.727 217.791 444.577 225.207C435.577 231.193 435.577 231.193 434.912 218.676C433.759 196.962 428.151 192.688 415.673 204.012C413.212 206.246 412.883 206.343 413.521 204.648C421.282 184.03 398.779 187.703 388.095 208.798C383.039 218.781 378.098 224.817 373.359 226.801C367.789 229.133 367.532 228.864 366.268 219.366C362.625 192.005 350.222 187.851 331.784 207.817C309.346 232.114 310.285 232.306 318.09 205.016C336.213 141.652 344.354 119.148 349.155 119.148C355.494 119.148 359.021 110.537 354.625 105.794C342.498 92.709 325.155 114.501 317.17 152.86C309.485 189.776 302.97 200.984 276.476 222.871C271.375 227.085 271.375 227.085 270.243 223.307C266.676 211.402 254.389 212.196 239.717 225.279C234.543 229.893 233.742 230.301 232.883 228.766C225.321 215.253 216.8 216.804 195.913 235.498C184.692 245.541 185.49 245.195 184.617 240.398C182.941 231.198 173.872 224.78 162.426 224.694C156.947 224.653 156.374 224.462 157.186 222.944C158.841 219.852 168.277 207.841 179.024 195.148C221.147 145.395 229.726 114.723 205.04 102.129C194.905 96.959 159.708 99.741 152.627 106.272C152.104 106.754 151.086 107.148 150.364 107.148C139.634 107.148 88.7221 141.979 52.6071 174.026C46.0241 179.868 34.7741 189.791 27.6071 196.077C0.48708 219.864 -6.40792 233.059 8.24408 233.134C13.9881 233.164 20.3811 229.211 28.0721 220.874C88.7781 155.077 147.595 115.148 183.814 115.148C204.523 115.148 202.278 139.283 178.577 171.437C142.231 220.748 110.896 256.533 108.838 251.082C108.333 249.743 107.578 236.048 107.159 220.648C106.24 186.82 105.435 183.337 99.2771 186.563C92.7331 189.991 90.1721 194.17 91.2571 199.648C91.8021 202.398 92.4781 222.508 92.7581 244.337C93.3241 288.437 93.2191 287.775 99.4491 286.606C102.411 286.05 104.003 284.855 106.835 281.062C109.294 277.769 111.424 276.015 113.511 275.565C120.544 274.049 128.228 268.927 138.831 258.687C156.276 241.841 164.833 241.55 168.03 257.695C173.106 283.331 184.405 283.341 199.56 257.721C210.218 239.702 216.344 235.835 216.872 246.794C217.427 258.323 225.341 260.218 240.236 252.388C240.598 252.198 241.184 253.359 241.538 254.969C244.582 268.829 259.579 264.039 280.577 242.499C297.006 225.647 296.648 225.818 293.319 236.398C282.768 269.933 303.952 272.394 323.785 239.937C331.212 227.783 336.199 221.86 342.019 218.279C347.778 214.735 347.612 214.591 348.558 223.985C351.234 250.567 362.793 256.271 383.366 241.163C387.155 238.38 387.155 238.38 389.988 241.213C396.242 247.467 401.3 246.031 410.042 235.518C416.101 228.232 415.505 228.031 418.503 238.372C423.765 256.519 434.394 255.4 459.577 234.051C474.661 221.263 496.805 204.298 502.558 201.121C511.127 196.389 511.394 196.634 506.182 204.438C503.533 208.403 498.784 215.923 495.629 221.148C492.474 226.373 487.297 234.248 484.125 238.648C474.09 252.567 472.647 257.127 475.929 264.546C482.251 278.838 496.75 265.772 515.058 229.285C520.66 218.118 525.449 209.186 525.698 209.436C525.947 209.685 524.775 217.244 523.092 226.232C516.831 259.669 518.025 277.154 526.429 275.135C536.103 272.81 537.878 268.174 534.466 254.148C528.005 227.589 540.796 162.596 559.828 125.279C569.325 106.658 571.295 99.49 569.452 90.273C568.794 86.985 567.441 86.526 563.303 88.188ZM859.077 118.479C847.171 124.045 845.944 132.179 857.018 132.126C865.474 132.085 873.077 126.663 873.077 120.673C873.077 117.496 864.167 116.099 859.077 118.479ZM964.636 181.414C960.588 183.709 956.129 188.763 947.836 200.454C944.496 205.163 941.618 207.953 938.1 209.893C935.353 211.408 933.099 213.108 933.091 213.671C933.083 214.234 928.877 221.713 923.743 230.292C911.355 250.993 909.449 258.174 915.6 260.977C925.909 265.674 933.096 258.582 943.481 233.471C950.19 217.247 952.332 213.066 956.187 208.676C961.656 202.446 961.983 203.22 961.769 221.898C961.556 240.506 962.442 244.135 968.198 248.234C975.554 253.472 981.021 247.936 979.426 236.866C978.733 232.051 978.689 225.546 979.299 217.62C981.681 186.622 976.784 174.529 964.636 181.414ZM899.577 194.575C897.927 195.316 892.348 199.558 887.18 204C877.782 212.078 877.782 212.078 874.853 209.613C867.95 203.805 863.597 205.387 851.351 218.156C840.545 229.424 838.256 229.957 841.574 220.434C846.882 205.199 827.864 209.088 820.968 224.648C810.611 248.021 822.76 260.121 843.121 246.711C849.823 242.297 849.573 242.268 849.598 247.478C849.634 254.74 851.99 257.148 859.061 257.148C867.116 257.148 867.556 256.629 881.963 230.148C888.183 218.716 895.631 210.148 899.35 210.148C899.572 210.148 898.897 214.985 897.848 220.898C892.463 251.263 907.908 266.562 914.64 237.532C920.827 210.856 913.002 188.541 899.577 194.575ZM685.904 237.642C688.377 240.114 674.282 252.943 664.975 256.689C645.239 264.634 616.985 251.859 622.502 237.483C623.089 235.954 684.369 236.107 685.904 237.642Z" fill="black" style="fill:black;fill-opacity:1;"/>
</svg>
