<svg width="285" height="60" viewBox="0 0 1000 300" fill="none" xmlns="http://www.w3.org/2000/svg">
<path fill-rule="evenodd" clip-rule="evenodd" d="M295.799 1.91371C292.921 4.17771 291.33 10.6457 292.92 13.6167C295.332 18.1237 307.442 21.5847 310.003 18.4987C317.042 10.0177 304.344 -4.80829 295.799 1.91371ZM720.577 42.8927C693.49 47.5467 661.667 71.7147 655.563 92.2667C653.026 100.812 653.832 113.188 656.768 110.752C657.563 110.091 655.764 113.119 652.769 117.481C639.89 136.233 626.248 160.62 618.966 177.91C617.692 180.935 614.984 186.335 612.948 189.91C599.363 213.763 607.516 255.592 628.512 269.761C646.53 281.921 660.694 278.349 684.793 255.566C704.148 237.268 703.214 237.271 753.577 255.381C755.586 256.103 769.67 261.878 775.932 264.548C793.712 272.127 836.263 205.098 821.467 192.819C816.884 189.015 810.196 196.895 803.586 213.887C796.005 233.375 791.404 237.217 792.505 223.14C793.515 210.227 791.625 208.226 782.999 213.074C777.034 216.427 775.692 220.251 775.252 235.16C775.045 242.172 774.705 247.91 774.497 247.91C774.288 247.91 772.421 247.3 770.347 246.555C768.274 245.809 763.877 244.409 760.577 243.444C757.277 242.478 752.102 240.888 749.077 239.91C746.052 238.932 740.877 237.347 737.577 236.387C734.277 235.428 729.102 233.85 726.077 232.882C723.052 231.913 718.654 230.602 716.304 229.968C712.031 228.816 712.031 228.816 717.593 222.26C746.487 188.202 763.563 137.971 768.272 73.1867C770.138 47.5177 753.854 37.1747 720.577 42.8927ZM743.278 57.0407C759.533 60.5107 761.282 76.9917 750.626 126.279C740.945 171.057 708.7 229.016 694.882 226.477C693.399 226.205 682.149 225.506 669.882 224.924C640.538 223.532 621.785 222.008 620.698 220.927C619.179 219.416 620.713 197.936 622.933 189.626C632.581 153.512 682.901 90.9687 719.766 69.2727C729.088 63.7867 730.381 62.2367 727.577 59.9097C722.918 56.0427 731.369 54.4987 743.278 57.0407ZM687.051 76.5977C679.117 84.1477 671.168 93.0327 660.795 105.946C658.012 109.41 658.012 109.41 659.682 105.91C665.455 93.8057 678.627 78.1867 688.482 71.7607C697.414 65.9357 697.084 67.0497 687.051 76.5977ZM563.303 87.9497C558.507 89.8757 550.985 98.8287 547.104 107.231C543.567 114.887 541.941 120.558 536.018 145.91C530.723 168.571 525.534 177.81 516.361 180.909C500.967 186.109 487.353 193.947 466.077 209.86C456.807 216.794 455.727 217.553 444.577 224.969C435.577 230.955 435.577 230.955 434.912 218.438C433.759 196.724 428.151 192.45 415.673 203.774C413.212 206.008 412.883 206.105 413.521 204.41C421.282 183.792 398.779 187.465 388.095 208.56C383.039 218.543 378.098 224.579 373.359 226.563C367.789 228.895 367.532 228.626 366.268 219.128C362.625 191.767 350.222 187.613 331.784 207.579C309.346 231.876 310.285 232.068 318.09 204.778C336.213 141.414 344.354 118.91 349.155 118.91C355.494 118.91 359.021 110.299 354.625 105.556C342.498 92.4707 325.155 114.263 317.17 152.622C309.485 189.538 302.97 200.746 276.476 222.633C271.375 226.847 271.375 226.847 270.243 223.069C266.676 211.164 254.389 211.958 239.717 225.041C234.543 229.655 233.742 230.063 232.883 228.528C225.321 215.015 216.8 216.566 195.913 235.26C184.692 245.303 185.49 244.957 184.617 240.16C182.941 230.96 173.872 224.542 162.426 224.456C156.947 224.415 156.374 224.224 157.186 222.706C158.841 219.614 168.277 207.603 179.024 194.91C221.147 145.157 229.726 114.485 205.04 101.891C194.905 96.7207 159.708 99.5027 152.627 106.034C152.104 106.516 151.086 106.91 150.364 106.91C139.634 106.91 88.7221 141.741 52.6071 173.788C46.0241 179.63 34.7741 189.553 27.6071 195.839C0.48708 219.626 -6.40792 232.821 8.24408 232.896C13.9881 232.926 20.3811 228.973 28.0721 220.636C88.7781 154.839 147.595 114.91 183.814 114.91C204.523 114.91 202.278 139.045 178.577 171.199C142.231 220.51 110.896 256.295 108.838 250.844C108.333 249.505 107.578 235.81 107.159 220.41C106.24 186.582 105.435 183.099 99.2771 186.325C92.7331 189.753 90.1721 193.932 91.2571 199.41C91.8021 202.16 92.4781 222.27 92.7581 244.099C93.3241 288.199 93.2191 287.537 99.4491 286.368C102.411 285.812 104.003 284.617 106.835 280.824C109.294 277.531 111.424 275.777 113.511 275.327C120.544 273.811 128.228 268.689 138.831 258.449C156.276 241.603 164.833 241.312 168.03 257.457C173.106 283.093 184.405 283.103 199.56 257.483C210.218 239.464 216.344 235.597 216.872 246.556C217.427 258.085 225.341 259.98 240.236 252.15C240.598 251.96 241.184 253.121 241.538 254.731C244.582 268.591 259.579 263.801 280.577 242.261C297.006 225.409 296.648 225.58 293.319 236.16C282.768 269.695 303.952 272.156 323.785 239.699C331.212 227.545 336.199 221.622 342.019 218.041C347.778 214.497 347.612 214.353 348.558 223.747C351.234 250.329 362.793 256.033 383.366 240.925C387.155 238.142 387.155 238.142 389.988 240.975C396.242 247.229 401.3 245.793 410.042 235.28C416.101 227.994 415.505 227.793 418.503 238.134C423.765 256.281 434.394 255.162 459.577 233.813C474.661 221.025 496.805 204.06 502.558 200.883C511.127 196.151 511.394 196.396 506.182 204.2C503.533 208.165 498.784 215.685 495.629 220.91C492.474 226.135 487.297 234.01 484.125 238.41C474.09 252.329 472.647 256.889 475.929 264.308C482.251 278.6 496.75 265.534 515.058 229.047C520.66 217.88 525.449 208.948 525.698 209.198C525.947 209.447 524.775 217.006 523.092 225.994C516.831 259.431 518.025 276.916 526.429 274.897C536.103 272.572 537.878 267.936 534.466 253.91C528.005 227.351 540.796 162.358 559.828 125.041C569.325 106.42 571.295 99.2517 569.452 90.0347C568.794 86.7467 567.441 86.2877 563.303 87.9497ZM859.077 118.241C847.171 123.807 845.944 131.941 857.018 131.888C865.474 131.847 873.077 126.425 873.077 120.435C873.077 117.258 864.167 115.861 859.077 118.241ZM964.636 181.176C960.588 183.471 956.129 188.525 947.836 200.216C944.496 204.925 941.618 207.715 938.1 209.655C935.353 211.17 933.099 212.87 933.091 213.433C933.083 213.996 928.877 221.475 923.743 230.054C911.355 250.755 909.449 257.936 915.6 260.739C925.909 265.436 933.096 258.344 943.481 233.233C950.19 217.009 952.332 212.828 956.187 208.438C961.656 202.208 961.983 202.982 961.769 221.66C961.556 240.268 962.442 243.897 968.198 247.996C975.554 253.234 981.021 247.698 979.426 236.628C978.733 231.813 978.689 225.308 979.299 217.382C981.681 186.384 976.784 174.291 964.636 181.176ZM899.577 194.337C897.927 195.078 892.348 199.32 887.18 203.762C877.782 211.84 877.782 211.84 874.853 209.375C867.95 203.567 863.597 205.149 851.351 217.918C840.545 229.186 838.256 229.719 841.574 220.196C846.882 204.961 827.864 208.85 820.968 224.41C810.611 247.783 822.76 259.883 843.121 246.473C849.823 242.059 849.573 242.03 849.598 247.24C849.634 254.502 851.99 256.91 859.061 256.91C867.116 256.91 867.556 256.391 881.963 229.91C888.183 218.478 895.631 209.91 899.35 209.91C899.572 209.91 898.897 214.747 897.848 220.66C892.463 251.025 907.908 266.324 914.64 237.294C920.827 210.618 913.002 188.303 899.577 194.337ZM685.904 237.404C688.377 239.876 674.282 252.705 664.975 256.451C645.239 264.396 616.985 251.621 622.502 237.245C623.089 235.716 684.369 235.869 685.904 237.404Z" fill="white" style="fill:white;fill-opacity:1;"/>
</svg>
