<svg width="671" height="813" viewBox="0 0 671 813" fill="none" xmlns="http://www.w3.org/2000/svg">
<path fill-rule="evenodd" clip-rule="evenodd" d="M503.02 0.629349C493.835 1.61539 476.776 5.29879 468.226 8.14101C441.325 17.0863 413.025 37.2676 397.675 58.4519C372.62 93.0281 363.272 138.25 372.158 181.882C377.598 208.587 388.951 234.719 410.985 271.244C412.974 274.541 414.602 277.74 414.603 278.352C414.605 278.965 410.898 281.618 406.364 284.249C381.112 298.903 362.455 319.873 347.715 350.167C337.417 371.33 330.274 393.491 321.309 432.087C308.755 486.131 307.9 489.487 301.976 508.013C289.368 547.45 277.271 569.393 253.845 595.32C231.176 620.411 193.097 644.83 160.214 655.363C151.033 658.304 150.046 658.429 144.101 657.393C137.547 656.252 120.898 651.207 103.224 645.006C83.5547 638.105 67.4264 637.921 54.1734 644.445C47.4379 647.761 39.9722 654.291 39.9722 656.867C39.9722 659.265 47.358 666.205 52.1014 668.263C59.8199 671.612 70.3576 672.845 90.9225 672.804C111.949 672.762 121.079 671.763 141.646 667.253C172.62 660.463 204.203 645.161 232.76 623.108C238.78 618.459 242.563 614.876 242.153 614.212C241.741 613.546 241.92 613.382 242.6 613.802C243.954 614.639 258.608 600.201 267.331 589.433C282.318 570.935 292.631 552.535 301.617 528.263C308.326 510.141 315.967 484.92 319.708 468.551C322.695 455.483 323.334 452.725 327.569 434.585C335.147 402.137 339.685 385.972 345.733 369.869C359.54 333.109 380.759 306.367 409.397 289.631C413.069 287.485 416.827 285.73 417.748 285.73C420.424 285.73 434.133 308.576 446.571 333.761C463.459 367.954 474.2 400.267 477.597 427.092C479.079 438.801 479.116 475.147 477.66 488.532C472.722 533.904 456.126 585.935 438.146 612.411C430.703 623.373 428.986 625.152 417.603 633.711C404.365 643.665 393.385 650.075 385.159 652.652C379.214 654.513 378.599 654.902 381.128 655.198C385.205 655.676 404.655 653.627 418.602 651.25C457.36 644.647 503.012 625.964 537.486 602.595C580.194 573.646 608.622 539.647 621.765 501.803C629.669 479.043 631.996 462.02 631.081 433.63C630.444 413.89 628.722 403.222 623.737 388.13C620.882 379.485 615.405 367.322 614.691 368.037C614.448 368.279 614.684 369.303 615.214 370.311C616.989 373.684 622.297 394.019 623.778 403.115C628.621 432.874 625.569 469.075 615.741 498.456C596.746 555.24 537.39 607.752 464.919 631.89C448.56 637.339 418.465 644.031 416.31 642.699C415.853 642.417 420.826 636.927 427.362 630.5C441.014 617.075 446.89 608.862 457.011 589.064C468.524 566.543 473.212 552.911 478.49 526.612C487.919 479.624 488.309 434.95 479.588 400.794C472.153 371.675 454.856 332.68 433.526 296.947C428.707 288.875 424.956 281.961 425.19 281.581C425.803 280.59 440.07 275.951 449.238 273.765C470.118 268.781 476.98 268.232 515.008 268.502C560.855 268.825 574.877 267.277 595.929 259.564C631.166 246.656 658.627 214.608 666.416 177.307C670.948 155.608 671.192 140.067 667.299 121.039C659.202 81.4734 636.761 47.1909 604.967 25.8187C587.316 13.9523 567.561 5.81329 548.476 2.54348C539.225 0.958028 511.02 -0.229812 503.02 0.629349ZM548.401 7.50663C598.964 18.7467 640.894 56.4798 656.758 105.017C664.779 129.56 665.199 159.837 657.879 185.827C648.602 218.769 624.558 244.338 592.247 255.624C574.186 261.933 571.617 262.17 520.503 262.239C480.772 262.293 472.603 262.557 464.058 264.063C452.213 266.151 436 270.702 428.343 274.088C425.324 275.423 422.391 276.228 421.824 275.878C418.569 273.864 398.503 237.603 390.767 219.756C379.466 193.686 375.235 173.334 375.201 144.867C375.181 128.106 375.422 125.451 377.796 116.343C381.045 103.881 385.265 93.2049 391.763 81.0128C398.859 67.6968 403.805 60.7486 413.04 51.126C435.032 28.2084 465.452 11.9992 497.026 6.37474C506.807 4.63244 538.625 5.33375 548.401 7.50663ZM169.731 347.42C169.408 349.522 170.155 352.694 172.142 357.66C174.032 362.384 174.341 365.069 174.341 376.806C174.341 384.315 174.006 390.793 173.597 391.204C172.244 392.56 164.83 389.342 159.16 384.939C150.37 378.114 133.224 370.721 122.429 369.102C118.24 368.473 117.873 368.605 116.713 371.153C115.637 373.512 115.838 374.886 118.228 381.501C125.694 402.169 126.878 406.063 127.479 411.925C127.848 415.539 127.609 421.318 126.918 425.413C125.737 432.412 125.579 432.684 119.991 437.327C112.449 443.593 106.533 450.94 102.376 459.202C98.59 466.727 96.6609 474.223 94.441 490.034C92.6198 503.008 90.2991 507.738 83.5317 512.274C77.2388 516.49 74.6534 517.073 68.4994 515.66C52.1613 511.913 46.6587 511.225 32.4796 511.155C16.5621 511.076 8.00846 512.346 2.00932 515.678C0.0861999 516.747 -0.0671563 516.629 1.03177 516.241C17.9223 510.285 52.7932 512.287 72.0934 520.32C74.7248 521.416 74.6194 522.714 74.1968 524.925C73.9211 526.372 72.963 527.939 72.0689 528.411C71.1738 528.882 64.823 529.801 57.9547 530.452C51.0864 531.103 43.2191 532.09 40.4718 532.646C34.7404 533.803 21.2156 538.22 18.9927 539.661C17.8419 540.406 17.9577 540.481 19.4922 539.983C20.5912 539.625 23.9629 538.842 26.9849 538.241C30.007 537.641 33.1429 536.771 33.4176 536.45C33.6924 536.13 36.1924 535.854 37.5661 535.799C38.9398 535.742 43.4618 534.386 49.1523 533.756C62.8059 532.244 71.4265 533.16 72.7253 534.737C73.2907 535.424 73.9081 537.533 74.0959 539.423C74.4156 542.631 74.1708 542.96 70.4425 544.331C48.1413 552.532 38.6875 557.371 28.994 565.545C20.9708 572.31 23.2016 571.178 33.4176 564.104C38.6046 560.513 47.3545 556.157 50.8221 554.594C58.5785 551.099 72.7342 547.182 74.3337 547.795C74.98 548.044 77.5096 551.963 79.9552 556.506C85.281 566.402 90.9604 572.952 98.6219 578.038C105.18 582.39 118.452 587.819 120.56 587.011C121.35 586.707 121.768 586.828 121.49 587.278C121.211 587.729 123.548 588.893 126.683 589.865C142.778 594.857 151.755 602.029 153.791 611.523C154.38 614.263 154.86 621.428 154.86 627.445C154.86 633.462 155.268 638.385 155.765 638.385C157.75 638.385 159.855 628.878 159.855 619.907C159.855 608.276 158.002 602.004 152.831 596.129C148.158 590.819 142.456 587.9 128.226 583.529C105.108 576.429 93.8147 568.896 85.4928 555.026C80.6635 546.977 80.8004 545.001 86.3779 542.291C88.8235 541.103 90.5908 539.754 90.3061 539.292C90.0214 538.832 88.0203 537.553 85.8594 536.45C83.6985 535.348 81.9313 533.797 81.9313 533.003C81.9313 531.29 84.9663 529.492 87.8595 529.492C90.9694 529.492 90.362 528.237 85.9274 525.496C83.7295 524.137 81.9313 522.541 81.9313 521.947C81.9313 521.354 83.6176 519.919 85.6776 518.758C92.9984 514.636 98.3542 506.805 99.4601 498.604C102.237 478.02 104.956 467.401 109.66 458.762C111.066 456.178 116.754 449.565 122.3 444.064C135.478 430.994 139.982 428.609 173.574 416.923C179.263 414.943 179.58 413.446 180.552 383.927C181.077 367.955 181.74 359.352 182.503 358.589C185.551 355.541 205.205 368.278 221.147 383.634C232.753 394.814 238.641 402.301 243.735 412.356C246.813 418.431 247.006 418.6 250.853 418.6C254.11 418.6 255.611 419.341 259.37 422.806C265.82 428.751 268.274 433.99 272.729 451.318C274.35 457.624 275.744 456.465 275.73 448.821C275.71 437.538 272.258 427.38 266.146 420.613C262.114 416.152 253.461 410.633 250.47 410.617C249.483 410.612 247.909 409.188 246.973 407.454C239.154 392.962 225.288 376.863 211.402 366.153C203.665 360.187 189.781 351.837 182.858 348.989C177.517 346.791 169.965 345.889 169.731 347.42ZM140.943 382.242C150.16 387.085 160.044 396.264 163.377 403.076C167.524 411.553 167.097 412.213 154.361 417.042C148.316 419.332 142.019 421.925 140.366 422.802C133.876 426.245 133.4 425.899 133.741 417.996C134.101 409.627 132.101 400.702 127.192 388.774C125.303 384.184 124.02 379.741 124.343 378.901C125.265 376.496 132.955 378.044 140.943 382.242ZM152.362 497.664C146.689 500.489 145.887 500.621 137.377 500.118C132.432 499.826 127.107 499.286 125.544 498.92C122.7 498.252 122.7 498.252 124.251 501.249C126.539 505.674 131.84 507.818 139.254 507.317C142.618 507.089 147.024 506.106 149.045 505.13C154.641 502.43 162.449 494.261 159.106 494.603C158.693 494.645 155.659 496.023 152.362 497.664ZM92.4979 648.326C96.9356 649.391 104.578 652.018 109.481 654.166C114.385 656.314 120.756 658.849 123.641 659.798C126.525 660.747 128.885 661.9 128.885 662.36C128.885 664.173 117.485 665.591 98.8477 666.094C76.6674 666.694 62.2934 665.423 54.7988 662.198C48.4769 659.479 47.1522 657.212 50.2023 654.333C58.1115 646.868 75.8872 644.344 92.4979 648.326Z" fill="black"/>
<path d="M147.339 527.219C157.308 527.164 169.623 526.171 174.293 525.761C187.327 524.617 190.566 524.82 182.285 526.263C173.292 527.83 148.503 529.942 128.336 531.571C111.967 532.894 113.213 534.492 122.594 537.094C155.017 546.082 161.094 548.113 172.298 553.709C175.322 555.219 178.919 557.424 180.29 558.609C182.785 560.763 182.785 560.763 178.356 558.605C175.92 557.418 166.699 552.838 163.191 551.518C155.275 548.538 120.284 539.959 117.523 539.959C116.408 539.959 114.805 540.957 113.852 542.01C111.936 544.128 112.615 543.581 139.201 561.67C148.468 567.976 155.343 575.072 159.678 582.81C161.458 585.984 161.385 585.952 158.181 582.15C150.534 573.076 145.914 568.565 117.523 550.722C110.637 546.394 104.361 543.037 104.361 542.552C104.361 542.067 105.261 540.9 106.359 539.959C108.76 537.904 108.9 535.454 106.8 532.25C105.363 530.057 105.383 529.831 107.05 529.326C111.406 528.008 130.644 527.309 147.339 527.219Z" fill="black"/>
<path fill-rule="evenodd" clip-rule="evenodd" d="M526.808 34.779C523.994 36.2831 520.586 37.2014 517.708 37.2293C513.979 37.2652 511.809 38.1256 506.257 41.7656C502.489 44.2359 498.711 46.3159 497.86 46.3878C497.009 46.4607 490.689 46.5724 483.816 46.6373C474.886 46.7222 470.473 47.1833 468.358 48.2532C464.188 50.3632 456.558 60.1884 451.739 69.6543C446.345 80.252 443.884 82.7143 434.198 87.2018C426.904 90.5813 425.602 91.6263 421.452 97.4322C412.588 109.831 411.782 115.38 417.327 125.811C421.255 133.199 421.77 138.157 419.327 145.068C416.535 152.97 417.749 160.042 423.144 167.276C424.474 169.059 425.878 171.867 426.262 173.514C427.522 178.911 429.675 180.841 440.745 186.494C451.677 192.076 451.677 192.076 455.325 199.263C461.088 210.62 464.256 213.208 473.817 214.372C483.715 215.575 484.884 216.061 491.001 221.51C500.689 230.138 505.441 230.56 516.096 223.734C521.393 220.341 522.132 220.254 539.806 220.972C547.003 221.263 549.109 220.961 553.56 218.998C558.84 216.668 563.005 212.79 566.419 207.019C569.127 202.443 574.749 200.276 585.743 199.568C601.678 198.541 605.458 194.921 608.312 177.952C610.561 164.578 611.26 162.884 617.312 156.113C624.35 148.239 625.126 146.644 625.114 140.082C625.104 134.81 623.917 131.722 618.057 121.724C617.377 120.565 616.815 118.042 616.807 116.116C616.783 110.467 615.159 106.318 610.016 98.7706C607.356 94.8651 603.922 88.649 602.385 84.9571C598.527 75.6888 593.892 71.6106 586.137 70.6594C575.055 69.301 571.882 66.9535 568.819 57.8429C565.225 47.1603 562.98 44.1461 556.803 41.7197C553.778 40.532 548.896 37.922 545.955 35.9218C539.343 31.4254 533.71 31.09 526.808 34.779ZM548.304 45.0613C556.861 48.5716 557.421 48.9898 559.709 53.598C561.033 56.2639 562.334 60.7074 562.6 63.4731C563.084 68.5015 563.084 68.5015 553.485 68.0005C544.776 67.5453 543.35 67.179 538.07 64.0401C524.537 55.9924 516.471 56.238 506.722 64.9962C501.472 69.7122 501.472 69.7122 488.395 70.2112C477.044 70.6444 474.657 71.0397 470.318 73.2055C465.845 75.4382 464.888 76.5411 461.23 83.6855C458.981 88.0771 456.135 93.4668 454.906 95.6626C452.998 99.0691 452.753 100.622 453.239 106.248C453.921 114.144 455.962 120.3 459.38 124.775C462.712 129.136 464.425 129.945 473.787 131.589C484.219 133.419 486.624 134.805 492.636 142.442C500.849 152.873 502.723 153.911 515.42 155.061C530.957 156.467 533.914 157.017 537.453 159.164C543.698 162.953 545.938 170.779 541.835 174.485C539.74 176.378 535.987 176.621 518.31 176.006C510.386 175.73 508.567 176.01 503.082 178.346C495.348 181.641 494.019 181.642 487.532 178.362C479.592 174.349 476.151 171.33 472.298 164.998C467.884 157.745 463.395 153.771 457.175 151.615C447.364 148.211 445.41 146.845 444 142.393C442.936 139.038 441.366 137.266 435.992 133.352C430.826 129.589 428.572 127.104 426.068 122.413C422.38 115.506 422.102 112.318 424.693 106.642C427.82 99.7967 431.745 96.1437 440.425 92.0076C450.207 87.3455 455.23 82.351 460.167 72.3801C462.066 68.5444 465.449 62.9342 467.685 59.9119C472.971 52.7696 475.874 51.7805 488.855 52.6987C498.638 53.3914 498.638 53.3914 506.117 49.2942C511.666 46.2541 515.879 44.7988 522.444 43.654C527.311 42.8066 531.483 41.9223 531.716 41.6898C533.066 40.3424 540.47 41.8475 548.304 45.0613ZM529.119 68.4197C532.047 69.9218 530.51 71.7184 526.585 71.381C516.495 70.5137 509.683 75.8944 507.458 86.4891C506.676 90.214 505.311 94.0616 504.424 95.0398C503.537 96.0179 502.812 97.3054 502.812 97.9003C502.812 98.4962 505.551 101.268 508.898 104.06C514.546 108.771 516.859 109.69 521.878 109.22C522.741 109.139 525.44 109.975 527.877 111.079C534.746 114.189 538.918 113.737 548.092 108.887C555.443 105.002 556.319 104.205 558.532 99.4054C560.912 94.2463 563.802 92.3898 563.802 96.0219C563.802 97.0439 562.671 99.5432 561.289 101.576C559.906 103.609 558.123 106.832 557.326 108.738C555.555 112.967 551.895 114.668 541.696 115.999C537.632 116.529 532.524 117.897 530.346 119.038C522.707 123.042 512.135 120.76 501.768 112.871C497.989 109.993 493.878 106.915 492.632 106.029C490.369 104.419 490.369 104.419 493.332 100.04C495.929 96.2055 496.266 94.896 496.06 89.4754C495.746 81.2212 496.867 78.71 502.022 76.1309C504.381 74.9502 507.498 72.8752 508.948 71.5197C514.024 66.7758 523.174 65.3695 529.119 68.4197ZM568.301 75.9113C572.726 77.1669 578.537 89.5373 579.873 100.543C580.413 104.996 581.065 109.232 581.322 109.958C582.058 112.031 577.786 120.979 575.026 123.147C570.949 126.348 565.304 125.559 563.789 121.578C562.635 118.551 565.177 104.289 567.778 99.2018C572.249 90.4516 569.514 86.2725 556.303 81.6763C552.306 80.286 548.306 79.9706 536.342 80.1033C520.314 80.282 517.817 81.0206 517.804 85.5868C517.792 90.3098 515.743 95.1635 513.763 95.1635C512.101 95.1635 511.811 94.4609 511.813 90.4226C511.815 84.439 514.318 79.4077 518.81 76.3625C522.294 74.001 522.404 73.992 543.805 74.525C555.628 74.8194 566.651 75.4432 568.301 75.9113ZM489.169 76.4693C490.784 77.648 490.793 78.0014 489.312 81.5436C488.224 84.1416 487.921 86.7067 488.359 89.6191C488.969 93.6784 488.833 93.9918 485.579 95.9989C477.807 100.795 478.742 106.24 488.193 111.224C491.559 112.999 497.073 116.402 500.447 118.785C509.559 125.226 514.722 127.201 522.632 127.276C528.49 127.331 530.194 126.901 535.11 124.132C539.007 121.937 542.634 120.759 546.607 120.399C551.715 119.937 552.73 120.158 555.069 122.241C556.531 123.542 558.02 125.848 558.376 127.365C558.916 129.659 558.477 130.582 555.769 132.854C551.019 136.838 543.537 144.393 541.805 146.956C540.977 148.181 538.618 149.551 536.532 150.016C531.983 151.031 510.314 148.981 507.087 147.23C505.864 146.566 502.396 142.938 499.383 139.166C492.526 130.589 489.66 128.861 477.837 126.184C472.624 125.003 467.356 123.381 466.129 122.578C463.298 120.727 460.82 112.568 460.82 105.101C460.82 100.304 461.282 98.8505 463.817 95.6656C465.465 93.5945 467.277 90.185 467.842 88.0881C469.265 82.8141 473.092 78.6202 478.093 76.8525C483.415 74.9711 486.949 74.8484 489.169 76.4693ZM591.466 80.3509C592.712 81.5196 594.871 85.4521 596.264 89.0911C597.841 93.2103 600.494 97.553 603.295 100.598C607.529 105.202 607.794 105.826 607.794 111.185C607.794 116.494 606.371 120.946 601.465 130.996C600.822 132.314 598.57 134.532 596.462 135.926C594.353 137.318 590.678 141.181 588.293 144.507C580.372 155.564 574.962 159.089 566.083 158.985C559.658 158.91 554.911 157.113 552.479 153.836C550.7 151.442 550.603 150.672 551.642 147.209C553.176 142.096 558.171 137.689 569.87 131.126C589.545 120.088 590.216 118.772 586.236 99.0331C584.783 91.8309 582.932 84.3562 582.122 82.4219C580.91 79.5224 580.882 78.7499 581.974 78.0243C583.938 76.7178 588.885 77.9305 591.466 80.3509ZM529.808 86.9792C529.808 87.9673 529.268 89.3147 528.608 89.9735C526.524 92.0535 523.809 91.4127 523.809 88.8426C523.809 87.5611 524.109 86.2137 524.475 85.8484C524.841 85.4821 526.191 85.1826 527.475 85.1826C529.055 85.1826 529.808 85.7625 529.808 86.9792ZM554.635 90.0184C555.051 92.9498 553.219 97.4721 550.693 99.7548C548.193 102.013 536.012 107.141 533.148 107.141C529.768 107.141 517.492 104.127 516.069 102.949C513.407 100.744 515.128 100.154 524.22 100.154C534.317 100.154 543.043 97.7626 546.381 94.0816C548.64 91.5894 547.606 89.155 544.616 89.9246C542.529 90.4615 542.442 90.3527 543.717 88.8007C544.76 87.5321 546.33 87.1608 549.716 87.3804C553.662 87.6359 554.349 88.0052 554.635 90.0184ZM535.806 94.1465C535.806 95.0418 534.814 95.3751 528.058 96.7425C524.873 97.3873 525.258 95.5308 528.558 94.3271C532.172 93.0097 535.806 92.9188 535.806 94.1465ZM615.719 132.727C618.024 135.651 618.492 141.833 616.677 145.383C616.064 146.582 613.34 149.849 610.622 152.643C605.772 157.627 605.63 157.952 602.933 170.237C599.019 188.059 596.972 190.518 584.777 192.047C574.423 193.345 569.838 195.814 559.689 205.56C550.666 214.226 550.666 214.226 539.487 213.676C521.487 212.789 516.81 209.872 516.81 199.536C516.81 196.447 515.957 191.888 514.857 189.104C512.179 182.319 513.335 181.363 522.331 182.926C529.951 184.251 538.474 183.101 545.507 179.802C550.541 177.439 551.998 175.273 552.758 169.022C553.303 164.531 553.303 164.531 560.302 164.671C564.151 164.747 569.326 164.938 571.8 165.093C579.784 165.594 585.04 161.596 591.974 149.752C594.663 145.158 597.557 141.805 600.909 139.402C603.636 137.446 606.537 134.552 607.356 132.971C609.282 129.251 612.898 129.146 615.719 132.727ZM433.231 139.974C434.173 141.015 435.725 144.041 436.679 146.701C438.694 152.322 442.715 155.522 449.095 156.58C456.071 157.737 458.583 159.692 464.165 168.308C473.556 182.802 479.485 186.395 493.265 185.944C506.527 185.51 506.227 185.225 509.683 201.494C512.319 213.898 512.327 213.512 509.356 216.477C506.185 219.644 501.5 219.684 497.407 216.58C494.225 214.166 492.321 213.434 480.316 210.014C471.198 207.415 466.392 203.42 462.816 195.465C460.193 189.628 459.746 189.188 454.186 186.967C443.193 182.577 436.236 177.469 432.719 171.204C425.362 158.1 425.599 158.908 426.731 150.782C427.857 142.706 429.281 138.081 430.645 138.081C431.124 138.081 432.287 138.933 433.231 139.974Z" fill="#C20101"/>
<path d="M21.2685 811.192V729.738H38.4901V765.653H39.564L68.8765 729.738H89.5185L59.2912 766.209L89.8765 811.192H69.2742L46.9617 777.704L38.4901 788.045V811.192H21.2685Z" fill="black"/>
<path d="M112.527 811.192H94.0725L122.192 729.738H144.385L172.465 811.192H154.01L133.607 748.352H132.97L112.527 811.192ZM111.374 779.175H154.965V792.619H111.374V779.175Z" fill="black"/>
<path d="M169.213 743.937V729.738H236.111V743.937H211.173V811.192H194.151V743.937H169.213Z" fill="black"/>
<path d="M289.928 812.386C284.306 812.386 279.454 811.378 275.371 809.363C271.287 807.348 268.145 804.617 265.945 801.17C263.77 797.696 262.683 793.825 262.683 789.556C262.683 786.374 263.32 783.55 264.592 781.084C265.865 778.619 267.642 776.351 269.922 774.283C272.202 772.189 274.854 770.107 277.876 768.039L293.666 757.658C295.708 756.359 297.206 754.994 298.161 753.562C299.115 752.103 299.592 750.526 299.592 748.829C299.592 747.211 298.943 745.713 297.644 744.334C296.344 742.956 294.501 742.28 292.115 742.306C290.524 742.306 289.145 742.664 287.979 743.38C286.812 744.069 285.897 744.984 285.234 746.124C284.598 747.238 284.28 748.484 284.28 749.863C284.28 751.56 284.757 753.283 285.712 755.033C286.666 756.783 287.939 758.639 289.53 760.602C291.121 762.537 292.858 764.632 294.74 766.886L333.359 811.192H315.7L283.484 775.317C281.363 772.905 279.242 770.386 277.121 767.761C275.026 765.109 273.276 762.298 271.871 759.329C270.465 756.333 269.763 753.084 269.763 749.584C269.763 745.634 270.678 742.081 272.507 738.925C274.363 735.77 276.962 733.278 280.303 731.448C283.644 729.592 287.541 728.664 291.996 728.664C296.344 728.664 300.096 729.552 303.251 731.329C306.433 733.079 308.873 735.412 310.57 738.329C312.293 741.219 313.155 744.401 313.155 747.874C313.155 751.719 312.2 755.206 310.291 758.334C308.409 761.437 305.757 764.221 302.337 766.687L285.712 778.658C283.458 780.302 281.787 781.986 280.7 783.709C279.64 785.406 279.109 787.037 279.109 788.602C279.109 790.537 279.587 792.274 280.541 793.812C281.496 795.35 282.848 796.569 284.598 797.471C286.348 798.346 288.403 798.783 290.763 798.783C293.626 798.783 296.45 798.134 299.234 796.834C302.045 795.509 304.59 793.639 306.871 791.227C309.178 788.787 311.02 785.897 312.399 782.556C313.778 779.215 314.467 775.516 314.467 771.459H328.507C328.507 776.444 327.964 780.939 326.876 784.942C325.789 788.92 324.278 792.393 322.342 795.363C320.407 798.306 318.193 800.719 315.7 802.602C314.905 803.105 314.136 803.583 313.394 804.033C312.651 804.484 311.882 804.961 311.087 805.465C308.064 807.904 304.683 809.668 300.945 810.755C297.233 811.842 293.56 812.386 289.928 812.386Z" fill="#C20101"/>
<path d="M359.269 811.192V729.738H391.405C397.556 729.738 402.806 730.838 407.155 733.039C411.53 735.213 414.858 738.302 417.138 742.306C419.445 746.283 420.598 750.963 420.598 756.346C420.598 761.755 419.431 766.408 417.098 770.306C414.765 774.177 411.384 777.147 406.956 779.215C402.555 781.283 397.225 782.317 390.967 782.317H369.45V768.477H388.183C391.471 768.477 394.202 768.026 396.376 767.124C398.551 766.223 400.168 764.87 401.229 763.067C402.316 761.264 402.859 759.024 402.859 756.346C402.859 753.641 402.316 751.361 401.229 749.505C400.168 747.649 398.537 746.244 396.337 745.289C394.162 744.308 391.418 743.817 388.104 743.817H376.49V811.192H359.269ZM403.257 774.124L423.501 811.192H404.49L384.683 774.124H403.257Z" fill="black"/>
<path d="M507.621 770.465C507.621 779.348 505.937 786.904 502.57 793.136C499.229 799.367 494.668 804.126 488.888 807.414C483.134 810.675 476.664 812.306 469.479 812.306C462.24 812.306 455.744 810.662 449.99 807.374C444.236 804.086 439.689 799.327 436.348 793.096C433.007 786.865 431.337 779.321 431.337 770.465C431.337 761.583 433.007 754.026 436.348 747.795C439.689 741.564 444.236 736.817 449.99 733.556C455.744 730.268 462.24 728.624 469.479 728.624C476.664 728.624 483.134 730.268 488.888 733.556C494.668 736.817 499.229 741.564 502.57 747.795C505.937 754.026 507.621 761.583 507.621 770.465ZM490.161 770.465C490.161 764.711 489.299 759.859 487.575 755.908C485.878 751.958 483.479 748.961 480.376 746.92C477.274 744.878 473.642 743.857 469.479 743.857C465.316 743.857 461.683 744.878 458.581 746.92C455.479 748.961 453.066 751.958 451.342 755.908C449.645 759.859 448.797 764.711 448.797 770.465C448.797 776.219 449.645 781.071 451.342 785.022C453.066 788.973 455.479 791.969 458.581 794.011C461.683 796.052 465.316 797.073 469.479 797.073C473.642 797.073 477.274 796.052 480.376 794.011C483.479 791.969 485.878 788.973 487.575 785.022C489.299 781.071 490.161 776.219 490.161 770.465Z" fill="black"/>
<path d="M564.565 753.164C564.247 749.956 562.882 747.463 560.469 745.687C558.056 743.91 554.781 743.022 550.645 743.022C547.834 743.022 545.461 743.42 543.526 744.215C541.59 744.984 540.105 746.058 539.071 747.437C538.063 748.815 537.56 750.38 537.56 752.13C537.507 753.588 537.812 754.861 538.474 755.948C539.164 757.035 540.105 757.976 541.298 758.772C542.492 759.541 543.87 760.217 545.435 760.8C546.999 761.357 548.67 761.834 550.446 762.232L557.764 763.982C561.317 764.778 564.579 765.838 567.548 767.164C570.518 768.49 573.09 770.12 575.264 772.056C577.438 773.992 579.122 776.272 580.315 778.897C581.535 781.522 582.158 784.531 582.185 787.925C582.158 792.91 580.885 797.232 578.367 800.891C575.874 804.524 572.268 807.348 567.548 809.363C562.855 811.351 557.194 812.346 550.565 812.346C543.99 812.346 538.262 811.338 533.384 809.323C528.531 807.308 524.74 804.325 522.009 800.374C519.304 796.397 517.885 791.478 517.753 785.619H534.418C534.603 788.35 535.385 790.63 536.764 792.459C538.17 794.262 540.039 795.628 542.372 796.556C544.732 797.458 547.397 797.908 550.367 797.908C553.283 797.908 555.815 797.484 557.963 796.636C560.137 795.787 561.821 794.607 563.014 793.096C564.207 791.584 564.804 789.848 564.804 787.886C564.804 786.056 564.26 784.518 563.173 783.272C562.113 782.026 560.548 780.965 558.48 780.09C556.438 779.215 553.933 778.42 550.963 777.704L542.094 775.477C535.226 773.806 529.804 771.194 525.827 767.641C521.849 764.088 519.874 759.302 519.901 753.283C519.874 748.351 521.187 744.043 523.838 740.357C526.516 736.672 530.188 733.795 534.855 731.727C539.522 729.658 544.825 728.624 550.764 728.624C556.81 728.624 562.086 729.658 566.594 731.727C571.128 733.795 574.654 736.672 577.173 740.357C579.692 744.043 580.992 748.312 581.071 753.164H564.565Z" fill="black"/>
<path d="M593.768 811.192V729.738H648.655V743.937H610.99V763.346H645.831V777.545H610.99V796.994H648.814V811.192H593.768Z" fill="black"/>
</svg>
